<?xml version="1.0" encoding="UTF-8" standalone="no"?>
<!DOCTYPE svg PUBLIC "-//W3C//DTD SVG 1.1//EN" "http://www.w3.org/Graphics/SVG/1.1/DTD/svg11.dtd">
<svg width="100%" height="100%" viewBox="0 0 2666 798" version="1.1" xmlns="http://www.w3.org/2000/svg" xmlns:xlink="http://www.w3.org/1999/xlink" xml:space="preserve" xmlns:serif="http://www.serif.com/" style="fill-rule:evenodd;clip-rule:evenodd;stroke-linejoin:round;stroke-miterlimit:2;">
    <g transform="matrix(1,0,0,1,-75.313899,-369.277436)">
        <g transform="matrix(1,0,0,1,56.235194,-27.488409)">
            <g transform="matrix(1.043486,0,0,1.043486,816.023482,180.900552)">
                <g transform="matrix(2.75,0,0,2.75,0,0)">
                    <path d="M547.606,154.358C547.613,154.771 547.356,155.16 547.363,155.572C547.39,157.048 547.698,157.014 547.667,158.492C547.647,159.501 547.735,159.483 547.742,160.5C547.744,160.874 547.632,161.243 547.634,161.617C546.611,162.875 546.379,162.879 546.609,164.486C546.913,166.621 547.403,168.021 548.628,169.381C550.728,171.71 552.308,170.551 552.492,170.482C553.277,170.186 559.103,167.989 562.38,167.009C573.523,163.679 573.502,163.595 574.502,163.451C575.978,163.239 575.942,163.617 576.339,163.662L576.542,164.523C576.366,164.608 576.38,164.918 576.204,165.003C575.671,165.259 575.067,165.329 574.502,165.503C574.02,165.651 574.091,165.835 568.587,167.675C568.448,167.721 562.424,170.088 562.335,170.13C557.744,172.275 553.405,173.735 553.125,175.477C552.84,177.255 557.771,185.865 546.97,197.913C540.961,204.615 535.035,206.704 534.921,206.87C534.908,206.889 534.866,208.145 534.877,208.164C534.935,208.258 536.356,208.879 537.597,209.107C544.639,210.403 544.424,208.636 546.429,207.4C553.107,203.287 557.534,204.265 558.505,204.479C560.966,205.023 560.98,204.821 563.505,204.656C572.949,204.038 577.019,212.399 573.333,217.37C571.573,219.742 571.233,219.34 568.495,220.488C568.135,220.639 566.952,221.136 565.938,224.644C565.078,227.621 568.972,229.203 578.113,245.696C579.184,247.627 579.774,249.53 581.447,249.841C581.88,249.921 593.736,248.604 601.352,258.609C606.279,265.082 600.565,265.368 599.971,267.599C599.725,268.521 602.135,272.006 601.481,278.498C601.009,283.182 599.887,284.25 599.765,284.577C599.236,286.001 600.363,286.231 600.507,286.26C600.796,286.319 602.177,285.418 604.553,284.654C621.182,279.305 621.13,279.21 622.586,278.784C629.025,276.898 628.968,276.754 629.527,276.591C635.038,274.985 634.995,274.843 635.488,274.774C635.638,274.753 635.639,275.05 635.768,275.13C636.032,275.293 636.367,275.318 636.632,275.482C636.155,276.545 636.255,276.577 635.691,277.582C633.494,281.493 632.898,281.363 632.61,281.639C628.474,281.59 628.586,282.252 623.631,283.851C610.275,287.341 591.151,294.978 581.572,297.779C580.845,297.992 580.874,298.076 572.577,300.712C569.54,301.677 569.643,301.918 566.569,302.747C563.336,303.618 559.262,305.557 549.502,308.507C547.854,309.005 534.312,313.542 533.579,313.754C532.923,313.944 532.958,314.015 525.488,316.464C522.025,317.6 522.112,317.824 518.604,318.832C515.778,319.643 514.605,320.348 509.563,321.727C508.831,321.927 508.873,322.02 500.56,324.688C497.544,325.656 497.62,325.846 494.569,326.713C493.182,327.107 493.241,327.282 477.418,332.247C476.621,332.497 476.642,332.53 467.534,335.605C459.269,338.396 459.283,338.389 458.624,338.76C457.016,339.664 457.07,339.726 455.467,340.618C448.459,337.959 448.56,337.226 448.874,336.699C449.404,335.809 449.631,336.12 450.607,335.787C451.182,335.591 459.596,333.397 460.237,333.077C460.424,332.984 460.527,332.763 460.713,332.67C460.838,332.626 462.267,332.116 462.267,332.116C462.414,332.036 462.496,331.862 462.646,331.787C463.165,331.528 464.35,331.066 464.5,331.008C464.823,330.882 465.22,330.927 465.5,330.722C465.916,330.417 466.084,329.848 466.5,329.543C468.355,329.55 468.344,329.562 468.504,329.55C471.349,329.344 475.481,327.638 475.583,327.586C476.257,327.24 476.12,327.058 475.79,326.394C475.288,325.387 475.069,325.606 474.154,324.96C471.351,322.979 471.491,322.818 470.083,320.792C467.946,317.714 467.187,318.716 463.592,319.792C463.036,319.958 457.726,321.547 457.094,316.573C456.368,310.852 457.632,302.496 457.632,302.495C457.471,300.068 454.839,300.356 454.137,296.587C452.673,288.726 455.12,287.224 457.634,285.724C461.476,283.431 462.636,285.217 465.735,281.706C468.17,278.947 468.384,278.393 466.645,276.371C466.274,275.94 464.07,273.377 465.206,269.41C466.61,264.509 473.65,265.03 476.604,263.637C477.445,263.24 477.476,261.932 476.425,261.638C474.66,261.146 467.616,264.696 461.381,259.659C454.04,253.73 455.343,242.428 461.429,238.4C467.361,234.474 469.829,238.12 470.916,234.634C472.818,228.531 472.812,225.472 481.209,211.342C482.992,208.341 482.867,208.158 482.623,207.434C482.449,206.92 482.313,207.038 480.774,206.09C479.325,205.197 477.64,202.813 475.341,204.18C469.692,207.538 462.413,213.425 461.338,214.294C450.191,223.31 446.473,228.533 445.095,230.145C433.502,243.708 429.973,256.441 429.553,257.521C429.14,258.585 427.586,262.581 426.871,271.537C425.709,286.096 431.336,296.1 434.26,299.676C440.254,307.008 445.544,308.029 446.135,308.827C446.337,309.099 446.529,310.296 445.477,310.345C445.145,310.361 436.482,307.87 428.631,297.402C428.006,296.568 424.697,292.156 423.123,285.592C420.632,275.207 422.613,263.476 422.933,261.582C423.278,259.537 425.642,251.938 426.269,250.403C429.805,241.75 435.033,231.582 447.782,218.769C454.157,212.361 466.207,203.454 468.789,201.924C470.987,200.622 471.931,200.943 471.448,199.523C471.353,199.243 468.999,198.109 467.893,197.038C467.317,196.481 467.258,196.577 466.608,196.106C464.307,190.86 463.82,191.073 462.049,185.611C461.228,183.08 460.489,182.603 460.409,182.474C460.415,182.282 460.639,181.776 460.462,180.504C459.725,175.203 459.558,175.146 459.13,174.999C457.354,174.389 439.277,186.826 436.298,189.239C434.589,190.624 434.507,190.484 432.795,191.86C416.94,204.609 412.661,210.758 407.657,216.632C400.402,225.149 393.278,237.53 390.724,243.591C388.467,248.949 388.443,248.938 388.28,249.416C386.029,256.031 385.974,256.006 385.808,256.59C384.053,262.761 384.351,262.824 384.136,263.337C383.996,263.672 382.762,264.57 382.509,264.49C382.348,264.439 381.767,262.579 381.714,262.409C380.651,259.011 380.231,259.104 379.988,255.541C381.256,251.518 381.416,251.589 382.829,247.607C384.467,242.988 390.34,230.86 396.797,221.7C403.329,212.432 410.446,205.078 411.746,203.734C430.756,184.089 452.749,172.602 455.696,170.85C458.321,169.289 459.486,169.581 459.85,166.544C460.312,162.693 460.986,161.183 459.482,160.533C454.873,158.538 441.586,160.895 428.464,158.709C421.037,157.471 413.411,153.163 411.392,151.652C407.662,148.86 399.994,143.128 404.584,135.559C407.35,130.997 420.258,127.282 426.528,126.763C444.237,125.296 447.534,129.321 448.492,128.487C449.728,127.414 447.736,126.496 447.571,126.42C447.189,126.244 447.125,126.349 445.18,124.878C438.775,120.033 438.039,114.516 437.895,113.441C435.97,99.021 463.191,101.94 478.294,109.875C490.874,116.484 492.301,120.551 494.76,122.134C495.999,122.932 500.618,121.399 501.505,120.504C502.753,119.244 502.722,110.368 507.541,109.711C511.714,109.142 513.993,114.354 515.99,117.127C517.299,118.945 520.81,118.28 524.506,118.284C530.925,118.29 531.422,121.962 529.99,124.739C527.574,129.424 525.38,130.124 526.488,131.51C526.713,131.79 528.303,132.5 528.467,132.573C528.964,132.795 531.342,134.141 532.754,135.116C535.735,137.174 535.776,137.361 539.21,140.79C540.989,142.566 541.342,141.349 546.387,140.077C551.47,138.795 551.367,138.482 556.473,137.328C562.95,135.864 562.934,135.805 563.505,135.722C564.995,135.506 565.334,135.181 565.986,136.521C566.498,137.573 565.673,137.269 564.546,137.585C564.3,137.654 562.435,138.177 561.466,138.426C559.106,139.033 549.377,142.263 546.459,143.39C543.567,144.506 542.111,144.725 543.738,147.36C545.847,150.774 546.071,153.01 546.981,154.112C547.124,154.284 547.463,154.186 547.606,154.358Z" style="fill:rgb(36,88,130);"/>
                </g>
                <g transform="matrix(2.75,0,0,2.75,0,0)">
                    <path d="M547.606,154.358C547.463,154.186 547.124,154.284 546.981,154.112C546.071,153.01 545.847,150.774 543.738,147.36C542.111,144.725 543.567,144.506 546.459,143.39C549.377,142.263 559.106,139.033 561.466,138.426C562.435,138.177 564.3,137.654 564.546,137.585C565.673,137.269 566.498,137.573 565.986,136.521C565.334,135.181 564.995,135.506 563.505,135.722C562.934,135.805 562.95,135.864 556.473,137.328C551.367,138.482 551.47,138.795 546.387,140.077C541.342,141.349 540.989,142.566 539.21,140.79C535.776,137.361 535.735,137.174 532.754,135.116C531.342,134.141 528.964,132.795 528.467,132.573C528.303,132.5 526.713,131.79 526.488,131.51C525.38,130.124 527.574,129.424 529.99,124.739C531.422,121.962 530.925,118.29 524.506,118.284C520.81,118.28 517.299,118.945 515.99,117.127C513.993,114.354 511.714,109.142 507.541,109.711C502.722,110.368 502.753,119.244 501.505,120.504C500.618,121.399 495.999,122.932 494.76,122.134C492.301,120.551 490.874,116.484 478.294,109.875C463.191,101.94 435.97,99.021 437.895,113.441C438.039,114.516 438.775,120.033 445.18,124.878C447.125,126.349 447.189,126.244 447.571,126.42C447.736,126.496 449.728,127.414 448.492,128.487C447.534,129.321 444.237,125.296 426.528,126.763C420.258,127.282 407.35,130.997 404.584,135.559C399.994,143.128 407.662,148.86 411.392,151.652C413.411,153.163 421.037,157.471 428.464,158.709C441.586,160.895 454.873,158.538 459.482,160.533C460.986,161.183 460.312,162.693 459.85,166.544C459.486,169.581 458.321,169.289 455.696,170.85C452.749,172.602 430.756,184.089 411.746,203.734C410.446,205.078 403.329,212.432 396.797,221.7C390.34,230.86 384.467,242.988 382.829,247.607C381.416,251.589 381.256,251.518 379.988,255.541C379.806,255.135 379.334,254.906 379.152,254.5C379.052,254.276 379.344,254.199 378.381,251.536C377.688,249.624 377.618,249.652 376.888,246.401C376.025,242.553 374.741,238.886 373.811,227.463C373.446,222.977 373.261,223.006 373.078,218.514C372.991,216.355 372.657,208.149 374.921,191.561C375.345,188.453 377.916,177.684 378.308,176.441C382.323,163.718 384.132,158.412 391.266,145.376C396.742,135.372 406.091,123.591 410.811,118.804C423.473,105.962 427.625,103.711 435.286,98.209C439.44,95.225 455.402,85.764 471.393,81.143C477.363,79.418 477.317,79.281 483.43,78.134C489.075,77.075 489.171,76.455 500.515,75.729C510.005,75.122 545.541,71.837 583.768,95.048C613.291,112.975 627.348,135.171 635.177,149.672C635.415,150.113 635.303,150.159 637.916,155.303C640.305,160.006 645.297,173.646 646.762,180.44C648.694,189.395 648.979,189.335 649.951,198.454C650.314,201.857 651.399,205.836 651.043,219.478C650.999,221.189 649.938,234.273 648.105,242.405C646.607,249.052 646.776,249.08 644.663,255.555C643.042,260.526 643.101,260.53 641.251,265.407C640.177,268.24 639.688,268.571 638.561,271.529C637.679,273.847 636.82,274.249 636.7,274.5C636.558,274.796 636.774,275.186 636.632,275.482C636.367,275.318 636.032,275.293 635.768,275.13C635.639,275.05 635.638,274.753 635.488,274.774C634.995,274.843 635.038,274.985 629.527,276.591C628.968,276.754 629.025,276.898 622.586,278.784C621.13,279.21 621.182,279.305 604.553,284.654C602.177,285.418 600.796,286.319 600.507,286.26C600.363,286.231 599.236,286.001 599.765,284.577C599.887,284.25 601.009,283.182 601.481,278.498C602.135,272.006 599.725,268.521 599.971,267.599C600.565,265.368 606.279,265.082 601.352,258.609C593.736,248.604 581.88,249.921 581.447,249.841C579.774,249.53 579.184,247.627 578.113,245.696C568.972,229.203 565.078,227.621 565.938,224.644C566.952,221.136 568.135,220.639 568.495,220.488C571.233,219.34 571.573,219.742 573.333,217.37C577.019,212.399 572.949,204.038 563.505,204.656C560.98,204.821 560.966,205.023 558.505,204.479C557.534,204.265 553.107,203.287 546.429,207.4C544.424,208.636 544.639,210.403 537.597,209.107C536.356,208.879 534.935,208.258 534.877,208.164C534.866,208.145 534.908,206.889 534.921,206.87C535.035,206.704 540.961,204.615 546.97,197.913C557.771,185.865 552.84,177.255 553.125,175.477C553.405,173.735 557.744,172.275 562.335,170.13C562.424,170.088 568.448,167.721 568.587,167.675C574.091,165.835 574.02,165.651 574.502,165.503C575.067,165.329 575.671,165.259 576.204,165.003C576.38,164.918 576.366,164.608 576.542,164.523C576.475,164.236 576.407,163.949 576.339,163.662C575.942,163.617 575.978,163.239 574.502,163.451C573.502,163.595 573.523,163.679 562.38,167.009C559.103,167.989 553.277,170.186 552.492,170.482C552.308,170.551 550.728,171.71 548.628,169.381C547.403,168.021 546.913,166.621 546.609,164.486C546.379,162.879 546.611,162.875 547.634,161.617C551.342,160.654 559.47,156.791 570.394,153.169C572.61,152.434 573.975,151.65 578.411,150.263C579.064,150.059 578.982,149.838 586.458,147.378C589.48,146.384 589.406,146.204 592.443,145.299C597.368,143.83 598.185,142.55 598.681,144.44C598.966,145.524 597.952,150.349 599.497,150.516C601.189,150.699 604.078,146.04 607.371,146.979C607.615,147.049 607.593,147.109 610.387,147.951C611.68,148.34 611.644,148.566 612.493,148.47C613.825,148.319 613.286,146.732 613.234,146.578C611.997,142.938 610.412,141.456 613.65,137.639C614.446,136.701 615.733,135.568 615.591,134.471C615.348,132.593 608.805,135.273 606.89,132.241C605.094,129.401 605.068,129.423 604.914,129.175C604.179,127.996 604.428,127.638 603.492,127.534C602.141,127.384 601.977,128.885 601.288,131.449C600.216,135.439 599.117,134.69 594.42,136.297C593.359,136.659 592.952,136.453 592.933,137.564C592.916,138.568 593.099,138.536 593.884,139.142C594.253,139.427 594.727,139.569 595.068,139.887C596.5,141.218 593.815,141.794 593.626,141.835C589.098,142.806 589.067,142.606 584.57,143.734C577.016,145.629 577.02,145.554 569.512,147.553C568.19,147.906 565.313,148.405 562.473,149.429C560.353,150.193 557.344,150.714 552.466,152.4C551.237,152.824 548.682,153.47 548.504,153.553C548.14,153.724 547.969,154.187 547.606,154.358Z" style="fill:rgb(150,211,241);"/>
                </g>
                <g transform="matrix(2.75,0,0,2.75,0,0)">
                    <path d="M466.608,196.106C467.258,196.577 467.317,196.481 467.893,197.038C468.999,198.109 471.353,199.243 471.448,199.523C471.931,200.943 470.987,200.622 468.789,201.924C466.207,203.454 454.157,212.361 447.782,218.769C435.033,231.582 429.805,241.75 426.269,250.403C425.642,251.938 423.278,259.537 422.933,261.582C422.613,263.476 420.632,275.207 423.123,285.592C424.697,292.156 428.006,296.568 428.631,297.402C436.482,307.87 445.145,310.361 445.477,310.345C446.529,310.296 446.337,309.099 446.135,308.827C445.544,308.029 440.254,307.008 434.26,299.676C431.336,296.1 425.709,286.096 426.871,271.537C427.586,262.581 429.14,258.585 429.553,257.521C429.973,256.441 433.502,243.708 445.095,230.145C446.473,228.533 450.191,223.31 461.338,214.294C462.413,213.425 469.692,207.538 475.341,204.18C477.64,202.813 479.325,205.197 480.774,206.09C482.313,207.038 482.449,206.92 482.623,207.434C482.867,208.158 482.992,208.341 481.209,211.342C472.812,225.472 472.818,228.531 470.916,234.634C469.829,238.12 467.361,234.474 461.429,238.4C455.343,242.428 454.04,253.73 461.381,259.659C467.616,264.696 474.66,261.146 476.425,261.638C477.476,261.932 477.445,263.24 476.604,263.637C473.65,265.03 466.61,264.509 465.206,269.41C464.07,273.377 466.274,275.94 466.645,276.371C468.384,278.393 468.17,278.947 465.735,281.706C462.636,285.217 461.476,283.431 457.634,285.724C455.12,287.224 452.673,288.726 454.137,296.587C454.839,300.356 457.471,300.068 457.632,302.495C457.632,302.496 456.368,310.852 457.094,316.573C457.726,321.547 463.036,319.958 463.592,319.792C467.187,318.716 467.946,317.714 470.083,320.792C471.491,322.818 471.351,322.979 474.154,324.96C475.069,325.606 475.288,325.387 475.79,326.394C476.12,327.058 476.257,327.24 475.583,327.586C475.481,327.638 471.349,329.344 468.504,329.55C468.344,329.562 468.355,329.55 466.5,329.543C462.303,329.093 460.102,329.161 452.449,326.652C447.005,324.867 437.795,320.172 431.671,314.324C427.708,310.54 422.558,304.951 418.384,293.547C418,292.497 413.777,278.982 416.631,264.526C417.091,262.195 416.843,260.533 420.244,250.416C424.826,236.781 434.094,225.535 435.667,223.627C439.868,218.529 446.464,211.161 459.355,201.29C463.289,198.278 466.011,196.496 466.608,196.106Z" style="fill:rgb(203,233,248);"/>
                </g>
                <g transform="matrix(2.75,0,0,2.75,0,0)">
                    <path d="M460.409,182.474C460.489,182.603 461.228,183.08 462.049,185.611C463.82,191.073 464.307,190.86 466.608,196.106C466.011,196.496 463.289,198.278 459.355,201.29C446.464,211.161 439.868,218.529 435.667,223.627C434.094,225.535 424.826,236.781 420.244,250.416C416.843,260.533 417.091,262.195 416.631,264.526C413.777,278.982 418,292.497 418.384,293.547C422.558,304.951 427.708,310.54 431.671,314.324C437.795,320.172 447.005,324.867 452.449,326.652C460.102,329.161 462.303,329.093 466.5,329.543C466.084,329.848 465.916,330.417 465.5,330.722C465.22,330.927 464.823,330.882 464.5,331.008C464.35,331.066 463.165,331.528 462.646,331.787C462.496,331.862 462.414,332.036 462.267,332.116C462.267,332.116 460.838,332.626 460.713,332.67C460.214,332.444 459.874,331.942 459.374,331.716C458.922,331.512 455.225,332.178 450.427,330.739C446.997,329.711 430.146,326.311 417.651,310.385C408.526,298.755 405.838,281.264 407.642,268.52C408.399,263.178 408.942,258.703 412.249,249.407C412.88,247.635 416.967,237.548 422.786,228.675C432.777,213.439 446.238,202.536 448.608,200.616C453.362,196.766 453.397,196.808 453.561,196.523C453.773,196.152 453.806,195.682 453.763,195.257C453.52,192.875 436.866,206.993 430.627,213.622C423.036,221.688 417.239,228.31 410.322,241.394C408.416,244.999 405.257,252.701 404.485,255.495C403.252,259.951 403.424,259.98 402.268,264.445C401.226,268.469 399.558,286.387 403.745,297.46C403.806,297.621 404.427,299.261 404.44,299.497C404.543,301.251 403.356,301.116 402.352,299.688C401.85,298.974 401.896,298.963 396.225,290.677C391.082,283.162 390.07,280.401 389.712,279.424C389.081,277.7 389.392,275.411 390.761,266.54C391.338,262.799 391.569,262.858 393.739,254.559C394.845,250.33 399.508,239.951 402.876,234.734C405.229,231.089 415.228,212.794 441.726,193.818C444.212,192.037 444.229,192.1 452.548,186.567C452.99,186.273 458.826,182.588 459.465,182.465C459.774,182.406 460.1,182.534 460.409,182.474Z" style="fill:rgb(49,143,200);"/>
                </g>
                <g transform="matrix(2.75,0,0,2.75,0,0)">
                    <path d="M632.61,281.639C632.15,284.144 632.137,284.184 628.645,289.595C618.124,305.9 605.209,316.865 602.828,318.886C596.008,324.676 596.004,324.652 588.622,329.692C570.975,341.741 549.721,348.88 535.437,351.077C530.298,351.868 524.761,352.871 516.482,353.062C501.716,353.402 498.711,352.162 497.506,351.887C498.173,351.312 497.835,351.058 498.5,350.485C498.564,350.431 498.6,350.399 499.5,350.169C501.606,349.631 501.496,349.361 503.561,348.654C506.441,347.669 517.463,343.898 537.648,331.755C546.863,326.212 546.902,326.3 547.683,325.788C549.364,324.684 586.444,303.227 592.414,300.302C614.586,289.441 614.566,289.429 616.5,288.501C618.25,287.662 618.356,288.072 618.5,287.991C618.863,287.786 618.921,287.19 619.308,287.036C619.681,286.888 620.102,287.247 620.5,287.196C620.861,287.149 621.17,286.908 621.5,286.754C623.335,285.899 623.441,286.085 623.5,285.922C623.715,285.323 623.264,284.658 623.304,284.023C623.312,283.9 623.623,283.974 623.631,283.851C628.586,282.252 628.474,281.59 632.61,281.639Z" style="fill:rgb(125,201,236);"/>
                </g>
                <g transform="matrix(2.75,0,0,2.75,0,0)">
                    <path d="M623.631,283.851C623.623,283.974 623.312,283.9 623.304,284.023C623.264,284.658 623.715,285.323 623.5,285.922C623.441,286.085 623.335,285.899 621.5,286.754C621.17,286.908 620.861,287.149 620.5,287.196C620.102,287.247 619.681,286.888 619.308,287.036C618.921,287.19 618.863,287.786 618.5,287.991C618.356,288.072 618.25,287.662 616.5,288.501C614.566,289.429 614.586,289.441 592.414,300.302C586.444,303.227 549.364,324.684 547.683,325.788C546.902,326.3 546.863,326.212 537.648,331.755C517.463,343.898 506.441,347.669 503.561,348.654C501.496,349.361 501.606,349.631 499.5,350.169C498.6,350.399 498.564,350.431 498.5,350.485C497.835,351.058 498.173,351.312 497.506,351.887C495.595,351.824 489.809,351.996 473.485,347.558C472.632,347.326 465.3,344.955 463.603,344.25C459.468,342.534 459.419,342.685 455.467,340.618C457.07,339.726 457.016,339.664 458.624,338.76C459.283,338.389 459.269,338.396 467.534,335.605C476.642,332.53 476.621,332.497 477.418,332.247C493.241,327.282 493.182,327.107 494.569,326.713C497.62,325.846 497.544,325.656 500.56,324.688C508.873,322.02 508.831,321.927 509.563,321.727C514.605,320.348 515.778,319.643 518.604,318.832C522.112,317.824 522.025,317.6 525.488,316.464C532.958,314.015 532.923,313.944 533.579,313.754C534.312,313.542 547.854,309.005 549.502,308.507C559.262,305.557 563.336,303.618 566.569,302.747C569.643,301.918 569.54,301.677 572.577,300.712C580.874,298.076 580.845,297.992 581.572,297.779C591.151,294.978 610.275,287.341 623.631,283.851Z" style="fill:rgb(65,164,219);"/>
                </g>
                <g transform="matrix(2.75,0,0,2.75,0,0)">
                    <path d="M539.388,159.573C539.819,160.252 541.991,164.451 542.082,164.682C543.388,167.992 543,169.646 545.747,172.232C546.238,172.694 557.337,181.208 542.167,197.174C541.058,198.342 541.007,198.256 538.898,199.979C538.191,199.637 538.207,198.425 537.5,198.084C537.424,198.047 534.737,199.957 534.5,200.125C533.588,200.773 533.553,200.697 531.5,201.714C531.159,201.882 530.867,202.162 530.5,202.262C530.178,202.349 529.811,202.138 529.5,202.258C529.114,202.405 529.346,202.787 527.48,203.444C527.322,203.5 517.499,205.874 512.502,205.887C508.328,205.898 499.048,204.488 494.653,202.14C488.929,199.083 488.06,197.196 487.014,195.827C486.526,195.188 486.534,195.204 486.125,194.5C485.169,192.854 484.888,192.904 484.591,192.521C485.332,189.059 485.158,189.043 485.587,185.517C485.742,185.403 485.96,185.397 486.115,185.282C486.372,185.093 487.125,183.996 489.427,183.288C493.35,182.082 490.047,180.293 490.719,174.535C491.411,168.603 494.24,166.576 496.335,165.233C502.047,161.573 510.29,165.021 513.468,172.514C514.636,175.269 514.706,176.591 517.394,175.276C523.315,172.379 526.285,173.734 526.701,172.669C527.691,170.13 524.73,166.599 528.53,160.522C528.933,159.876 529.946,157.831 534.463,157.982C534.647,157.988 537.031,158.549 537.401,158.684C537.556,158.742 537.625,158.944 537.777,159.009C537.903,159.063 537.897,159.051 539.388,159.573Z" style="fill:rgb(252,252,250);"/>
                </g>
                <g transform="matrix(2.75,0,0,2.75,0,0)">
                    <path d="M500.291,212.151C499.063,214.281 498.984,214.234 498.968,214.446C498.945,214.732 499.851,216.642 501.429,217.579C502.874,218.436 503.297,218.891 503.695,219.157C504.019,219.784 503.501,219.873 503.824,220.5C503.863,220.576 503.939,220.722 504.705,221.113C504.97,221.249 505.291,221.25 505.557,221.384C505.944,221.58 506.254,221.911 506.647,222.094C508.836,223.117 512.948,222.522 513.49,222.443C516.079,222.069 516.258,221.561 516.497,221.486C516.646,221.44 518.545,221.408 518.594,221.444C518.84,221.624 518.912,223.297 518.919,223.46C518.946,224.102 518.935,224.746 519,225.385C519,225.385 519.784,226.778 519.852,226.899C518.447,229.564 518.207,229.798 518,230C513.439,234.439 497.933,237.638 489.652,226.21C489.347,225.788 489.458,225.523 488.502,225.51C487.097,225.49 487.573,226.205 488.081,227.515C489.206,230.421 490.988,232.205 493.233,233.856C496.121,235.981 497.212,236.188 499.49,237.038C499.251,237.312 498.747,237.238 498.507,237.512C498.31,237.738 497.936,240.261 498.592,242.48C499.018,243.92 499.247,243.802 499.552,244.417C499.535,244.794 499.243,245.123 499.226,245.5C499.178,246.571 499.309,246.72 500.372,246.863C500.372,246.863 502.32,246.724 502.489,246.711C502.723,246.864 502.886,247.669 504.59,248.08C508.095,248.924 508.134,248.637 508.42,248.758C508.555,248.814 508.493,249.075 508.62,249.148C508.708,249.198 510.282,249.633 510.427,249.673C510.721,249.754 511.04,249.76 511.317,249.888C511.458,249.953 511.503,250.146 511.634,250.23C512.39,250.716 512.492,250.466 513.262,250.916C513.356,250.972 513.29,251.036 514.38,251.704C514.525,251.793 514.626,251.957 514.787,252.014C514.913,252.06 515.076,251.923 515.19,251.995C515.353,252.098 515.371,252.347 515.517,252.474C515.722,252.651 516.007,252.715 516.217,252.885C517,253.518 518.454,255.18 518.638,255.39C518.772,255.543 518.972,255.633 519.096,255.796C519.26,256.012 519.308,256.305 519.488,256.508C519.62,256.657 519.892,256.647 520,256.814C520.075,256.927 519.908,257.09 519.953,257.218C520.024,257.419 520.651,258.293 520.716,258.383C521.114,258.937 521.115,258.915 521.357,259.57C521.461,259.852 521.504,260.175 521.696,260.408C521.814,260.553 522.131,260.452 522.217,260.618C522.366,260.908 522.23,261.274 522.303,261.592C522.83,263.874 523.545,264.064 523.708,264.449C523.813,264.698 523.932,267.231 523.943,267.474C523.959,267.816 523.725,268.194 523.88,268.5C524.229,269.188 524.579,268.852 524.983,269.525C525.241,269.957 524.799,270.035 525.055,270.463C524.595,273.046 524.428,273.017 524.514,273.499C524.667,274.356 525.293,274.019 525.443,274.861C522.007,275.39 520.77,275.598 518.404,277.373C516.637,278.7 516.615,278.647 514.741,279.801C512.409,281.439 512.058,282.119 511.822,282.357C508.762,276.398 510.39,275.363 506.47,270.528C501.995,265.009 492.791,266.536 487.52,264.446C482.507,262.457 480.368,260.229 478.359,257.604C477.784,256.853 475.046,253.275 474.217,246.54C472.443,232.129 481.895,218.015 484.434,213.46C486.204,210.283 487.201,209.963 487.565,209.846C488.529,209.537 492.06,211.422 497.592,212.015C498.743,212.139 499.419,211.937 499.488,211.94C499.765,211.954 500.015,212.138 500.291,212.151Z" style="fill:rgb(252,161,55);"/>
                </g>
                <g transform="matrix(2.75,0,0,2.75,0,0)">
                    <path d="M560.33,229.093C560.519,229.471 560.493,229.933 560.681,230.311C560.733,230.415 560.886,230.301 561.53,231.483C562.416,233.108 570.314,244.219 572.126,249.598C572.761,251.483 573.407,251.626 573.616,251.958C573.471,252.031 572.644,252.329 571.288,253.138C568.968,254.521 568.008,255.202 567.158,252.643C565.246,246.891 564.973,247.012 562.603,241.434C562.175,240.427 562.076,240.489 561.932,240.188C561.801,239.915 560.429,237.062 560.187,236.834C559.616,236.297 557.941,236.298 558.704,238.462C559.806,241.584 560.111,241.451 561.174,244.578C564.97,255.739 564.988,257.564 562.96,260.797C554.966,273.545 560.299,280.744 557.347,283.33C553.318,286.861 542.166,289.818 530.606,293.805C529.242,294.276 529.184,294.073 513.439,299.309C512.166,299.733 510.248,300.639 509.28,299.705C508.375,298.832 509.339,296.52 507.804,291.41C506.959,288.597 503.748,282.49 498.572,280.345C485.468,274.915 472.207,283.391 466.65,290.728C466.051,291.52 466.149,291.619 465.594,291.895C464.393,292.492 464.127,291.798 464.524,290.503C465.055,288.769 471.748,279.601 474.452,278.403C478.098,276.788 496.477,271.025 498.523,270.867C503.609,270.475 505.617,277.598 505.845,278.408C507.501,284.287 510.296,291.243 522.526,289.715C527.499,289.094 540.169,285.566 545.375,280.376C546.516,279.238 551.953,273.818 552.395,261.496C552.796,250.341 546.836,239.575 546.08,235.581C545.513,232.587 545.879,227.869 549.451,228.682C550.099,228.829 552.279,229.623 553.444,229.812C557.448,230.464 560.308,229.099 560.33,229.093Z" style="fill:rgb(247,131,43);"/>
                </g>
                <g transform="matrix(2.75,0,0,2.75,0,0)">
                    <path d="M496.859,135.168C497.876,136.047 499.173,136.242 499.141,139.506C499.11,142.685 498.424,148.332 501.425,149.651C505.255,151.336 510.761,144.321 513.554,143.907C515.601,143.603 522.827,148.013 525.746,145.871C527.678,144.454 527.31,142.311 527.405,141.529C527.976,141.539 527.941,141.684 528.5,141.693C529.402,141.708 529.362,141.552 529.437,141.562C530.139,141.656 532.496,144.025 532.736,144.267C537.407,148.962 536.583,149.717 537.057,150.946C537.142,151.167 537.415,151.279 537.5,151.5C535.834,151.263 525.54,149.8 516.466,151.291C502.007,153.667 494.052,158.076 492.274,159.062C489.764,160.453 487.974,161.318 485.275,164.299C481.834,168.098 481.04,173.649 480.914,174.53C480.88,174.767 480.565,176.971 480.538,177.506C480.521,177.846 480.672,178.181 480.654,178.521C480.393,178.549 480.149,178.678 479.887,178.706C479.484,178.749 479.071,178.663 478.672,178.732C478.259,178.804 477.896,179.1 477.477,179.124C476.751,179.165 474.615,178.296 473.574,175.472C473.405,175.014 472.713,173.135 472.299,169.505C472.221,168.826 472.324,168.109 472.093,167.466C471.821,166.71 471.335,167.026 471.126,166.244C471.004,165.788 471.715,166.047 471.596,165.601C473.69,163.881 479.107,160.749 480.35,152.477C480.408,152.091 480.837,149.24 480.117,147.603C479.952,147.227 479.596,146.955 479.433,146.577C479.357,146.4 479.569,146.127 479.426,145.997C479.179,145.773 478.717,145.927 478.47,145.702C480.245,143.405 480.302,143.459 482.687,141.783C485.097,140.088 491.229,137.454 494.416,137.115C495.516,136.998 495.567,137.102 495.757,136.858C496.17,136.327 496.446,135.699 496.859,135.168Z" style="fill:rgb(99,186,231);"/>
                </g>
                <g transform="matrix(2.75,0,0,2.75,0,0)">
                    <path d="M512.371,304.101C515.397,303.033 515.373,303.026 515.639,302.947C519.145,301.908 519.078,301.769 522.564,300.691C530.903,298.111 530.853,297.986 531.58,297.77C539.722,295.342 543.784,293.721 548.419,292.227C549.163,291.987 554.071,290.404 557.339,288.244C559.471,286.835 559.626,287.189 561.517,287.36C563.672,287.554 566.01,286.307 567.44,286.676C568.521,286.955 568.282,287.275 568.933,288.185C571.611,291.932 575.081,293.536 575.087,293.747C575.096,294.059 574.813,294.309 574.659,294.581C574.282,295.249 574.174,295.137 573.43,295.335C571.702,295.796 571.189,296.253 567.448,297.313C564.387,298.18 564.468,298.389 561.442,299.332C553.114,301.929 553.167,302.078 552.437,302.281C548.123,303.485 545.46,304.659 544.34,305.006C537.933,306.987 537.979,307.101 537.422,307.272C529.077,309.826 529.151,310.041 528.421,310.246C523.995,311.494 523.019,312.088 519.413,313.192C515.917,314.263 516.003,314.469 512.518,315.556C506.765,317.35 506.874,317.609 502.417,319.048C501.347,319.394 501,319.564 500.715,318.468C500.661,318.262 501.435,316.656 501.509,316.504C502.863,313.695 502.765,311.323 502.922,309.524C503.252,305.727 504.765,306.618 512.371,304.101Z" style="fill:rgb(226,243,251);"/>
                </g>
                <g transform="matrix(2.75,0,0,2.75,0,0)">
                    <path d="M467.003,296.153C467.497,295.984 468.036,296.669 468.531,296.5C469.017,296.334 469.227,295.736 469.5,295.3C469.73,294.934 469.765,294.458 470.027,294.114C470.113,294.001 473.234,291.416 473.379,291.331C473.634,291.181 474.007,291.27 474.229,291.074C474.405,290.918 474.248,290.541 474.434,290.398C474.679,290.21 475.061,290.345 475.342,290.218C475.757,290.03 476.085,289.687 476.485,289.469C482.949,285.948 491.446,285.019 495.467,288.529C496.033,289.023 497.261,290.547 498.289,291.741C498.999,292.565 499.17,292.454 499.501,293.499C499.578,293.742 500.849,296.364 500.746,300.533C500.707,302.078 500.45,302.024 500.416,302.5C500.388,302.88 500.578,303.256 500.55,303.636C498.878,304.222 498.834,304.078 479.471,310.405C462.473,315.959 462.275,316.07 461.514,315.483C460.167,314.443 461.181,304.345 467.003,296.153Z" style="fill:rgb(249,131,44);"/>
                </g>
                <g transform="matrix(2.75,0,0,2.75,0,0)">
                    <path d="M444.069,117.781C438.956,109.648 442.903,107.305 452.501,107.411C460.792,107.503 466.284,109.317 467.431,109.696C471.884,111.167 478.305,112.983 488.112,120.957C490.783,123.128 490.711,124.165 490.687,124.516C490.664,124.841 490.501,125.142 490.379,125.444C489.785,126.91 489.548,126.882 489.746,128.463C489.885,129.578 490.153,129.597 489.762,130.661C489.644,130.985 489.656,131.104 486.431,132.332C485,130.878 485.165,130.683 483.358,129.724C482.159,129.088 480.8,128.471 480.574,128.368C470.896,123.975 466.52,124.806 457.613,122.137C451.443,120.287 451.661,119.798 447.457,117.563C445.435,116.487 445.68,116.023 445.5,116.099C444.82,116.382 444.748,117.498 444.069,117.781Z" style="fill:rgb(253,174,65);"/>
                </g>
                <g transform="matrix(2.75,0,0,2.75,0,0)">
                    <path d="M539.388,159.573C537.897,159.051 537.903,159.063 537.777,159.009C537.625,158.944 537.556,158.742 537.401,158.684C537.031,158.549 534.647,157.988 534.463,157.982C529.946,157.831 528.933,159.876 528.53,160.522C524.73,166.599 527.691,170.13 526.701,172.669C526.285,173.734 523.315,172.379 517.394,175.276C514.706,176.591 514.636,175.269 513.468,172.514C510.29,165.021 502.047,161.573 496.335,165.233C494.24,166.576 491.411,168.603 490.719,174.535C490.047,180.293 493.35,182.082 489.427,183.288C487.125,183.996 486.372,185.093 486.115,185.282C485.96,185.397 485.742,185.403 485.587,185.517C485.547,185.236 485.159,185.187 484.765,178.482C484.333,171.147 486.665,163.572 504.402,158.177C505.672,157.79 510.429,155.804 522.521,154.725C536.357,153.49 538.504,157.233 538.559,157.452C538.638,157.766 538.437,158.135 538.585,158.422C538.751,158.744 538.985,158.385 539.194,158.685C539.465,159.073 539.116,159.182 539.388,159.573Z" style="fill:rgb(250,158,57);"/>
                </g>
                <g transform="matrix(2.75,0,0,2.75,0,0)">
                    <path d="M547.606,154.358C547.969,154.187 548.14,153.724 548.504,153.553C548.682,153.47 551.237,152.824 552.466,152.4C557.344,150.714 560.353,150.193 562.473,149.429C565.313,148.405 568.19,147.906 569.512,147.553C577.02,145.554 577.016,145.629 584.57,143.734C589.067,142.606 589.098,142.806 593.626,141.835C593.815,141.794 596.5,141.218 595.068,139.887C594.727,139.569 594.253,139.427 593.884,139.142C593.099,138.536 592.916,138.568 592.933,137.564C592.952,136.453 593.359,136.659 594.42,136.297C599.117,134.69 600.216,135.439 601.288,131.449C601.977,128.885 602.141,127.384 603.492,127.534C604.428,127.638 604.179,127.996 604.914,129.175C605.068,129.423 605.094,129.401 606.89,132.241C608.805,135.273 615.348,132.593 615.591,134.471C615.733,135.568 614.446,136.701 613.65,137.639C610.412,141.456 611.997,142.938 613.234,146.578C613.286,146.732 613.825,148.319 612.493,148.47C611.644,148.566 611.68,148.34 610.387,147.951C607.593,147.109 607.615,147.049 607.371,146.979C604.078,146.04 601.189,150.699 599.497,150.516C597.952,150.349 598.966,145.524 598.681,144.44C598.185,142.55 597.368,143.83 592.443,145.299C589.406,146.204 589.48,146.384 586.458,147.378C578.982,149.838 579.064,150.059 578.411,150.263C573.975,151.65 572.61,152.434 570.394,153.169C559.47,156.791 551.342,160.654 547.634,161.617C547.632,161.243 547.744,160.874 547.742,160.5C547.735,159.483 547.647,159.501 547.667,158.492C547.698,157.014 547.39,157.048 547.363,155.572C547.356,155.16 547.613,154.771 547.606,154.358Z" style="fill:rgb(47,137,194);"/>
                </g>
                <g transform="matrix(2.75,0,0,2.75,0,0)">
                    <path d="M407.258,139.468C407.902,137.985 407.843,135.761 417.54,132.632C420.728,131.603 430.559,129.964 436.499,130.513C438.502,130.698 457.518,131.185 472.371,145.636C476.578,149.731 476.667,150.904 476.711,151.485C476.845,153.249 475.041,156.438 474.817,156.833C474.545,156.583 474.11,156.562 473.838,156.312C473.745,156.228 473.94,156.112 473.009,154.984C462.323,142.032 448.134,139.066 446.477,138.577C439.432,136.499 429.804,137.058 426.506,137.55C415.584,139.18 417.567,143.295 417.566,143.468C415.985,143.093 416.001,143.109 414.481,142.555C414.001,142.38 409.056,140.578 408.5,140.293C408.058,140.067 407.7,139.695 407.258,139.468Z" style="fill:rgb(252,252,247);"/>
                </g>
                <g transform="matrix(2.75,0,0,2.75,0,0)">
                    <path d="M484.591,192.521C484.888,192.904 485.169,192.854 486.125,194.5C486.534,195.204 486.526,195.188 487.014,195.827C488.06,197.196 488.929,199.083 494.653,202.14C499.048,204.488 508.328,205.898 512.502,205.887C517.499,205.874 527.322,203.5 527.48,203.444C529.346,202.787 529.114,202.405 529.5,202.258C529.811,202.138 530.178,202.349 530.5,202.262C530.867,202.162 531.159,201.882 531.5,201.714C533.553,200.697 533.588,200.773 534.5,200.125C534.737,199.957 537.424,198.047 537.5,198.084C538.207,198.425 538.191,199.637 538.898,199.979C534.918,203.06 534.75,202.77 530.343,205.205C527.606,206.718 526.433,206.857 526.369,207.42C526.318,207.871 528.492,213.302 526.306,214.01C524.97,214.443 524.27,213.753 517.639,215.923C511.153,218.045 507.48,218.162 502.171,214.927C500.813,214.099 500.556,214.295 500.382,213.536C500.278,213.085 500.395,212.602 500.291,212.151C500.783,212.146 506.122,212.094 506.393,211.409C506.431,211.313 505.912,210.368 505.759,210.297C503.847,209.399 500.224,210.176 493.419,207.734C492.966,207.571 486.131,205.698 480.723,201.241C478.141,199.113 480.019,198.621 481.401,197.388C482.008,196.847 482.758,195.914 482.868,195.778C484.128,194.211 484.313,193.157 484.591,192.521Z" style="fill:rgb(204,231,243);"/>
                </g>
                <g transform="matrix(2.75,0,0,2.75,0,0)">
                    <path d="M507.204,115.352C507.602,115.883 508.43,115.97 508.828,116.5C509.019,116.754 508.675,117.153 508.781,117.453C508.83,117.594 509.15,117.446 509.208,117.583C509.337,117.886 509.201,118.246 509.257,118.571C509.367,119.201 509.565,119.812 509.705,120.436C510.846,125.531 510.772,125.54 511.188,126.648C511.826,128.345 512.27,128.916 513.647,127.74C515.897,125.819 520.897,124.387 521.429,124.256C523.332,123.791 523.356,124.52 523.433,124.379C523.813,123.684 523.211,122.736 523.514,122.005C523.638,121.706 524.351,122.168 524.475,121.869C524.766,121.95 525.088,121.843 525.378,121.924C525.537,121.969 526.399,122.829 526.218,123.438C525.489,125.904 520.21,129.05 520.933,133.433C521.346,135.942 523.355,140.911 523.271,141.466C523.264,141.51 522.507,142.345 522.458,142.362C520.699,142.96 515.391,138.349 511.371,140.258C510.386,140.726 505.129,144.952 504.428,145.261C503.895,145.496 502.906,144.743 502.812,144.402C502.688,143.95 502.912,138.984 502.933,138.514C503.166,133.375 501.552,133.863 496.638,130.304C495.818,129.709 493.151,128.352 495.028,127.031C496.657,125.884 503.607,125.677 504.913,122.698C505.406,121.573 505.801,119.659 506.151,118.397C506.583,116.835 506.619,116.867 507.204,115.352Z" style="fill:rgb(250,181,54);"/>
                </g>
                <g transform="matrix(2.75,0,0,2.75,0,0)">
                    <path d="M574.281,256.091C574.774,256.338 574.963,257.008 575.456,257.256C575.499,257.277 577.272,257.094 577.462,257.041C578.201,256.831 578.153,256.63 580.502,256.443C580.957,256.808 581.045,257.517 581.5,257.883C581.628,257.985 581.73,257.563 583.5,258.321C583.855,258.473 584.127,258.803 584.5,258.903C585.192,259.088 585.961,258.91 586.633,259.159C587.072,259.321 587.307,259.812 587.689,260.082C587.938,260.257 588.254,260.317 588.509,260.483C589.527,261.149 590.961,262.757 591.138,262.916C591.368,263.123 591.68,263.248 591.858,263.5C592.151,263.916 592.228,264.459 592.521,264.875C584.781,265.473 580.582,265.26 576.354,268.28C571.61,271.668 570.313,275.638 568.738,278.629C566.987,281.954 563.872,283.198 562.929,282.129C561.434,280.434 560.676,262.702 574.281,256.091Z" style="fill:rgb(246,123,39);"/>
                </g>
                <g transform="matrix(2.75,0,0,2.75,0,0)">
                    <path d="M417.566,143.468C417.567,143.295 415.584,139.18 426.506,137.55C429.804,137.058 439.432,136.499 446.477,138.577C448.134,139.066 462.323,142.032 473.009,154.984C473.94,156.112 473.745,156.228 473.838,156.312C474.11,156.562 474.545,156.583 474.817,156.833C474.328,157.765 474.332,157.739 473.757,158.636C473.438,158.458 473.01,158.56 472.691,158.382C472.586,158.324 472.777,158.128 471.551,157.401C466.003,154.111 462.412,153.519 457.506,152.478C457.425,152.305 456.5,150.315 456.5,150.315C456.192,150 455.636,150.045 455.302,149.757C455.121,149.6 453.869,146.628 444.688,143.083C439.09,140.922 427.448,140.111 421.474,142.399C421.156,142.52 420.885,142.759 420.555,142.84C420.473,142.861 420.474,142.784 419.5,142.886C418.372,143.004 417.598,143.458 417.566,143.468Z" style="fill:rgb(249,123,36);"/>
                </g>
                <g transform="matrix(2.75,0,0,2.75,0,0)">
                    <path d="M499.49,237.038C500.903,237.33 507.294,239.472 516.479,235.455C518.87,234.409 518.999,233.395 521.429,233.783C523.977,234.19 524.008,234.199 526.498,233.493C529.511,232.64 528.978,234.409 528.821,237.532C528.559,242.745 525.611,250.416 523.503,250.397C522.127,250.384 521.518,247.929 514.618,245.216C507.92,242.582 500.63,244.666 500.52,244.662C500.187,244.651 499.884,244.429 499.552,244.417C499.247,243.802 499.018,243.92 498.592,242.48C497.936,240.261 498.31,237.738 498.507,237.512C498.747,237.238 499.251,237.312 499.49,237.038Z" style="fill:rgb(248,251,251);"/>
                </g>
                <g transform="matrix(2.75,0,0,2.75,0,0)">
                    <path d="M531.149,190.406C530.66,191.83 528.79,200.306 522.509,200.642C516.477,200.965 513.747,193.448 513.414,192.532C512.448,189.871 512.374,189.895 510.854,188.183C508.797,185.865 510.563,184.592 511.405,184.88C512.475,185.244 515.088,188.627 519.469,187.389C521.531,186.806 523.131,184.873 523.302,184.433C523.767,183.232 522.601,182.648 522.455,182.574C521.44,182.065 521.402,182.191 520.397,181.687C518.275,180.622 518.061,178.983 518.452,178.47C519.167,177.532 520.244,177.876 520.398,177.925C521.089,178.146 521.716,178.536 522.401,178.774C525.77,179.94 526.624,176.578 527.484,176.438C529.385,176.129 528.919,178.389 528.878,178.59C528.6,179.936 526.124,181.351 526.563,183.48C526.939,185.306 531.079,186.077 532.634,182.574C533.375,180.904 533.298,180.861 533.595,180.623C534.288,180.067 534.452,180.271 534.959,181.007C535.771,182.185 534.756,184.605 534.226,185.311C533.786,185.897 532.646,186.978 532.364,187.404C531.381,188.887 531.368,189.646 531.149,190.406Z" style="fill:rgb(39,86,125);"/>
                </g>
                <g transform="matrix(2.75,0,0,2.75,0,0)">
                    <path d="M407.258,139.468C407.7,139.695 408.058,140.067 408.5,140.293C409.056,140.578 414.001,142.38 414.481,142.555C416.001,143.109 415.985,143.093 417.566,143.468C417.627,143.552 417.906,144.515 419.489,145.517C432.44,153.71 444.349,150.822 457.506,152.478C462.412,153.519 466.003,154.111 471.551,157.401C472.777,158.128 472.586,158.324 472.691,158.382C473.01,158.56 473.438,158.458 473.757,158.636C473.397,159.118 472.553,161.045 470.603,160.252C470.539,160.225 469.189,159.445 467.415,158.734C455.506,153.962 449.046,156.388 436.486,155.752C430.888,155.469 421.039,153.58 413.6,148.349C406.395,143.283 407.318,140.682 407.258,139.468Z" style="fill:rgb(199,229,244);"/>
                </g>
                <g transform="matrix(2.75,0,0,2.75,0,0)">
                    <path d="M417.566,143.468C417.598,143.458 418.372,143.004 419.5,142.886C420.474,142.784 420.473,142.861 420.555,142.84C420.885,142.759 421.156,142.52 421.474,142.399C427.448,140.111 439.09,140.922 444.688,143.083C453.869,146.628 455.121,149.6 455.302,149.757C455.636,150.045 456.192,150 456.5,150.315C456.5,150.315 457.425,152.305 457.506,152.478C444.349,150.822 432.44,153.71 419.489,145.517C417.906,144.515 417.627,143.552 417.566,143.468Z" style="fill:rgb(253,152,87);"/>
                </g>
                <g transform="matrix(2.75,0,0,2.75,0,0)">
                    <path d="M471.596,165.601C471.715,166.047 471.004,165.788 471.126,166.244C471.335,167.026 471.821,166.71 472.093,167.466C472.324,168.109 472.221,168.826 472.299,169.505C472.713,173.135 473.405,175.014 473.574,175.472C474.615,178.296 476.751,179.165 477.477,179.124C477.896,179.1 478.259,178.804 478.672,178.732C479.071,178.663 479.484,178.749 479.887,178.706C480.149,178.678 480.393,178.549 480.654,178.521C481.257,181.216 482.415,189.723 479.432,193.449C479.402,193.487 479.381,193.451 478.989,193.861C478.44,194.435 478.398,194.371 477.791,194.894C476.971,194.258 477.429,193.88 476.598,193.237C476.303,193.008 476.268,193.243 475.629,193.22C475.496,193.215 474.157,193.166 473.968,193.08C473.75,192.98 472.898,192.23 472.809,192.151C470.09,189.754 466.503,178.509 466.287,173.508C465.995,166.781 467.23,167.029 467.549,166.475C468.33,166.395 469.553,166.356 471.596,165.601Z" style="fill:rgb(54,148,202);"/>
                </g>
                <g transform="matrix(2.75,0,0,2.75,0,0)">
                    <path d="M544.606,267.043C544.128,266.593 543.92,267.017 543.443,266.569C543.372,266.502 542.994,266.145 542.927,265.462C542.81,264.265 545.832,253.189 538.747,245.295C534.458,240.517 532.536,241.595 532.621,238.501C532.629,238.186 532.707,235.352 532.861,234.567C533.254,232.56 533.966,233.068 536.512,231.518C537.584,230.865 540.893,227.21 542.261,228.717C542.846,229.362 542.482,229.475 542.186,231.447C541.298,237.37 543.981,242.263 544.775,244.39C548.977,255.645 548.25,260.858 547.907,264.551C547.606,267.783 546.286,267.18 544.606,267.043Z" style="fill:rgb(187,227,247);"/>
                </g>
                <g transform="matrix(2.75,0,0,2.75,0,0)">
                    <path d="M444.069,117.781C444.748,117.498 444.82,116.382 445.5,116.099C445.68,116.023 445.435,116.487 447.457,117.563C451.661,119.798 451.443,120.287 457.613,122.137C466.52,124.806 470.896,123.975 480.574,128.368C480.8,128.471 482.159,129.088 483.358,129.724C485.165,130.683 485,130.878 486.431,132.332C482.081,134.449 481.939,135.481 477.392,133.789C468.489,130.475 462.145,131.519 451.793,125.054C446.803,121.937 444.535,118.49 444.069,117.781Z" style="fill:rgb(250,128,35);"/>
                </g>
                <g transform="matrix(2.75,0,0,2.75,0,0)">
                    <path d="M530.739,246.613C530.989,246.75 531.25,246.869 531.5,247.007C531.824,247.185 532.182,247.32 532.463,247.56C532.64,247.712 532.664,247.995 532.837,248.151C533.022,248.319 533.317,248.33 533.499,248.501C533.697,248.688 533.747,248.997 533.938,249.192C534.085,249.343 534.316,249.383 534.485,249.509C534.874,249.8 535.354,250.025 535.608,250.439C535.777,250.715 535.497,251.125 535.651,251.41C535.877,251.83 536.429,252 536.673,252.41C536.763,252.561 536.497,252.631 537.356,254.5C538.168,256.27 537.975,256.392 538.082,256.5C538.539,256.959 539.306,257.018 539.763,257.477C540.092,266.819 538.494,267.641 538.645,268.532C538.736,269.065 539.349,269.413 539.439,269.946C536.377,270.465 536.355,270.451 533.659,272.024C530.523,270.993 530.514,271.05 530.276,270.893C527.631,269.141 530.662,267.064 527.282,257.579C526.133,254.354 526.27,254.108 528.219,251.308C528.898,250.333 530.55,246.995 530.739,246.613Z" style="fill:rgb(246,123,40);"/>
                </g>
                <g transform="matrix(2.75,0,0,2.75,0,0)">
                    <path d="M467.003,296.153C471.163,289.31 480.045,283.149 488.503,282.541C489.892,282.441 495.791,282.719 499.308,285.731C505.585,291.106 505.648,300.495 503.404,302.389C503.078,302.664 500.782,303.547 500.55,303.636C500.578,303.256 500.388,302.88 500.416,302.5C500.45,302.024 500.707,302.078 500.746,300.533C500.849,296.364 499.578,293.742 499.501,293.499C499.17,292.454 498.999,292.565 498.289,291.741C497.261,290.547 496.033,289.023 495.467,288.529C491.446,285.019 482.949,285.948 476.485,289.469C476.085,289.687 475.757,290.03 475.342,290.218C475.061,290.345 474.679,290.21 474.434,290.398C474.248,290.541 474.405,290.918 474.229,291.074C474.007,291.27 473.634,291.181 473.379,291.331C473.234,291.416 470.113,294.001 470.027,294.114C469.765,294.458 469.73,294.934 469.5,295.3C469.227,295.736 469.017,296.334 468.531,296.5C468.036,296.669 467.497,295.984 467.003,296.153Z" style="fill:rgb(251,197,134);"/>
                </g>
                <g transform="matrix(2.75,0,0,2.75,0,0)">
                    <path d="M503.695,219.157C506.434,220.054 509.226,221.327 516.545,219.706C520.222,218.892 527.936,215.47 533.246,218.892C535.298,220.214 535.136,220.407 536.21,222.583C534.625,224.438 534.874,224.995 532.463,225.317C527.886,225.927 526.78,224.217 526.5,224.344C525.934,224.6 525.908,225.548 525.342,225.804C522.454,224.984 522.274,225.137 519.852,226.899C519.784,226.778 519,225.385 519,225.385C518.935,224.746 518.946,224.102 518.919,223.46C518.912,223.297 518.84,221.624 518.594,221.444C518.545,221.408 516.646,221.44 516.497,221.486C516.258,221.561 516.079,222.069 513.49,222.443C512.948,222.522 508.836,223.117 506.647,222.094C506.254,221.911 505.944,221.58 505.557,221.384C505.291,221.25 504.97,221.249 504.705,221.113C503.939,220.722 503.863,220.576 503.824,220.5C503.501,219.873 504.019,219.784 503.695,219.157Z" style="fill:rgb(248,248,242);"/>
                </g>
                <g transform="matrix(2.75,0,0,2.75,0,0)">
                    <path d="M582.511,285.894C581.732,285.768 579.014,285.895 576.321,282.632C574.08,279.918 574.371,275.183 576.492,275.534C578.132,275.806 580.532,283.374 583.796,279.741C586.452,276.783 580.366,272.905 580.861,271.533C581.62,269.43 585.647,270.361 587.231,271.812C590.137,274.471 590.757,278.516 589.22,281.343C586.759,285.867 582.965,285.808 582.511,285.894Z" style="fill:rgb(210,238,250);"/>
                </g>
                <g transform="matrix(2.75,0,0,2.75,0,0)">
                    <path d="M495.911,177.463C495.912,177.142 495.884,176.821 495.885,176.5C495.93,167.18 508.687,166.719 509.172,177.513C509.314,180.664 507.424,179.907 505.492,179.866C499.32,179.734 497.633,182.682 496.612,180.437C496.097,179.304 496.238,179.269 495.911,177.463Z" style="fill:rgb(36,84,123);"/>
                </g>
                <g transform="matrix(2.75,0,0,2.75,0,0)">
                    <path d="M547.388,211.381C548.443,210.452 548.357,210.361 549.564,209.653C549.695,209.576 550.838,208.904 551.46,209.54C552.13,210.226 550.893,211.935 550.796,214.51C550.567,220.64 554.344,224.185 554.42,224.52C554.433,224.575 553.66,225.748 553.599,225.765C553.064,225.916 550.637,224.919 550.39,224.817C544.877,222.552 544.684,224.092 542.454,224.103C540.723,224.111 540.349,222.768 540.293,222.563C539.485,219.655 541.87,218.872 542.485,218.479C545.202,216.745 544.031,215.066 547.388,211.381Z" style="fill:rgb(246,135,52);"/>
                </g>
                <g transform="matrix(2.75,0,0,2.75,0,0)">
                    <path d="M525.443,274.861C531.197,274.564 532.946,275.335 535.593,278.442C535.145,278.818 534.948,279.44 534.5,279.816C534.085,280.163 528.916,281.724 524.44,282.142C517.223,282.816 516.38,280.882 514.741,279.801C516.615,278.647 516.637,278.7 518.404,277.373C520.77,275.598 522.007,275.39 525.443,274.861Z" style="fill:rgb(253,254,252);"/>
                </g>
                <g transform="matrix(2.75,0,0,2.75,0,0)">
                    <path d="M562.758,221.658C561.674,222.877 561.73,222.931 561.305,223.152C556.742,225.527 552.005,214.699 556.091,210.131C557.453,208.608 559.772,208.592 561.641,211.399C564.905,216.301 563.732,219.461 562.758,221.658Z" style="fill:rgb(253,254,253);"/>
                </g>
                <g transform="matrix(2.75,0,0,2.75,0,0)">
                    <path d="M467.549,166.475C467.23,167.029 465.995,166.781 466.287,173.508C466.503,178.509 470.09,189.754 472.809,192.151C472.898,192.23 473.75,192.98 473.968,193.08C474.157,193.166 475.496,193.215 475.629,193.22C476.268,193.243 476.303,193.008 476.598,193.237C477.429,193.88 476.971,194.258 477.791,194.894C470.882,198.132 468.627,190.973 466.715,186.402C462.497,176.318 463.332,162.988 465.523,162.596C465.741,162.557 467.666,162.213 467.542,164.498C467.513,165.033 467.323,164.984 467.325,165.518C467.327,166.023 467.547,165.967 467.549,166.475Z" style="fill:rgb(94,177,222);"/>
                </g>
                <g transform="matrix(2.75,0,0,2.75,0,0)">
                    <path d="M460.419,247.494C460.49,247.172 460.523,246.842 460.594,246.519C461.282,243.391 464.043,240.245 467.48,240.078C471.267,239.893 469.609,242.047 470.614,249.488C470.268,249.917 469.846,250.28 469.5,250.708C469.227,251.047 469.133,251.559 468.761,251.783C468.445,251.974 464.88,252.14 462.5,249.692C462.331,249.519 462.346,249.529 460.419,247.494Z" style="fill:rgb(252,253,252);"/>
                </g>
                <g transform="matrix(2.75,0,0,2.75,0,0)">
                    <path d="M538.775,166.289C539.811,168.488 541.464,171.998 538.495,172.47C537.522,172.625 537.528,172.535 536.538,172.701C533.596,173.192 532.908,174.558 531.529,174.371C529.532,174.1 528.514,167.124 530.74,164.721C532.358,162.975 536.13,162.438 538.391,165.585C538.547,165.802 538.619,166.072 538.775,166.289Z" style="fill:rgb(34,85,126);"/>
                </g>
                <g transform="matrix(2.75,0,0,2.75,0,0)">
                    <path d="M572.892,135.459C572.804,135.16 573.022,134.214 571.864,133.131C571.36,132.66 570.322,132.07 570.265,131.565C570.123,130.315 570.511,130.394 571.686,129.914C571.972,129.797 572.287,129.756 572.571,129.634C574.403,128.848 574.427,126.161 574.817,125.86C575.649,125.218 576.492,126.284 576.584,126.4C578.06,128.265 578.14,128.426 580.502,128.485C582.648,128.539 582.541,129.611 581.726,130.61C579.527,133.301 580.955,134.423 581.171,135.548C581.197,135.683 581.424,136.866 580.471,137.126C579.929,137.274 578.167,135.523 575.749,136.962C574.557,137.672 574.585,138.289 573.331,137.707C572.225,137.193 572.912,136.822 572.892,135.459Z" style="fill:rgb(42,131,186);"/>
                </g>
                <g transform="matrix(2.75,0,0,2.75,0,0)">
                    <path d="M587.414,166.334C587.072,166.576 585.66,167.672 584.954,167.008C584.049,166.156 585.927,164.185 582.264,161.733C581.58,161.275 581.408,161.306 581.448,160.492C581.539,158.622 584.709,160.545 585.736,156.591C586.084,155.251 586.256,154.941 587.585,155.339C588.338,155.564 588.382,158.078 591.545,158.114C592.625,158.127 592.831,157.633 593.51,158.492C594.433,159.66 591.641,160.942 592.216,163.553C592.622,165.399 593.157,165.624 592.305,166.177C592.075,166.327 591.776,166.398 591.503,166.368C590.808,166.29 590.157,165.974 589.466,165.86C589.015,165.786 588.644,165.872 588.574,165.888C587.961,166.029 588.038,166.19 587.414,166.334Z" style="fill:rgb(44,127,181);"/>
                </g>
                <g transform="matrix(2.75,0,0,2.75,0,0)">
                    <path d="M535.593,278.442C535.766,278.852 536.135,279.159 536.308,279.569C536.881,280.927 535.764,281.579 535.611,281.668C534.472,282.333 520.582,288.888 514.33,284.795C512.254,283.436 512.275,282.888 511.822,282.357C512.058,282.119 512.409,281.439 514.741,279.801C516.38,280.882 517.223,282.816 524.44,282.142C528.916,281.724 534.085,280.163 534.5,279.816C534.948,279.44 535.145,278.818 535.593,278.442Z" style="fill:rgb(200,231,245);"/>
                </g>
                <g transform="matrix(2.75,0,0,2.75,0,0)">
                    <path d="M507.204,115.352C507.407,115.148 507.385,114.781 507.589,114.577C509.016,113.144 510.344,115.317 510.47,115.524C511.442,117.114 513.002,119.348 513.231,119.674C514.236,121.114 514.126,122.664 524.475,121.869C524.351,122.168 523.638,121.706 523.514,122.005C523.211,122.736 523.813,123.684 523.433,124.379C523.356,124.52 523.332,123.791 521.429,124.256C520.897,124.387 515.897,125.819 513.647,127.74C512.27,128.916 511.826,128.345 511.188,126.648C510.772,125.54 510.846,125.531 509.705,120.436C509.565,119.812 509.367,119.201 509.257,118.571C509.201,118.246 509.337,117.886 509.208,117.583C509.15,117.446 508.83,117.594 508.781,117.453C508.675,117.153 509.019,116.754 508.828,116.5C508.43,115.97 507.602,115.883 507.204,115.352Z" style="fill:rgb(251,232,172);"/>
                </g>
                <g transform="matrix(2.75,0,0,2.75,0,0)">
                    <path d="M460.419,247.494C462.346,249.529 462.331,249.519 462.5,249.692C464.88,252.14 468.445,251.974 468.761,251.783C469.133,251.559 469.227,251.047 469.5,250.708C469.846,250.28 470.268,249.917 470.614,249.488C472.264,256.269 472.952,256.035 473.048,256.631C473.533,259.617 468.889,258.561 468.506,258.474C458.935,256.298 460.416,247.564 460.419,247.494Z" style="fill:rgb(197,228,245);"/>
                </g>
                <g transform="matrix(2.75,0,0,2.75,0,0)">
                    <path d="M560.33,229.093C560.744,229.043 561.114,228.785 561.528,228.735C562.998,228.558 563.941,230.64 565.853,233.238C566.602,234.257 569.699,238.467 574.205,246.666C575.841,249.643 575.739,250.228 575.682,250.556C575.621,250.909 575.323,251.197 575.277,251.241C575.173,251.342 575.155,251.294 573.616,251.958C573.407,251.626 572.761,251.483 572.126,249.598C570.314,244.219 562.416,233.108 561.53,231.483C560.886,230.301 560.733,230.415 560.681,230.311C560.493,229.933 560.519,229.471 560.33,229.093Z" style="fill:rgb(249,219,170);"/>
                </g>
                <g transform="matrix(2.75,0,0,2.75,0,0)">
                    <path d="M502.489,246.711C503.209,246.654 508.137,246.261 511.471,247.576C526.075,253.335 525.252,265.16 525.055,270.463C524.799,270.035 525.241,269.957 524.983,269.525C524.579,268.852 524.229,269.188 523.88,268.5C523.725,268.194 523.959,267.816 523.943,267.474C523.932,267.231 523.813,264.698 523.708,264.449C523.545,264.064 522.83,263.874 522.303,261.592C522.23,261.274 522.366,260.908 522.217,260.618C522.131,260.452 521.814,260.553 521.696,260.408C521.504,260.175 521.461,259.852 521.357,259.57C521.115,258.915 521.114,258.937 520.716,258.383C520.651,258.293 520.024,257.419 519.953,257.218C519.908,257.09 520.075,256.927 520,256.814C519.892,256.647 519.62,256.657 519.488,256.508C519.308,256.305 519.26,256.012 519.096,255.796C518.972,255.633 518.772,255.543 518.638,255.39C518.454,255.18 517,253.518 516.217,252.885C516.007,252.715 515.722,252.651 515.517,252.474C515.371,252.347 515.353,252.098 515.19,251.995C515.076,251.923 514.913,252.06 514.787,252.014C514.626,251.957 514.525,251.793 514.38,251.704C513.29,251.036 513.356,250.972 513.262,250.916C512.492,250.466 512.39,250.716 511.634,250.23C511.503,250.146 511.458,249.953 511.317,249.888C511.04,249.76 510.721,249.754 510.427,249.673C510.282,249.633 508.708,249.198 508.62,249.148C508.493,249.075 508.555,248.814 508.42,248.758C508.134,248.637 508.095,248.924 504.59,248.08C502.886,247.669 502.723,246.864 502.489,246.711Z" style="fill:rgb(247,230,196);"/>
                </g>
                <g transform="matrix(2.75,0,0,2.75,0,0)">
                    <path d="M492.74,192.018C492.611,191.92 492.472,191.833 492.343,191.735C489.192,189.36 492.521,185.908 496.433,185.194C504.055,183.803 505.069,189.334 500.475,191.453C495.817,193.602 493.181,192.148 492.74,192.018Z" style="fill:rgb(251,188,170);"/>
                </g>
                <g transform="matrix(2.75,0,0,2.75,0,0)">
                    <path d="M574.281,256.091C581.012,252.291 588.601,254.427 590.596,255.287C592.375,256.053 600.078,260.836 598.145,263.154C597.989,263.341 597.696,263.377 597.539,263.565C597.227,263.475 596.942,264.006 596.629,263.916C594.694,263.36 595.628,261.749 589.663,258.184C589.356,258 587.975,257.175 585.459,256.64C583.187,256.156 581.733,256.38 580.502,256.443C578.153,256.63 578.201,256.831 577.462,257.041C577.272,257.094 575.499,257.277 575.456,257.256C574.963,257.008 574.774,256.338 574.281,256.091Z" style="fill:rgb(247,219,174);"/>
                </g>
                <g transform="matrix(2.75,0,0,2.75,0,0)">
                    <path d="M527.405,141.529C527.385,141.439 527.476,140.746 527.013,139.741C526.901,139.499 525.742,136.983 525.892,136.605C525.92,136.535 527.232,136.309 527.533,136.378C527.625,136.399 530.799,138.51 531.235,138.851C538.296,144.37 540.123,148.955 541.254,150.628C543.458,153.888 540.772,153.285 540.569,153.216C540.439,153.171 537.745,151.639 537.5,151.5C537.415,151.279 537.142,151.167 537.057,150.946C536.583,149.717 537.407,148.962 532.736,144.267C532.496,144.025 530.139,141.656 529.437,141.562C529.362,141.552 529.402,141.708 528.5,141.693C527.941,141.684 527.976,141.539 527.405,141.529Z" style="fill:rgb(210,237,249);"/>
                </g>
                <g transform="matrix(2.75,0,0,2.75,0,0)">
                    <path d="M483.381,304.143C479.484,305.445 479.46,305.319 475.595,306.743C475.135,306.912 472.774,307.91 471.499,307.503C470.624,307.224 469.892,305.382 472.465,304.422C473.058,304.201 482.687,301.027 483.576,300.734C484.352,300.478 488.688,298.991 489.47,299.547C489.513,299.578 491.345,301.331 488.48,302.456C488.081,302.613 488.098,302.588 483.381,304.143Z" style="fill:rgb(42,80,111);"/>
                </g>
                <g transform="matrix(2.75,0,0,2.75,0,0)">
                    <path d="M496.859,135.168C496.446,135.699 496.17,136.327 495.757,136.858C495.567,137.102 495.516,136.998 494.416,137.115C491.229,137.454 485.097,140.088 482.687,141.783C480.302,143.459 480.245,143.405 478.47,145.702C478.248,145.609 475.186,145.152 477.621,142.621C480.159,139.981 487.059,135.722 492.439,134.27C494.992,133.581 495.745,134.463 496.859,135.168Z" style="fill:rgb(197,233,250);"/>
                </g>
                <g transform="matrix(2.75,0,0,2.75,0,0)">
                    <path d="M539.439,269.946C543.195,269.991 546.64,270.182 545.364,273.446C544.692,275.166 541.895,278.451 540.63,278.07C540.072,277.902 538.615,275.642 537.483,274.516C536.265,273.306 533.987,272.185 533.659,272.024C536.355,270.451 536.377,270.465 539.439,269.946Z" style="fill:rgb(202,233,248);"/>
                </g>
                <g transform="matrix(2.75,0,0,2.75,0,0)">
                    <path d="M478.639,295.905C480.596,295.245 480.565,295.228 482.541,294.639C487.055,293.294 488.892,292.425 489.787,293.175C491.05,294.233 489.621,295.354 489.475,295.468C489.147,295.725 487.586,296.22 487.418,296.273C478.57,299.077 478.284,299.347 475.412,300.151C475.141,300.227 471.262,301.314 472.349,298.418C472.62,297.696 474.261,297.426 478.639,295.905Z" style="fill:rgb(48,81,109);"/>
                </g>
                <g transform="matrix(2.75,0,0,2.75,0,0)">
                    <path d="M481.328,317.888C479.909,317.173 479.906,317.196 479.795,317.115C478.7,316.317 478.349,316.207 478.931,314.994C478.962,314.929 481.102,314.132 481.648,313.961C488.913,311.681 488.818,311.457 489.461,311.31C493.71,310.337 490.08,317.401 485.445,318.235C482.977,318.679 481.333,317.889 481.328,317.888Z" style="fill:rgb(194,228,243);"/>
                </g>
                <g transform="matrix(2.75,0,0,2.75,0,0)">
                    <path d="M541.452,181.865C541.126,181.767 540.778,181.754 540.452,181.656C536.95,180.603 537.247,176.913 541.532,175.606C544.568,174.68 545.892,176.256 546.452,176.581C546.932,176.858 547.701,176.818 547.944,177.316C548.132,177.704 547.507,178.067 547.374,178.477C547.117,179.272 547.586,179.645 545.72,180.876C543.707,182.206 541.955,181.847 541.452,181.865Z" style="fill:rgb(251,182,162);"/>
                </g>
                <g transform="matrix(2.75,0,0,2.75,0,0)">
                    <path d="M580.502,256.443C581.733,256.38 583.187,256.156 585.459,256.64C587.975,257.175 589.356,258 589.663,258.184C595.628,261.749 594.694,263.36 596.629,263.916C596.942,264.006 597.227,263.475 597.539,263.565C595.077,264.415 595.109,264.527 592.521,264.875C592.228,264.459 592.151,263.916 591.858,263.5C591.68,263.248 591.368,263.123 591.138,262.916C590.961,262.757 589.527,261.149 588.509,260.483C588.254,260.317 587.938,260.257 587.689,260.082C587.307,259.812 587.072,259.321 586.633,259.159C585.961,258.91 585.192,259.088 584.5,258.903C584.127,258.803 583.855,258.473 583.5,258.321C581.73,257.563 581.628,257.985 581.5,257.883C581.045,257.517 580.957,256.808 580.502,256.443Z" style="fill:rgb(251,173,68);"/>
                </g>
                <g transform="matrix(2.75,0,0,2.75,0,0)">
                    <path d="M598.098,273.586C598.647,278.173 598.6,279.934 596.523,284.525C596.208,285.22 596.246,285.344 595.501,285.446C593.436,285.731 595.967,282.581 595.901,277.506C595.818,271.137 592.819,269.789 594.572,268.652C594.691,268.575 595.892,268.377 596.545,269.467C597.206,270.57 597.998,273.248 598.098,273.586Z" style="fill:rgb(64,150,202);"/>
                </g>
                <g transform="matrix(2.75,0,0,2.75,0,0)">
                    <path d="M536.21,222.583C536.275,222.894 536.377,223.197 536.442,223.508C536.539,223.973 537.259,227.427 533.576,228.703C530.384,229.81 528.416,228.374 525.342,225.804C525.908,225.548 525.934,224.6 526.5,224.344C526.78,224.217 527.886,225.927 532.463,225.317C534.874,224.995 534.625,224.438 536.21,222.583Z" style="fill:rgb(191,224,242);"/>
                </g>
                <g transform="matrix(2.75,0,0,2.75,0,0)">
                    <path d="M537.421,212.846C538.155,212.989 538.909,213.016 539.643,213.159C541.915,213.602 541.266,214.938 539.224,216.027C536.972,217.228 536.026,215.92 533.37,214.829C533.017,214.685 531.275,214.312 530.892,212.467C530.741,211.741 530.666,211.56 531.372,211.353C533.016,210.869 532.972,211.566 537.421,212.846Z" style="fill:rgb(236,133,56);"/>
                </g>
                <g transform="matrix(2.75,0,0,2.75,0,0)">
                    <path d="M530.739,246.613C531.063,246.286 531.065,245.721 531.39,245.395C532.281,244.496 532.473,244.761 533.565,245.399C534.618,246.015 537.58,249.335 538.639,252.446C539.634,255.367 539.65,256.651 539.763,257.477C539.306,257.018 538.539,256.959 538.082,256.5C537.975,256.392 538.168,256.27 537.356,254.5C536.497,252.631 536.763,252.561 536.673,252.41C536.429,252 535.877,251.83 535.651,251.41C535.497,251.125 535.777,250.715 535.608,250.439C535.354,250.025 534.874,249.8 534.485,249.509C534.316,249.383 534.085,249.343 533.938,249.192C533.747,248.997 533.697,248.688 533.499,248.501C533.317,248.33 533.022,248.319 532.837,248.151C532.664,247.995 532.64,247.712 532.463,247.56C532.182,247.32 531.824,247.185 531.5,247.007C531.25,246.869 530.989,246.75 530.739,246.613Z" style="fill:rgb(247,186,94);"/>
                </g>
                <g transform="matrix(2.75,0,0,2.75,0,0)">
                    <path d="M471.592,136.143C475.254,137.188 475.296,137.237 475.512,137.488C476.585,138.735 474.492,140.036 474.293,140.161C472.412,141.33 471.179,138.97 468.427,137.593C467.428,137.094 467.493,137.008 466.527,136.474C465.123,135.697 465.456,134.262 467.484,134.702C467.825,134.776 467.803,134.838 471.592,136.143Z" style="fill:rgb(119,193,233);"/>
                </g>
                <g transform="matrix(2.75,0,0,2.75,0,0)">
                    <path d="M570.786,212.445C570.785,212.451 570.981,213.443 570.49,214.494C570.21,215.091 568.79,216.929 567.665,216.231C566.942,215.783 567.266,213.131 565.546,210.479C564.991,209.623 564.488,209.652 564.958,208.742C565.468,207.754 567.232,208.675 567.405,208.766C570.272,210.262 570.444,211.723 570.786,212.445Z" style="fill:rgb(241,248,251);"/>
                </g>
                <g transform="matrix(2.75,0,0,2.75,0,0)">
                    <path d="M499.392,312.485C499.23,313.069 498.026,317.417 496.465,319.461C495.707,320.455 495.7,320.645 494.446,320.576C492.472,320.466 496.138,318.335 497.201,311.434C497.233,311.226 497.552,309.161 497.844,308.883C498.311,308.44 499.375,308.572 499.586,309.459C499.712,309.99 499.423,312.245 499.392,312.485Z" style="fill:rgb(59,146,199);"/>
                </g>
                <g transform="matrix(2.75,0,0,2.75,0,0)">
                    <path d="M522.598,194.174C522.898,194.289 523.215,194.354 523.515,194.468C528.131,196.231 522.576,199.988 518.593,196.403C517.848,195.732 515.896,193.005 520.478,193.7C520.478,193.7 522.429,194.136 522.598,194.174Z" style="fill:rgb(247,140,95);"/>
                </g>
                <g transform="matrix(2.75,0,0,2.75,0,0)">
                    <path d="M460.379,292.459C460.295,292.764 459.375,296.135 459.234,296.247C459.121,296.336 457.866,296.346 457.754,296.259C457.461,296.029 455.821,290.625 459.577,288.736C460.354,288.345 460.488,288.255 461.076,288.901C461.515,289.384 461.56,289.52 460.379,292.459Z" style="fill:rgb(232,132,62);"/>
                </g>
                <g transform="matrix(2.75,0,0,2.75,0,0)">
                    <path d="M525.434,191.227C523.68,191.282 523.637,191.533 522.742,191.084C522.468,190.947 520.469,189.837 524.585,187.73C526.417,186.792 529.456,188.869 526.676,190.755C526.589,190.815 526.584,190.79 525.434,191.227Z" style="fill:rgb(235,243,247);"/>
                </g>
                <g transform="matrix(2.75,0,0,2.75,0,0)">
                    <path d="M502.103,173.457C502.35,173.222 502.293,172.769 502.54,172.535C503.417,171.703 505.683,172.894 505.208,174.342C504.888,175.316 502.81,175.528 502.38,174.583C502.22,174.231 502.263,173.808 502.103,173.457Z" style="fill:rgb(238,246,247);"/>
                </g>
                <g transform="matrix(2.75,0,0,2.75,0,0)">
                    <path d="M536.621,167.565C536.436,167.698 536.412,167.991 536.227,168.125C536.073,168.236 534.741,169.199 533.971,167.38C533.549,166.383 534.627,165.874 534.754,165.815C535.603,165.415 536.273,166.44 536.35,166.557C536.54,166.848 536.43,167.274 536.621,167.565Z" style="fill:rgb(237,247,251);"/>
                </g>
            </g>
            <g transform="matrix(2.270634,0,0,2.270634,-2277.956393,-1923.729425)">
                <g transform="matrix(2.75,0,0,2.75,0,0)">
                    <path d="M524.501,448.07C519.463,447.943 519.477,447.944 519.463,447.943C516.678,447.843 510.919,446.664 508.566,445.376C506.117,444.035 504.87,443.233 503.029,440.88C498.049,434.514 498.54,430.346 498.497,388.5C498.485,376.899 497.817,372.481 504.533,371.802C513.974,370.846 513.841,376.363 514.003,378.517C514.035,378.942 514.018,415.303 514.016,418.501C514.014,423.619 512.399,432.319 523.495,432.643C548.764,433.382 560.394,427.773 568.592,423.676C570.933,422.506 571.694,422.951 571.616,421.476C571.546,420.165 570.579,421.244 564.445,418.622C548.595,411.847 543.369,410.494 539.568,417.539C539.318,418.002 537.89,420.649 533.536,420.146C523.716,419.01 526.458,409.274 529.919,404.821C534.805,398.535 546.207,396.076 558.397,399.84C572.447,404.177 574.672,408.029 585.494,409.549C592.057,410.471 595.247,408.794 595.221,416.499C595.197,423.887 594.679,424.609 590.514,425.573C590.196,425.646 589.874,425.697 589.557,425.774C583.123,427.329 588.938,430.696 589.293,430.902C591.928,432.427 603.727,434.254 609.555,430.573C615.753,426.658 609.331,408.553 609.32,405.498C609.317,404.825 609.301,400.612 615.561,399.851C624.679,398.743 624.639,404.691 626.601,416.484C627.659,422.846 627.096,433.724 623.837,438.717C621.602,442.144 621.144,442.627 617.663,444.776C609.553,449.781 591.778,448.245 586.6,446.225C580.993,444.038 579.019,439.935 578.687,439.388C576.371,435.573 577.71,431.302 574.285,434.155C573.034,435.198 567.022,438.904 566.38,439.3C559.812,443.349 549.696,445.998 548.441,446.239C537.87,448.271 531.581,448.045 524.501,448.07Z" style="fill:rgb(92,183,227);"/>
                </g>
                <g transform="matrix(2.75,0,0,2.75,0,0)">
                    <path d="M448.062,440.462C447.321,444.786 446.802,450.347 438.615,456.665C428.654,464.352 414.679,465.098 412.482,465.215C406.825,465.517 381.284,467.403 371.188,448.663C364.366,435.998 369.201,417.863 375.339,415.158C379.166,413.472 387.188,414.805 385.78,420.571C385.513,421.665 376.904,440.565 393.449,447.611C404.091,452.143 422.476,450.556 430.459,444.442C434.876,441.059 433.632,437.392 428.565,436.218C426.13,435.654 424.063,435.512 419.523,434.407C415.203,433.357 414.312,434.039 407.448,430.6C405.204,429.475 402.31,426.569 401.412,424.541C401.209,424.084 397.442,417.648 401.321,407.434C401.405,407.213 407.712,389.801 429.48,390.884C442.517,391.532 449.532,401.601 443.956,407.906C442.173,409.923 438.314,411.638 433.733,408.181C431.261,406.316 427.854,404.229 421.464,406.397C415.156,408.538 410.051,417.453 420.424,419.801C434.01,422.876 441.383,422.832 445.959,430.239C446.15,430.548 446.972,431.879 447.633,434.464C448.16,436.529 448.074,439.981 448.062,440.462Z" style="fill:rgb(92,183,227);"/>
                </g>
                <g transform="matrix(2.75,0,0,2.75,0,0)">
                    <path d="M448.124,462.531C448.134,462.355 448.013,461.061 448.488,459.497C450.368,453.304 455.66,455.587 456.449,455.744C464.617,457.367 468.983,450.605 470.087,448.28C475.608,436.653 471.229,420.993 470.815,418.44C470.22,414.762 468.945,410.765 468.869,410.417C468.683,409.556 467.23,402.834 475.524,401.658C481.046,400.874 482.836,403.901 483.806,407.424C485.651,414.119 486.492,420.345 486.646,421.482C487.893,430.708 487.372,441.345 486.274,446.453C482.584,463.614 472.122,470.602 462.478,471.119C448.727,471.857 448.456,464.483 448.124,462.531Z" style="fill:rgb(92,182,227);"/>
                </g>
                <g transform="matrix(2.75,0,0,2.75,0,0)">
                    <path d="M643.389,447.858C641.764,447.167 639.03,446.434 638.799,441.489C638.64,438.077 638.73,395.501 638.738,391.502C638.772,375.803 638.393,374.82 641.627,372.714C643.41,371.554 651.796,370.134 653.776,375.385C654.361,376.938 654.301,376.994 654.317,432.5C654.32,441.046 654.97,445.324 650.449,447.396C646.933,449.008 643.8,447.932 643.389,447.858Z" style="fill:rgb(94,183,227);"/>
                </g>
                <g transform="matrix(2.75,0,0,2.75,0,0)">
                    <path d="M647.506,452.978C648.346,453.081 649.47,452.84 652.661,454.099C657.34,455.944 654.684,460.111 653.548,460.595C651.622,461.415 651.589,460.761 649.591,460.187C643.213,458.354 642.091,463.961 645.394,465.685C649.136,467.638 652.608,466.496 653.476,466.351C657.564,465.665 658.092,469.409 657.183,471.339C656.089,473.663 652.462,473.521 648.522,473.791C639.976,474.378 639.504,475.15 636.484,475.199C632.419,475.264 632.35,469.835 635.577,468.665C638.332,467.665 637.142,466.531 636.704,465.43C635.362,462.057 636.454,456.512 641.457,454.4C644.827,452.977 647.439,452.987 647.506,452.978Z" style="fill:rgb(91,180,225);"/>
                </g>
                <g transform="matrix(2.75,0,0,2.75,0,0)">
                    <path d="M620.582,378.079C621.341,378.169 625.287,378.346 625.559,379.476C626.231,382.266 620.323,382.957 621.33,387.531C622.109,391.073 622.196,391.082 622.076,391.413C621.486,393.03 619.834,392.254 619.65,392.167C617.28,391.053 615.949,388.436 610.651,391.779C610.409,391.932 606.695,394.277 607.824,389.572C608.807,385.476 608.9,385.001 605.746,382.227C603.456,380.214 603.433,378.612 606.469,378.286C610.406,377.863 611.13,378.229 612.605,374.545C612.956,373.67 613.586,371.895 614.564,371.772C616.127,371.576 616.739,373.882 616.925,374.321C618.433,377.877 619.029,377.443 620.582,378.079Z" style="fill:rgb(232,167,41);"/>
                </g>
                <g transform="matrix(2.75,0,0,2.75,0,0)">
                    <path d="M555.645,469.307C554.312,468.151 553.519,467.424 552.792,465.404C552.081,463.431 552.355,461.795 552.407,461.484C553.835,452.949 564.374,452.508 567.657,458.405C572.087,466.361 563.226,474.295 555.645,469.307Z" style="fill:rgb(251,128,29);"/>
                </g>
                <g transform="matrix(2.75,0,0,2.75,0,0)">
                    <path d="M483.021,383.606C483.218,385.951 483.658,387.035 481.485,390.489C477.82,396.314 465.781,394.147 466.742,384.529C467.348,378.463 474.654,375.017 479.849,379.02C482.077,380.737 482.024,381.22 483.021,383.606Z" style="fill:rgb(249,130,32);"/>
                </g>
                <g transform="matrix(2.75,0,0,2.75,0,0)">
                    <path d="M420.432,485.637C419.246,485.405 419.05,484.604 416.358,486.248C414.885,487.148 414.039,487.466 413.265,486.683C411.886,485.289 415.435,483.015 412.35,479.64C412.024,479.283 409.767,477.729 410.469,476.482C411.434,474.768 415.394,477.627 417.31,472.408C418.123,470.195 419.228,469.526 420.282,471.629C420.546,472.154 420.687,472.736 420.95,473.261C422.627,476.605 425.824,475.476 426.78,476.09C428.174,476.985 427.862,477.495 426.623,478.608C423.672,481.259 424.117,481.933 424.629,484.482C425.598,489.304 421.071,485.997 420.432,485.637Z" style="fill:rgb(231,165,39);"/>
                </g>
                <g transform="matrix(2.75,0,0,2.75,0,0)">
                    <path d="M402.378,483.523C402.39,483.574 403.058,485.654 402.683,486.622C401.955,488.502 398.702,484.865 396.45,485.274C395.911,485.372 392.871,487.146 392.477,487.127C392.31,487.119 391.182,487.067 391.137,485.532C391.072,483.272 393.37,482.243 389.356,478.63C388.094,477.495 387.75,476.963 389.2,476.057C390.208,475.428 393.5,476.48 395.083,473.296C395.348,472.765 395.483,472.174 395.748,471.643C395.97,471.199 397.416,469.567 398.341,471.6C398.95,472.94 399.267,475.29 402.476,475.664C404.47,475.896 404.484,475.821 404.833,476.032C406.626,477.117 405.651,477.682 404.11,479.107C401.617,481.413 402.36,481.955 402.378,483.523Z" style="fill:rgb(230,165,40);"/>
                </g>
            </g>
            <g transform="matrix(5.874566,0,0,5.874566,-5028.101265,-4621.595922)">
                <g transform="matrix(12,0,0,12,1090.986033,976.866058)">
                </g>
                <text x="1077.054px" y="976.866px" style="font-family:'BigCaslon-Medium', 'Big Caslon';font-weight:500;font-size:12px;">By</text>
            </g>
            <g transform="matrix(1.417618,0,0,1.417618,1098.693983,1100.694421)">
                <path d="M193.44,38.56L193.44,65.55L204.15,65.55L204.15,36.79C204.15,36.01 204.46,35.25 205.01,34.7L205.85,33.86C206.4,33.31 207.16,32.99 207.94,32.99L220.74,32.99L220.74,21.85L210.15,21.85L193.44,38.56Z" style="fill:rgb(33,33,33);fill-rule:nonzero;"/>
                <path d="M483.15,21.85L461.73,21.85L445.02,38.56L445.02,65.55L455.73,65.55L455.73,36.79C455.73,36 456.04,35.25 456.6,34.7L457.44,33.86C458,33.3 458.75,32.99 459.53,32.99L485.35,32.99C486.13,32.99 486.89,33.3 487.44,33.86L487.84,34.26C488.4,34.82 488.71,35.58 488.71,36.37L488.57,65.55L499.99,65.55L499.99,38.7L483.14,21.85L483.15,21.85Z" style="fill:rgb(33,33,33);fill-rule:nonzero;"/>
                <path d="M397.47,21.85L380.76,38.56L380.76,65.55L391.47,65.55L391.47,57.54L424.35,57.54L424.31,65.55L435.73,65.55L435.73,38.7L418.88,21.85L397.46,21.85L397.47,21.85ZM423.18,33.86L423.58,34.26C424.14,34.82 424.45,35.58 424.45,36.37L424.4,47.26L391.47,47.26L391.47,36.79C391.47,36 391.78,35.25 392.34,34.7L393.18,33.86C393.74,33.3 394.49,32.99 395.27,32.99L421.09,32.99C421.87,32.99 422.63,33.3 423.18,33.86Z" style="fill:rgb(33,33,33);fill-rule:nonzero;"/>
                <path d="M274.22,50.61C274.22,51.39 273.91,52.15 273.35,52.7L272.51,53.54C271.95,54.1 271.2,54.41 270.42,54.41L244.6,54.41C243.81,54.41 243.06,54.1 242.51,53.54L242.11,53.14C241.55,52.58 241.24,51.82 241.24,51.03L241.38,21.85L229.96,21.85L229.96,48.7L246.81,65.55L268.23,65.55L284.94,48.84L284.94,21.85L274.23,21.85L274.23,50.61L274.22,50.61Z" style="fill:rgb(33,33,33);fill-rule:nonzero;"/>
                <path d="M343.79,21.85L332.95,33.26L321.23,21.85L310.92,21.85L294.14,38.32L294.36,65.55L305.21,65.55L305.21,36.51C305.21,35.72 305.53,34.96 306.09,34.39L306.91,33.57C307.47,33.01 308.23,32.69 309.03,32.69L323.97,32.69C324.76,32.69 325.52,33.01 326.09,33.57L326.76,34.24C327.32,34.8 327.64,35.56 327.64,36.36L327.64,65.54L338.35,65.54L338.35,36.78C338.35,35.99 338.67,35.23 339.23,34.66L340.18,33.71C340.74,33.15 341.5,32.83 342.3,32.83L356.54,32.83C357.33,32.83 358.09,33.15 358.66,33.71L359.55,34.6C360.11,35.16 360.43,35.92 360.43,36.72L360.43,65.54L371.49,65.54L371.49,38.69L355.21,21.84L343.81,21.84L343.79,21.85Z" style="fill:rgb(33,33,33);fill-rule:nonzero;"/>
            </g>
        </g>
    </g>
</svg>
