<?xml version="1.0" encoding="UTF-8" standalone="no"?><!DOCTYPE svg PUBLIC "-//W3C//DTD SVG 1.1//EN" "http://www.w3.org/Graphics/SVG/1.1/DTD/svg11.dtd"><svg width="100%" height="100%" viewBox="0 0 8839 8839" version="1.1" xmlns="http://www.w3.org/2000/svg" xmlns:xlink="http://www.w3.org/1999/xlink" xml:space="preserve" xmlns:serif="http://www.serif.com/" style="fill-rule:evenodd;clip-rule:evenodd;stroke-linejoin:round;stroke-miterlimit:2;"><g><rect x="0" y="0" width="8838.796" height="8838.792" style="fill:#473055;fill-rule:nonzero;"/><path d="M1037.508,640.838c-5.117,-1.505 -12.462,-3.288 -21.233,-4.992c-14.333,-2.721 -32.562,-4.63 -51.521,-5.238c-0.654,-18.962 -2.563,-37.191 -5.279,-51.525c-1.667,-8.808 -3.454,-16.117 -4.954,-21.233c-1.421,-5.117 -2.6,-8.038 -2.6,-8.038c0,0 -1.096,2.921 -2.596,8.038c-1.421,5.116 -3.25,12.425 -4.875,21.233c-2.758,14.334 -4.708,32.563 -5.317,51.525c-18.921,0.646 -37.233,2.554 -51.562,5.275c-8.771,1.667 -16.079,3.45 -21.196,4.955c-5.075,1.462 -8.038,2.6 -8.038,2.6c0,0 2.962,1.137 8.038,2.554c5.117,1.505 12.425,3.292 21.196,4.955c14.329,2.721 32.642,4.671 51.521,5.279c0.608,18.958 2.558,37.229 5.279,51.562c1.667,8.771 3.533,16.079 4.954,21.191c1.462,5.117 2.596,8.042 2.596,8.042c0,0 1.179,-2.925 2.6,-8.042c1.5,-5.112 3.288,-12.421 4.992,-21.191c2.721,-14.334 4.629,-32.563 5.242,-51.521c18.958,-0.608 37.188,-2.558 51.521,-5.28c8.771,-1.662 16.117,-3.45 21.233,-4.954c5.117,-1.458 8.038,-2.596 8.038,-2.596c0,0 -2.921,-1.138 -8.038,-2.6Z" style="fill:#fff;fill-rule:nonzero;"/><path d="M2599.858,828.046c-5.117,-1.5 -12.467,-3.287 -21.196,-4.95c-14.329,-2.762 -32.563,-4.671 -51.562,-5.279c-0.608,-18.963 -2.517,-37.192 -5.275,-51.525c-1.667,-8.767 -3.454,-16.075 -4.917,-21.192c-1.463,-5.117 -2.637,-8.079 -2.637,-8.079c0,0 -1.096,2.962 -2.558,8.079c-1.463,5.117 -3.288,12.425 -4.913,21.192c-2.758,14.333 -4.667,32.562 -5.321,51.525c-18.917,0.65 -37.187,2.558 -51.521,5.317c-8.767,1.667 -16.075,3.45 -21.233,4.954c-5.117,1.421 -8.038,2.558 -8.038,2.558c0,0 2.921,1.137 8.038,2.596c5.158,1.466 12.467,3.291 21.233,4.954c14.333,2.721 32.563,4.629 51.521,5.279c0.612,18.959 2.521,37.192 5.279,51.521c1.625,8.771 3.454,16.079 4.954,21.196c1.463,5.117 2.558,8.079 2.558,8.079c0,0 1.175,-2.962 2.637,-8.079c1.504,-5.117 3.25,-12.425 4.996,-21.196c2.679,-14.329 4.629,-32.562 5.196,-51.521c19,-0.608 37.233,-2.517 51.562,-5.237c8.729,-1.704 16.079,-3.492 21.196,-4.996c5.117,-1.459 8.038,-2.596 8.038,-2.596c0,0 -2.921,-1.137 -8.038,-2.6Z" style="fill:#fff;fill-rule:nonzero;"/><path d="M1583.667,3774.466c-5.154,-1.458 -12.504,-3.287 -21.275,-4.954c-14.333,-2.721 -32.563,-4.667 -51.483,-5.275c-0.688,-18.921 -2.554,-37.192 -5.317,-51.521c-1.625,-8.771 -3.45,-16.079 -4.954,-21.196c-1.462,-5.117 -2.596,-8.041 -2.596,-8.041c0,0 -1.1,2.925 -2.558,8.041c-1.504,5.117 -3.292,12.425 -4.954,21.196c-2.721,14.329 -4.671,32.6 -5.279,51.558c-18.958,0.608 -37.229,2.558 -51.562,5.279c-8.771,1.667 -16.079,3.454 -21.192,4.954c-5.117,1.421 -8.042,2.558 -8.042,2.558c0,0 2.925,1.138 8.042,2.6c5.112,1.5 12.421,3.287 21.192,4.95c14.333,2.721 32.563,4.629 51.525,5.279c0.608,18.963 2.517,37.188 5.275,51.521c1.667,8.812 3.45,16.079 4.954,21.238c1.462,5.113 2.6,8.037 2.6,8.037c0,0 1.133,-2.925 2.637,-8.037c1.463,-5.158 3.288,-12.425 4.954,-21.238c2.721,-14.333 4.625,-32.558 5.275,-51.521c18.921,-0.608 37.15,-2.517 51.483,-5.237c8.771,-1.704 16.121,-3.492 21.275,-4.992c5.075,-1.462 7.958,-2.6 7.958,-2.6c0,0 -2.883,-1.137 -7.958,-2.6Z" style="fill:#fff;fill-rule:nonzero;"/><path d="M889.925,2324.625c-5.158,-1.505 -12.467,-3.292 -21.233,-4.996c-14.333,-2.721 -32.563,-4.629 -51.521,-5.237c-0.65,-18.959 -2.6,-37.192 -5.238,-51.521c-1.708,-8.812 -3.533,-16.121 -4.996,-21.233c-1.462,-5.117 -2.596,-8.042 -2.596,-8.042c0,0 -1.137,2.925 -2.6,8.042c-1.462,5.112 -3.25,12.421 -4.913,21.233c-2.762,14.329 -4.671,32.562 -5.279,51.521c-19,0.65 -37.271,2.558 -51.521,5.279c-8.812,1.663 -16.121,3.45 -21.238,4.955c-5.154,1.458 -8.075,2.596 -8.075,2.596c0,0 2.921,1.138 8.075,2.558c5.117,1.504 12.425,3.288 21.238,4.954c14.25,2.721 32.521,4.667 51.479,5.275c0.613,18.962 2.521,37.233 5.279,51.567c1.667,8.767 3.45,16.075 4.913,21.191c1.504,5.117 2.642,8.038 2.642,8.038c0,0 1.133,-2.921 2.596,-8.038c1.542,-5.117 3.288,-12.425 5.037,-21.191c2.679,-14.334 4.587,-32.563 5.196,-51.525c18.958,-0.608 37.187,-2.558 51.521,-5.275c8.767,-1.666 16.075,-3.454 21.233,-4.954c5.158,-1.462 7.996,-2.6 7.996,-2.6c0,0 -2.837,-1.137 -7.996,-2.596Z" style="fill:#fff;fill-rule:nonzero;"/><path d="M1271.367,2605.254c-5.117,-1.504 -12.462,-3.287 -21.233,-4.992c-14.333,-2.725 -32.562,-4.629 -51.521,-5.242c-0.65,-18.958 -2.558,-37.187 -5.279,-51.521c-1.667,-8.808 -3.454,-16.116 -4.954,-21.233c-1.421,-5.117 -2.596,-8.037 -2.596,-8.037c0,0 -1.1,2.921 -2.6,8.037c-1.421,5.117 -3.25,12.425 -4.871,21.233c-2.762,14.334 -4.712,32.563 -5.321,51.521c-18.921,0.65 -37.229,2.558 -51.562,5.28c-8.771,1.667 -16.079,3.45 -21.196,4.954c-5.071,1.462 -8.042,2.6 -8.042,2.6c0,0 2.971,1.133 8.042,2.554c5.117,1.504 12.425,3.287 21.196,4.954c14.333,2.721 32.642,4.671 51.521,5.279c0.613,18.959 2.558,37.229 5.279,51.562c1.667,8.771 3.533,16.075 4.954,21.192c1.463,5.116 2.6,8.083 2.6,8.083c0,0 1.175,-2.967 2.596,-8.083c1.5,-5.117 3.288,-12.421 4.996,-21.192c2.721,-14.333 4.629,-32.562 5.237,-51.521c18.958,-0.608 37.188,-2.558 51.521,-5.279c8.771,-1.667 16.117,-3.45 21.233,-4.955c5.117,-1.462 8.042,-2.596 8.042,-2.596c0,0 -2.925,-1.138 -8.042,-2.6Z" style="fill:#fff;fill-rule:nonzero;"/><path d="M4048.808,453.629c-5.117,-1.5 -12.425,-3.287 -21.192,-4.996c-14.333,-2.721 -32.563,-4.629 -51.525,-5.237c-0.65,-18.959 -2.558,-37.188 -5.279,-51.558c-1.704,-8.771 -3.488,-16.079 -4.95,-21.196c-1.462,-5.117 -2.6,-8.037 -2.6,-8.037c0,0 -1.138,2.921 -2.596,8.037c-1.467,5.117 -3.25,12.425 -4.917,21.196c-2.758,14.371 -4.708,32.6 -5.275,51.558c-18.962,0.608 -37.271,2.558 -51.562,5.279c-8.812,1.667 -16.121,3.454 -21.196,4.954c-5.154,1.463 -8.079,2.596 -8.079,2.596c0,0 2.925,1.1 8.079,2.562c5.075,1.5 12.383,3.287 21.196,4.95c14.292,2.721 32.563,4.671 51.521,5.279c0.567,18.963 2.517,37.229 5.279,51.562c1.662,8.771 3.45,16.079 4.954,21.196c1.458,5.112 2.596,8.037 2.596,8.037c0,0 1.138,-2.925 2.6,-8.037c1.463,-5.117 3.288,-12.425 4.95,-21.196c2.721,-14.333 4.671,-32.6 5.279,-51.521c18.963,-0.612 37.192,-2.558 51.525,-5.279c8.767,-1.667 16.075,-3.492 21.192,-4.954c5.154,-1.463 8.037,-2.6 8.037,-2.6c0,0 -2.883,-1.175 -8.037,-2.596Z" style="fill:#fff;fill-rule:nonzero;"/><path d="M5423.212,453.629c-5.125,-1.5 -12.417,-3.287 -21.208,-4.996c-14.291,-2.721 -32.541,-4.629 -51.458,-5.237c-0.709,-18.959 -2.583,-37.188 -5.375,-51.558c-1.667,-8.771 -3.458,-16.079 -4.916,-21.196c-1.459,-5.117 -2.583,-8.037 -2.583,-8.037c0,0 -1.125,2.921 -2.583,8.037c-1.459,5.117 -3.25,12.425 -4.917,21.196c-2.75,14.371 -4.708,32.6 -5.292,51.558c-18.958,0.608 -37.208,2.558 -51.542,5.279c-8.792,1.667 -16.125,3.454 -21.208,4.954c-5.167,1.463 -8.084,2.596 -8.084,2.596c0,0 2.917,1.1 8.084,2.562c5.083,1.5 12.417,3.287 21.208,4.95c14.334,2.721 32.542,4.671 51.5,5.279c0.625,18.963 2.542,37.229 5.292,51.562c1.667,8.771 3.458,16.079 4.959,21.196c1.458,5.112 2.583,8.037 2.583,8.037c0,0 1.125,-2.925 2.583,-8.037c1.458,-5.117 3.333,-12.425 4.958,-21.196c2.792,-14.333 4.667,-32.6 5.333,-51.521c18.917,-0.612 37.167,-2.558 51.458,-5.279c8.792,-1.667 16.083,-3.492 21.208,-4.954c5.125,-1.463 8.042,-2.6 8.042,-2.6c0,0 -2.916,-1.175 -8.042,-2.596Z" style="fill:#fff;fill-rule:nonzero;"/><path d="M3861.642,2995.341c-5.158,-1.5 -12.467,-3.287 -21.237,-4.992c-14.292,-2.721 -32.558,-4.629 -51.521,-5.237c-0.687,-18.963 -2.558,-37.192 -5.279,-51.521c-1.662,-8.812 -3.491,-16.121 -4.95,-21.238c-1.504,-5.117 -2.6,-8.037 -2.6,-8.037c0,0 -1.138,2.921 -2.6,8.037c-1.5,5.117 -3.288,12.425 -4.913,21.238c-2.758,14.329 -4.667,32.558 -5.275,51.521c-18.962,0.65 -37.233,2.558 -51.604,5.275c-8.729,1.667 -16.037,3.454 -21.154,4.954c-5.158,1.463 -8.079,2.6 -8.079,2.6c0,0 2.921,1.137 8.079,2.558c5.117,1.5 12.425,3.287 21.154,4.992c14.371,2.684 32.6,4.629 51.521,5.237c0.65,18.963 2.558,37.233 5.279,51.562c1.704,8.771 3.492,16.079 4.992,21.196c1.463,5.113 2.6,8.037 2.6,8.037c0,0 1.096,-2.925 2.6,-8.037c1.542,-5.117 3.329,-12.425 5.033,-21.196c2.679,-14.329 4.546,-32.558 5.196,-51.521c18.963,-0.608 37.229,-2.554 51.521,-5.279c8.771,-1.663 16.079,-3.45 21.237,-4.95c5.113,-1.463 7.996,-2.6 7.996,-2.6c0,0 -2.883,-1.137 -7.996,-2.6Z" style="fill:#fff;fill-rule:nonzero;"/><path d="M5658.421,3680.883c-5.125,-1.5 -12.458,-3.287 -21.209,-4.992c-14.333,-2.725 -32.583,-4.633 -51.542,-5.242c-0.625,-18.958 -2.542,-37.187 -5.25,-51.521c-1.708,-8.808 -3.5,-16.116 -4.959,-21.191c-1.458,-5.158 -2.625,-8.079 -2.625,-8.079c0,0 -1.083,2.921 -2.583,8.079c-1.458,5.075 -3.208,12.384 -4.875,21.191c-2.791,14.334 -4.708,32.563 -5.291,51.521c-18.959,0.65 -37.209,2.558 -51.583,5.28c-8.792,1.667 -16.042,3.454 -21.167,4.954c-5.125,1.462 -8.083,2.596 -8.083,2.596c0,0 2.958,1.137 8.083,2.562c5.125,1.5 12.375,3.287 21.167,4.954c14.375,2.717 32.625,4.667 51.5,5.275c0.666,18.963 2.542,37.229 5.375,51.562c1.583,8.771 3.417,16.079 4.875,21.196c1.458,5.117 2.583,8.037 2.583,8.037c0,0 1.167,-2.921 2.625,-8.037c1.458,-5.117 3.25,-12.425 4.959,-21.196c2.75,-14.333 4.667,-32.562 5.25,-51.521c18.959,-0.608 37.209,-2.558 51.542,-5.279c8.75,-1.667 16.084,-3.45 21.209,-4.955c5.167,-1.462 8.041,-2.6 8.041,-2.6c0,0 -2.875,-1.134 -8.041,-2.596Z" style="fill:#fff;fill-rule:nonzero;"/><path d="M6999.129,2194.784c-5.167,-1.505 -12.417,-3.288 -21.25,-4.996c-14.333,-2.721 -32.541,-4.629 -51.5,-5.237c-0.666,-18.959 -2.583,-37.192 -5.292,-51.562c-1.666,-8.767 -3.458,-16.075 -4.958,-21.192c-1.458,-5.116 -2.583,-8.041 -2.583,-8.041c0,0 -1.083,2.925 -2.542,8.041c-1.542,5.117 -3.292,12.425 -4.959,21.192c-2.75,14.371 -4.667,32.604 -5.292,51.562c-18.958,0.608 -37.25,2.558 -51.583,5.279c-8.75,1.667 -16.042,3.45 -21.167,4.955c-5.167,1.462 -8.041,2.596 -8.041,2.596c0,0 2.875,1.096 8.041,2.558c5.125,1.504 12.417,3.288 21.167,4.954c14.333,2.721 32.583,4.667 51.542,5.28c0.625,18.958 2.5,37.229 5.291,51.562c1.667,8.771 3.417,16.075 4.959,21.191c1.458,5.117 2.583,8.037 2.583,8.037c0,0 1.125,-2.921 2.625,-8.037c1.458,-5.117 3.25,-12.421 4.958,-21.191c2.708,-14.334 4.625,-32.604 5.25,-51.521c18.959,-0.613 37.167,-2.563 51.5,-5.28c8.833,-1.667 16.084,-3.492 21.25,-4.954c5.125,-1.462 8,-2.6 8,-2.6c0,0 -2.875,-1.175 -8,-2.596Z" style="fill:#fff;fill-rule:nonzero;"/><path d="M6543.546,547.212c-5.083,-1.458 -12.417,-3.287 -21.208,-4.954c-14.333,-2.721 -32.541,-4.667 -51.5,-5.275c-0.667,-18.921 -2.583,-37.192 -5.292,-51.525c-1.667,-8.767 -3.458,-16.079 -4.958,-21.192c-1.459,-5.116 -2.583,-8.041 -2.583,-8.041c0,0 -1.083,2.925 -2.542,8.041c-1.5,5.113 -3.291,12.425 -4.916,21.192c-2.792,14.333 -4.708,32.604 -5.333,51.562c-18.917,0.608 -37.25,2.558 -51.542,5.279c-8.792,1.663 -16.083,3.454 -21.208,4.954c-5.083,1.421 -8.084,2.558 -8.084,2.558c0,0 3,1.138 8.084,2.596c5.125,1.504 12.417,3.292 21.208,4.954c14.292,2.721 32.625,4.629 51.5,5.279c0.625,18.963 2.542,37.188 5.292,51.521c1.667,8.812 3.5,16.079 4.959,21.237c1.458,5.113 2.583,8.038 2.583,8.038c0,0 1.125,-2.925 2.625,-8.038c1.458,-5.158 3.25,-12.425 4.958,-21.237c2.708,-14.334 4.625,-32.559 5.25,-51.521c18.959,-0.608 37.167,-2.517 51.5,-5.237c8.792,-1.704 16.125,-3.492 21.208,-4.996c5.167,-1.458 8.042,-2.596 8.042,-2.596c0,0 -2.875,-1.137 -8.042,-2.6Z" style="fill:#fff;fill-rule:nonzero;"/><path d="M8092.254,3182.554c-5.083,-1.504 -12.417,-3.287 -21.167,-4.954c-14.375,-2.763 -32.583,-4.671 -51.542,-5.28c-0.666,-18.958 -2.583,-37.191 -5.291,-51.521c-1.708,-8.771 -3.459,-16.079 -4.959,-21.195c-1.417,-5.117 -2.583,-8.08 -2.583,-8.08c0,0 -1.125,2.963 -2.542,8.08c-1.5,5.116 -3.292,12.425 -4.917,21.195c-2.791,14.33 -4.708,32.563 -5.333,51.521c-18.959,0.65 -37.25,2.558 -51.583,5.317c-8.75,1.667 -16.042,3.455 -21.167,4.955c-5.083,1.421 -8.041,2.558 -8.041,2.558c0,0 2.958,1.137 8.041,2.6c5.125,1.463 12.417,3.288 21.167,4.955c14.333,2.717 32.625,4.625 51.542,5.279c0.625,18.959 2.542,37.188 5.333,51.521c1.625,8.767 3.459,16.075 4.917,21.192c1.458,5.116 2.583,8.079 2.583,8.079c0,0 1.167,-2.963 2.625,-8.079c1.458,-5.117 3.25,-12.425 4.958,-21.192c2.708,-14.333 4.625,-32.562 5.25,-51.521c18.959,-0.612 37.167,-2.521 51.542,-5.242c8.75,-1.704 16.084,-3.491 21.167,-4.992c5.167,-1.462 8.083,-2.6 8.083,-2.6c0,0 -2.916,-1.138 -8.083,-2.596Z" style="fill:#fff;fill-rule:nonzero;"/><path d="M6933.963,3961.717c-5.125,-1.504 -12.458,-3.288 -21.25,-4.992c-14.334,-2.721 -32.542,-4.63 -51.5,-5.238c-0.666,-18.962 -2.583,-37.191 -5.291,-51.567c-1.667,-8.767 -3.459,-16.075 -4.959,-21.191c-1.458,-5.117 -2.583,-8.038 -2.583,-8.038c0,0 -1.083,2.921 -2.542,8.038c-1.5,5.117 -3.292,12.425 -4.959,21.191c-2.791,14.375 -4.667,32.604 -5.291,51.567c-18.959,0.608 -37.25,2.558 -51.542,5.275c-8.792,1.666 -16.084,3.45 -21.209,4.954c-5.167,1.462 -8.041,2.6 -8.041,2.6c0,0 2.875,1.096 8.041,2.554c5.125,1.505 12.417,3.292 21.209,4.955c14.291,2.721 32.541,4.671 51.5,5.279c0.625,18.958 2.5,37.229 5.292,51.562c1.666,8.771 3.5,16.079 4.958,21.196c1.458,5.112 2.583,8.037 2.583,8.037c0,0 1.125,-2.925 2.625,-8.037c1.458,-5.117 3.25,-12.425 4.958,-21.196c2.708,-14.334 4.625,-32.604 5.25,-51.521c18.959,-0.608 37.167,-2.558 51.5,-5.279c8.792,-1.663 16.125,-3.492 21.25,-4.955c5.125,-1.458 8.041,-2.596 8.041,-2.596c0,0 -2.916,-1.18 -8.041,-2.6Z" style="fill:#fff;fill-rule:nonzero;"/><path d="M8524.712,4386.5c-5.125,-1.458 -12.458,-3.25 -21.25,-4.917c-14.291,-2.75 -32.583,-4.667 -51.5,-5.292c-0.583,-18.916 -2.542,-37.208 -5.25,-51.542c-1.708,-8.75 -3.5,-16.042 -4.916,-21.166c-1.5,-5.125 -2.667,-8.042 -2.667,-8.042c0,0 -1.125,2.917 -2.542,8.042c-1.5,5.125 -3.292,12.417 -4.959,21.166c-2.75,14.334 -4.708,32.625 -5.292,51.583c-18.958,0.625 -37.208,2.542 -51.542,5.292c-8.792,1.667 -16.125,3.417 -21.208,4.917c-5.125,1.458 -8.083,2.583 -8.083,2.583c0,0 2.958,1.125 8.083,2.583c5.083,1.5 12.417,3.292 21.208,4.958c14.334,2.708 32.542,4.625 51.5,5.292c0.625,18.959 2.542,37.167 5.292,51.5c1.667,8.833 3.459,16.083 5,21.25c1.375,5.125 2.542,8.042 2.542,8.042c0,0 1.167,-2.916 2.667,-8.042c1.417,-5.167 3.25,-12.417 4.916,-21.25c2.75,-14.333 4.667,-32.541 5.25,-51.5c18.917,-0.625 37.209,-2.542 51.5,-5.25c8.792,-1.708 16.125,-3.5 21.25,-5c5.125,-1.458 8.042,-2.583 8.042,-2.583c0,0 -2.916,-1.125 -8.042,-2.625Z" style="fill:#fff;fill-rule:nonzero;"/><path d="M8185.879,594.391c-5.125,-1.504 -12.417,-3.291 -21.208,-4.996c-14.334,-2.721 -32.542,-4.629 -51.5,-5.237c-0.667,-18.959 -2.583,-37.188 -5.333,-51.521c-1.667,-8.808 -3.458,-16.121 -4.917,-21.234c-1.458,-5.116 -2.583,-8.041 -2.583,-8.041c0,0 -1.125,2.925 -2.583,8.041c-1.5,5.113 -3.25,12.425 -4.916,21.234c-2.792,14.333 -4.708,32.562 -5.25,51.521c-19,0.65 -37.292,2.558 -51.625,5.279c-8.75,1.663 -16.083,3.45 -21.125,4.954c-5.208,1.459 -8.125,2.596 -8.125,2.596c0,0 2.916,1.138 8.125,2.562c5.042,1.5 12.375,3.288 21.125,4.95c14.333,2.721 32.583,4.667 51.583,5.28c0.542,18.962 2.458,37.229 5.25,51.562c1.708,8.771 3.458,16.079 4.958,21.191c1.458,5.117 2.583,8.042 2.583,8.042c0,0 1.125,-2.925 2.583,-8.042c1.459,-5.113 3.292,-12.421 5,-21.191c2.667,-14.334 4.625,-32.563 5.25,-51.521c18.958,-0.612 37.166,-2.558 51.5,-5.279c8.792,-1.667 16.083,-3.45 21.208,-4.954c5.125,-1.462 8.042,-2.6 8.042,-2.6c0,0 -2.917,-1.137 -8.042,-2.596Z" style="fill:#fff;fill-rule:nonzero;"/><path d="M8431.087,1913.95c-5.083,-1.505 -12.458,-3.292 -21.208,-4.996c-14.334,-2.721 -32.583,-4.63 -51.542,-5.238c-0.625,-18.963 -2.542,-37.187 -5.25,-51.521c-1.667,-8.812 -3.5,-16.121 -4.958,-21.238c-1.459,-5.112 -2.625,-8.037 -2.625,-8.037c0,0 -1.083,2.925 -2.542,8.037c-1.5,5.117 -3.291,12.425 -4.958,21.238c-2.708,14.334 -4.667,32.558 -5.292,51.521c-18.958,0.65 -37.208,2.558 -51.542,5.279c-8.75,1.663 -16.042,3.45 -21.208,4.955c-5.083,1.458 -8.042,2.596 -8.042,2.596c0,0 2.959,1.138 8.042,2.558c5.167,1.505 12.458,3.292 21.208,4.955c14.334,2.721 32.584,4.671 51.542,5.279c0.583,18.958 2.583,37.229 5.25,51.562c1.667,8.767 3.5,16.079 4.959,21.191c1.458,5.117 2.583,8.042 2.583,8.042c0,0 1.166,-2.925 2.666,-8.042c1.459,-5.112 3.25,-12.425 4.959,-21.191c2.708,-14.334 4.667,-32.563 5.208,-51.525c18.959,-0.609 37.208,-2.554 51.542,-5.275c8.75,-1.666 16.125,-3.454 21.208,-4.954c5.125,-1.462 8.042,-2.6 8.042,-2.6c0,0 -2.917,-1.137 -8.042,-2.596Z" style="fill:#fff;fill-rule:nonzero;"/><path d="M490.821,4416.75c-5.117,-1.5 -12.421,-3.292 -21.192,-4.917c-14.333,-2.791 -32.563,-4.708 -51.521,-5.292c-0.654,-18.958 -2.563,-37.208 -5.283,-51.542c-1.704,-8.75 -3.492,-16.083 -4.992,-21.166c-1.421,-5.125 -2.558,-8.084 -2.558,-8.084c0,0 -1.138,2.959 -2.6,8.084c-1.458,5.083 -3.246,12.417 -4.913,21.166c-2.758,14.334 -4.667,32.584 -5.275,51.542c-18.963,0.625 -37.233,2.542 -51.604,5.333c-8.729,1.667 -16.037,3.417 -21.154,4.917c-5.158,1.458 -8.079,2.583 -8.079,2.583c0,0 2.921,1.125 8.079,2.583c5.117,1.458 12.425,3.291 21.154,4.958c14.371,2.708 32.6,4.625 51.562,5.292c0.608,18.959 2.517,37.167 5.275,51.5c1.667,8.792 3.454,16.083 4.913,21.208c1.504,5.125 2.642,8.084 2.642,8.084c0,0 1.137,-2.958 2.6,-8.084c1.5,-5.125 3.288,-12.417 4.992,-21.208c2.721,-14.333 4.629,-32.541 5.242,-51.5c18.958,-0.625 37.187,-2.542 51.521,-5.25c8.771,-1.708 16.075,-3.5 21.192,-5c5.158,-1.458 8.042,-2.583 8.042,-2.583c0,0 -2.883,-1.125 -8.042,-2.625Z" style="fill:#fff;fill-rule:nonzero;"/><rect x="0" y="6006.583" width="8838.796" height="2832.208" style="fill:#352c3c;fill-rule:nonzero;"/><path d="M8545.546,5416.25l-651.917,0l0,-235.917l26.25,0l0,-112.833l-265.542,0l0,-92.333l-57,0l0,92.333l-45.833,0l0,-123.042l-115.583,0l0,123.042l-65.208,0l0,-1184.792l-36.208,0l0,-76.775l-635.167,0l0,76.775l-28.667,0l0,754.042l-499.583,0l0,76.917l31.584,0l0,158.958l-284.792,0l0,-138.458l-99.709,0l0,138.458l-32.917,0l0,-215.375l-94.167,0l0,215.375l-76.5,0l0,-1066.692l31.417,0l0,-112.829l-644.292,0l0,112.829l19.208,0l0,794.817l-41.667,0l0,-164.083l-161.25,0l0,164.083l-33.458,0l0,-87.083l-208.958,0l0,87.083l-46.917,0l0,-1241.221l-40.542,0l0,-51.034l-583.779,0l0,51.034l-26.471,0l0,1513.096l-298.7,0l0,-435.958l-28.7,0l0,-82.042l-517.496,0l0,82.042l-33.496,0l0,370.708l-362.929,83.25l0,-1151.521l-50.179,0l0,-92.121l-72.596,0l0,-71.821l-142.629,0l0,71.821l-76.167,0l0,-123.063l-230.938,0l0,123.063l-57.367,0l0,92.121l-53.308,0l0,1590.021l-367.842,0l0,-974.5l-618.671,159.042l0,661.541l-673.646,0l0,830.958l8226.371,0l0,-492.5l25.958,0l0,-97.417Z" style="fill:#170e1e;fill-rule:nonzero;"/><rect x="2057.921" y="3830.412" width="83.15" height="214.779" style="fill:#473055;fill-rule:nonzero;"/><rect x="2057.921" y="4173.417" width="83.15" height="214.75" style="fill:#473055;fill-rule:nonzero;"/><rect x="2057.921" y="4516.416" width="83.15" height="214.75" style="fill:#473055;fill-rule:nonzero;"/><rect x="2239.813" y="3958.592" width="83.15" height="214.825" style="fill:#473055;fill-rule:nonzero;"/><rect x="2442.487" y="3851.162" width="83.154" height="214.817" style="fill:#473055;fill-rule:nonzero;"/><rect x="2442.492" y="4242.667" width="83.15" height="214.834" style="fill:#473055;fill-rule:nonzero;"/><rect x="2442.492" y="4623.792" width="83.15" height="214.834" style="fill:#473055;fill-rule:nonzero;"/><rect x="2442.492" y="5004.917" width="83.15" height="214.792" style="fill:#473055;fill-rule:nonzero;"/><rect x="2239.813" y="4350.042" width="83.15" height="214.833" style="fill:#473055;fill-rule:nonzero;"/><rect x="2239.813" y="4741.583" width="83.15" height="214.792" style="fill:#473055;fill-rule:nonzero;"/><rect x="2239.813" y="5133.042" width="83.15" height="214.833" style="fill:#473055;fill-rule:nonzero;"/><rect x="2057.921" y="4859.375" width="83.15" height="214.792" style="fill:#473055;fill-rule:nonzero;"/><rect x="3975.567" y="3490.871" width="145.512" height="154.163" style="fill:#473055;fill-rule:nonzero;"/><rect x="3975.567" y="3766.308" width="145.512" height="145.513" style="fill:#473055;fill-rule:nonzero;"/><rect x="3975.567" y="4033.092" width="145.512" height="145.533" style="fill:#473055;fill-rule:nonzero;"/><rect x="3975.567" y="4299.875" width="145.512" height="145.5" style="fill:#473055;fill-rule:nonzero;"/><rect x="3975.567" y="4557.958" width="145.512" height="145.541" style="fill:#473055;fill-rule:nonzero;"/><rect x="3975.567" y="4824.75" width="145.512" height="145.542" style="fill:#473055;fill-rule:nonzero;"/><rect x="4251.004" y="3490.871" width="145.5" height="154.163" style="fill:#473055;fill-rule:nonzero;"/><rect x="4251.004" y="3766.308" width="145.5" height="145.513" style="fill:#473055;fill-rule:nonzero;"/><rect x="4251.004" y="4033.092" width="145.5" height="145.533" style="fill:#473055;fill-rule:nonzero;"/><rect x="4251.004" y="4299.875" width="145.5" height="145.5" style="fill:#473055;fill-rule:nonzero;"/><rect x="4251.004" y="4557.958" width="145.5" height="145.541" style="fill:#473055;fill-rule:nonzero;"/><rect x="4251.004" y="4824.75" width="145.5" height="145.542" style="fill:#473055;fill-rule:nonzero;"/><rect x="1035.883" y="4606.458" width="478.113" height="50.875" style="fill:#473055;fill-rule:nonzero;"/><rect x="1035.883" y="4716.167" width="478.113" height="50.833" style="fill:#473055;fill-rule:nonzero;"/><rect x="1035.883" y="4825.833" width="478.113" height="50.833" style="fill:#473055;fill-rule:nonzero;"/><rect x="1035.883" y="4935.5" width="478.113" height="50.833" style="fill:#473055;fill-rule:nonzero;"/><rect x="1035.883" y="5045.125" width="478.113" height="50.875" style="fill:#473055;fill-rule:nonzero;"/><rect x="1035.883" y="5154.833" width="478.113" height="50.833" style="fill:#473055;fill-rule:nonzero;"/><rect x="1035.883" y="5264.5" width="478.113" height="50.833" style="fill:#473055;fill-rule:nonzero;"/><rect x="3073.054" y="4495.625" width="69.308" height="794.292" style="fill:#473055;fill-rule:nonzero;"/><rect x="3222.021" y="4495.625" width="69.304" height="794.292" style="fill:#473055;fill-rule:nonzero;"/><rect x="3371.021" y="4495.625" width="69.308" height="794.292" style="fill:#473055;fill-rule:nonzero;"/><rect x="5103.296" y="3839.062" width="69.292" height="400.146" style="fill:#473055;fill-rule:nonzero;"/><rect x="5221.087" y="3839.062" width="69.292" height="400.146" style="fill:#473055;fill-rule:nonzero;"/><rect x="5338.879" y="3839.062" width="69.292" height="400.146" style="fill:#473055;fill-rule:nonzero;"/><rect x="5456.671" y="3839.062" width="69.292" height="400.146" style="fill:#473055;fill-rule:nonzero;"/><rect x="5103.296" y="4390.792" width="69.292" height="400.125" style="fill:#473055;fill-rule:nonzero;"/><rect x="5221.087" y="4390.792" width="69.292" height="400.125" style="fill:#473055;fill-rule:nonzero;"/><rect x="5338.879" y="4390.792" width="69.292" height="400.125" style="fill:#473055;fill-rule:nonzero;"/><rect x="5456.671" y="4390.792" width="69.292" height="400.125" style="fill:#473055;fill-rule:nonzero;"/><rect x="6766.296" y="3958.592" width="533.541" height="58.913" style="fill:#473055;fill-rule:nonzero;"/><rect x="6766.296" y="4079.867" width="533.541" height="58.867" style="fill:#473055;fill-rule:nonzero;"/><rect x="6766.296" y="4201.083" width="533.541" height="58.917" style="fill:#473055;fill-rule:nonzero;"/><rect x="6766.296" y="4322.375" width="533.541" height="58.917" style="fill:#473055;fill-rule:nonzero;"/><rect x="6766.296" y="4443.625" width="533.541" height="58.917" style="fill:#473055;fill-rule:nonzero;"/><rect x="6766.296" y="4564.916" width="533.541" height="58.875" style="fill:#473055;fill-rule:nonzero;"/><rect x="6766.296" y="4686.167" width="533.541" height="58.917" style="fill:#473055;fill-rule:nonzero;"/><rect x="6766.296" y="4807.417" width="533.541" height="58.917" style="fill:#473055;fill-rule:nonzero;"/><rect x="6766.296" y="4928.708" width="533.541" height="58.916" style="fill:#473055;fill-rule:nonzero;"/><rect x="6262.171" y="4745.083" width="96.166" height="62.333" style="fill:#473055;fill-rule:nonzero;"/><rect x="6262.171" y="4866.333" width="96.166" height="62.375" style="fill:#473055;fill-rule:nonzero;"/><rect x="6397.296" y="4745.083" width="96.166" height="62.333" style="fill:#473055;fill-rule:nonzero;"/><rect x="6397.296" y="4866.333" width="96.166" height="62.375" style="fill:#473055;fill-rule:nonzero;"/><rect x="6532.421" y="4745.083" width="96.125" height="62.333" style="fill:#473055;fill-rule:nonzero;"/><rect x="6532.421" y="4866.333" width="96.125" height="62.375" style="fill:#473055;fill-rule:nonzero;"/><rect x="368.938" y="5289.917" width="75.358" height="716.25" style="fill:#473055;fill-rule:nonzero;"/><rect x="535.238" y="5289.917" width="75.358" height="716.25" style="fill:#473055;fill-rule:nonzero;"/><rect x="701.538" y="5289.917" width="75.358" height="716.25" style="fill:#473055;fill-rule:nonzero;"/><rect x="867.837" y="5289.917" width="75.358" height="716.25" style="fill:#473055;fill-rule:nonzero;"/><path d="M4991.879,8838.792l-1449.238,0l173.163,-1956l1102.908,25.417l173.167,1930.583Z" style="fill:#354b4d;fill-rule:nonzero;"/><path d="M898.696,6772.25c283.754,37.583 472.204,20.75 472.204,20.75c570.437,113.375 663.675,-75.875 586.088,-144.667c-77.546,-68.833 -666.333,11.458 -401.254,-34.417c265.121,-45.875 406.979,-239.375 389.358,-338.042c-17.6,-98.667 -182.275,-142 -289.746,-25.917c-87.554,94.542 -380.446,399.75 -153.592,1.417c226.875,-398.375 -9.033,-599.083 -130.083,-603c-121.008,-3.917 -154.1,519.833 -259.663,519.042c-105.579,-0.833 -51.479,-376 -43.487,-534.417c10.758,-212.75 -327.113,-391.292 -464.258,-251.458c-223.571,227.958 199.896,821.166 62.3,900.625c-137.558,79.458 -522.512,-389.833 -524.462,25.792c-0.546,111.792 216.079,115.417 348.212,191.334c0,0 184.854,68.75 0,81.667c-73.2,5.125 -264.25,-42.333 -238.629,73.083c17.217,77.375 647.013,118.208 647.013,118.208Z" style="fill:#488b40;fill-rule:nonzero;"/><path d="M1619.921,6843.583c-174.988,-0.625 -292.892,-4.417 -292.892,-4.417c-354.888,21.667 -390.617,-122.708 -337.958,-157.958c52.658,-35.292 402.717,61.917 245.879,12.25c-156.8,-49.625 -226.754,-178.583 -207.958,-236.917c18.842,-58.333 122.167,-71 177.692,8.208c45.246,64.5 197.479,273.542 92.933,13.542c-104.567,-260 54.912,-362.167 128.558,-354.542c73.65,7.625 50.429,327.625 114.496,335.875c64.025,8.208 62.2,-223.583 70.421,-320.167c11.025,-129.792 230.467,-210.083 302.008,-114.042c116.646,156.542 -188.875,480.958 -112.1,540.458c76.775,59.458 348.721,-193.042 315.629,58.917c-8.933,67.791 -140.437,52.083 -226.754,87.125c0,0 -117.658,26.417 -6.742,49.5c43.933,9.167 163.542,-3.833 138.508,63.958c-16.808,45.458 -401.721,18.208 -401.721,18.208Z" style="fill:#2a602f;fill-rule:nonzero;"/><path d="M8098.671,6819.417c-185.708,24.583 -309,13.583 -309,13.583c-373.292,74.208 -434.333,-49.667 -383.542,-94.667c50.75,-45.042 436.042,7.5 262.583,-22.5c-173.5,-30.042 -266.334,-156.667 -254.792,-221.208c11.5,-64.583 119.25,-92.958 189.625,-16.958c57.25,61.875 248.917,261.542 100.5,0.917c-148.5,-260.708 5.875,-392 85.125,-394.583c79.167,-2.583 100.833,340.125 169.875,339.625c69.083,-0.542 33.708,-246.042 28.458,-349.667c-7.042,-139.25 214.083,-256.083 303.834,-164.583c146.25,149.167 -130.833,537.375 -40.792,589.333c90.042,52 341.916,-255.083 343.167,16.917c0.375,73.125 -141.375,75.5 -227.834,125.167c0,0 -120.958,45 0,53.417c47.875,3.375 172.917,-27.667 156.167,47.833c-11.292,50.667 -423.375,77.375 -423.375,77.375Z" style="fill:#488b40;fill-rule:nonzero;"/><path d="M7626.671,6866.125c114.542,-0.458 191.708,-2.917 191.708,-2.917c232.208,14.167 255.583,-80.333 221.125,-103.375c-34.458,-23.083 -263.542,40.542 -160.875,8.042c102.583,-32.5 148.375,-116.917 136.083,-155.042c-12.334,-38.167 -79.959,-46.458 -116.292,5.375c-29.625,42.167 -129.208,179 -60.792,8.833c68.375,-170.125 -35.958,-236.958 -84.125,-231.958c-48.208,5 -33.041,214.375 -74.917,219.75c-41.916,5.375 -40.75,-146.292 -46.083,-209.5c-7.25,-84.917 -150.834,-137.458 -197.667,-74.625c-76.333,102.458 123.583,314.708 73.375,353.625c-50.25,38.958 -228.208,-126.292 -206.541,38.625c5.875,44.333 91.875,34.042 148.375,57c0,0 77,17.25 4.416,32.375c-28.75,5.958 -107.041,-2.5 -90.625,41.833c11,29.792 262.834,11.958 262.834,11.958Z" style="fill:#2a602f;fill-rule:nonzero;"/><rect x="1809.871" y="4865.5" width="1889.896" height="2016.583" style="fill:#f0b589;fill-rule:nonzero;"/><path d="M3712.717,5354.042l-12.95,-488.542l-1889.896,0l0,212.083l1902.846,276.458Z" style="fill:#d99467;fill-rule:nonzero;"/><rect x="2223.854" y="5178.25" width="1351.571" height="1060.875" style="fill:#faece3;fill-rule:nonzero;"/><rect x="2288.004" y="5228.583" width="1223.212" height="960.208" style="fill:#e4cdbd;fill-rule:nonzero;"/><rect x="2340.904" y="5270.083" width="1117.492" height="877.083" style="fill:#187386;fill-rule:nonzero;"/><path d="M3348.854,6103.167l-917.408,44l0,-700.833l947.696,-30.208l-30.287,687.042Z" style="fill:#49b5d0;fill-rule:nonzero;"/><rect x="2340.904" y="5538.792" width="1117.492" height="56.667" style="fill:#e4cdbd;fill-rule:nonzero;"/><rect x="2153.554" y="6239.125" width="1492.192" height="98.167" style="fill:#faece3;fill-rule:nonzero;"/><rect x="2153.554" y="6286.292" width="1492.192" height="51" style="fill:#e4cdbd;fill-rule:nonzero;"/><path d="M2065.879,3091.037c0,2.091 -1.687,3.796 -3.733,3.796l-66.75,0c-2.112,0 -3.775,-1.704 -3.775,-3.796l0,-237.958c0,-2.029 1.663,-3.775 3.775,-3.775l66.75,0c2.046,0 3.733,1.746 3.733,3.775l0,237.958Z" style="fill:#94b3d7;fill-rule:nonzero;"/><path d="M2007.087,2849.304l-11.692,0c-2.112,0 -3.775,1.746 -3.775,3.775l0,179.046l15.467,-182.821Z" style="fill:#bdd5ea;fill-rule:nonzero;"/><path d="M2062.146,2849.304l-18.271,0l-48.521,245.45l0.042,0.079l66.75,0c2.046,0 3.733,-1.704 3.733,-3.796l0,-237.958c0,-2.029 -1.687,-3.775 -3.733,-3.775Z" style="fill:#7092b7;fill-rule:nonzero;"/><path d="M2193.567,3135.496c0,1.991 -1.625,3.575 -3.492,3.575l-62.604,0c-1.95,0 -3.454,-1.583 -3.454,-3.575l0,-222.817c0,-1.987 1.504,-3.633 3.454,-3.633l62.604,0c1.867,0 3.492,1.646 3.492,3.633l0,222.817Z" style="fill:#94b3d7;fill-rule:nonzero;"/><path d="M2138.471,2909.046l-11,0c-1.95,0 -3.454,1.646 -3.454,3.633l0,167.642l14.454,-171.275Z" style="fill:#bdd5ea;fill-rule:nonzero;"/><path d="M2190.075,2909.046l-17.217,0l-45.429,230.025l62.646,0c1.867,0 3.492,-1.583 3.492,-3.575l0,-222.817c0,-1.987 -1.625,-3.633 -3.492,-3.633Z" style="fill:#7092b7;fill-rule:nonzero;"/><path d="M7436.712,4653.417l-5870.829,0l380.246,-1105.704l5490.583,0l-0,1105.704Z" style="fill:#f68d64;fill-rule:nonzero;"/><path d="M7436.712,4653.417l-5870.829,0l380.246,-1105.704l5490.583,0l-0,1105.704Z" style="fill:#f68d64;fill-rule:nonzero;"/><path d="M2514.475,4187.709l-353.954,-28.592l-245.35,-191.433l357.913,-95.671l278.558,158.584l-37.167,157.113Z" style="fill:#a54631;"/><rect x="1565.883" y="4653.417" width="5870.829" height="111.5" style="fill:#f6f0d2;fill-rule:nonzero;"/><path d="M7436.712,3849.458l0,-301.746l-2228.625,0c709.209,53.108 1989.125,163.925 2228.625,301.746Z" style="fill:#d7654d;fill-rule:nonzero;"/><path d="M4254.671,4490.625c-1207.579,0 -2221.738,-156.459 -2506.288,-367.929l-182.5,530.721l5870.829,0l0,-498.908c-339.166,195.2 -2035.792,336.117 -3182.041,336.117Z" style="fill:#d7654d;fill-rule:nonzero;"/><path d="M3301.188,3547.713l-1355.062,0l-93.888,273.183c263.071,-124.462 789.396,-223.709 1448.95,-273.183Z" style="fill:#d7654d;fill-rule:nonzero;"/><rect x="1649.112" y="4764.917" width="5787.6" height="100.583" style="fill:#d8c58a;fill-rule:nonzero;"/><path d="M1879.054,4548.833c5.504,-21.708 11.733,-46 18.229,-72.666c12.971,-53.292 28.667,-115.417 44.621,-182.084c7.9,-33.375 16.121,-67.875 24.546,-102.958c8.179,-35.054 16.563,-70.638 25.008,-106.267c8.2,-35.625 16.442,-71.254 24.604,-106.354c7.958,-35.058 15.792,-69.65 23.467,-103.104c7.671,-33.37 14.658,-65.812 21.437,-96.545c6.863,-30.654 13.196,-59.725 19.125,-86.521c6.004,-26.779 11.163,-51.338 15.854,-73.205c4.604,-21.841 8.667,-40.741 11.954,-56.454c1.096,-5.421 2.112,-10.438 3.087,-14.962l-1.746,0c-1.221,4.429 -2.417,9.216 -3.775,14.396c-3.942,15.55 -8.771,34.366 -14.213,55.967c-5.479,21.558 -11.692,46.021 -18.187,72.675c-6.6,26.633 -13.646,55.458 -21.154,86.012c-7.512,30.55 -15.508,62.704 -23.429,96.059c-7.996,33.375 -16.279,67.825 -24.604,102.862c-8.2,35 -16.604,70.646 -24.967,106.333c-8.242,35.608 -16.504,71.254 -24.562,106.275c-8.062,35.125 -15.917,69.709 -23.467,103.167c-15.225,66.792 -28.746,129.459 -40.642,183c-5.929,26.833 -11.187,51.417 -15.796,73.25c-4.629,21.75 -8.688,40.792 -11.996,56.5c-6.496,31.333 -10.213,49.208 -10.213,49.208c0,0 4.529,-17.708 12.646,-48.667c3.879,-15.542 8.713,-34.333 14.171,-55.917Z" style="fill:#4a160c;fill-rule:nonzero;"/><path d="M2258.692,4548.75c4.829,-21.666 10.35,-46.041 16.075,-72.708c11.408,-53.292 25.133,-115.5 39.221,-182.167c7.025,-33.417 14.171,-67.833 21.521,-102.875c7.246,-35.029 14.654,-70.654 21.904,-106.262c7.246,-35.65 14.392,-71.254 21.537,-106.396c6.963,-35.079 13.784,-69.65 20.421,-103.025c6.721,-33.534 12.829,-65.892 18.717,-96.546c5.908,-30.734 11.492,-59.721 16.567,-86.563c5.238,-26.733 9.742,-51.359 13.725,-73.117c3.954,-21.804 7.467,-40.846 10.35,-56.479c0.975,-5.4 1.788,-10.375 2.642,-14.9l-1.787,0c-1.017,4.429 -2.113,9.216 -3.292,14.396c-3.529,15.55 -7.754,34.429 -12.667,56.008c-4.808,21.637 -10.333,46.079 -15.996,72.696c-5.746,26.65 -12.017,55.6 -18.717,86.05c-6.558,30.57 -13.642,62.75 -20.562,96.121c-6.967,33.375 -14.275,67.867 -21.621,102.863c-7.146,35.121 -14.517,70.646 -21.863,106.292c-7.208,35.691 -14.437,71.296 -21.479,106.362c-6.921,35.125 -13.846,69.625 -20.483,103.083c-13.275,66.875 -24.888,129.417 -35.283,183c-5.196,26.75 -9.683,51.375 -13.642,73.208c-4.037,21.75 -7.508,40.708 -10.371,56.417c-5.583,31.333 -8.75,49.208 -8.75,49.208c0,0 4.058,-17.708 11.187,-48.667c3.467,-15.625 7.733,-34.417 12.646,-56Z" style="fill:#4a160c;fill-rule:nonzero;"/><path d="M2638.183,4548.666c4.263,-21.666 9.033,-46.125 14.008,-72.708c9.904,-53.375 21.904,-115.5 33.9,-182.292c6.008,-33.333 12.179,-67.833 18.554,-102.875c6.233,-35.067 12.567,-70.692 18.779,-106.337c6.233,-35.567 12.404,-71.217 18.454,-106.296c5.946,-35.075 11.833,-69.629 17.454,-103.083c5.687,-33.354 10.883,-65.77 15.916,-96.425c4.975,-30.654 9.625,-59.725 14.046,-86.442c4.346,-26.792 8.183,-51.437 11.533,-73.158c3.35,-21.804 6.333,-40.805 8.708,-56.438c0.813,-5.4 1.521,-10.375 2.213,-14.9l-1.783,0c-0.917,4.429 -1.792,9.216 -2.804,14.475c-3.084,15.529 -6.821,34.408 -11.042,55.966c-4.225,21.684 -9.033,46.104 -13.967,72.758c-5.017,26.713 -10.438,55.562 -16.158,86.092c-5.688,30.592 -11.858,62.771 -17.783,96.162c-6.012,33.413 -12.183,67.846 -18.554,102.883c-6.233,35.075 -12.508,70.683 -18.779,106.313c-6.233,35.625 -12.321,71.317 -18.454,106.346c-5.929,35.083 -11.775,69.583 -17.517,103.042c-11.25,66.833 -21.054,129.5 -29.862,182.917c-4.425,26.833 -8.2,51.375 -11.513,73.125c-3.408,21.792 -6.333,40.875 -8.746,56.459c-4.671,31.333 -7.371,49.167 -7.371,49.167c0,0 3.633,-17.708 9.846,-48.792c2.962,-15.5 6.7,-34.375 10.921,-55.959Z" style="fill:#4a160c;fill-rule:nonzero;"/><path d="M3017.779,4548.542c3.633,-21.584 7.692,-46.042 11.792,-72.709c8.388,-53.375 18.554,-115.583 28.625,-182.208c5.075,-33.417 10.312,-67.916 15.508,-103c5.238,-35.038 10.496,-70.687 15.796,-106.254c5.133,-35.625 10.229,-71.296 15.304,-106.354c4.913,-35.096 9.787,-69.65 14.454,-103.021c4.75,-33.458 8.971,-65.838 13.075,-96.467c4.058,-30.738 7.896,-59.705 11.471,-86.442c3.671,-26.754 6.821,-51.358 9.479,-73.2c2.637,-21.7 5.075,-40.683 7.063,-56.275c0.612,-5.4 1.258,-10.375 1.746,-14.9l-1.746,0c-0.75,4.429 -1.562,9.258 -2.538,14.537c-2.538,15.509 -5.663,34.388 -9.237,55.988c-3.633,21.721 -7.692,46.084 -11.813,72.758c-4.263,26.671 -8.85,55.621 -13.683,86.192c-4.85,30.533 -9.987,62.771 -14.979,96.183c-5.117,33.312 -10.275,67.762 -15.571,102.8c-5.179,35.058 -10.496,70.708 -15.796,106.375c-5.096,35.562 -10.208,71.212 -15.204,106.245c-4.913,35.167 -9.725,69.667 -14.538,103.125c-9.296,66.792 -17.313,129.333 -24.558,182.917c-3.617,26.708 -6.7,51.292 -9.363,73.083c-2.738,21.75 -5.133,40.75 -7.125,56.375c-3.733,31.292 -5.908,49.125 -5.908,49.125c0,0 3.15,-17.708 8.388,-48.792c2.6,-15.583 5.725,-34.417 9.358,-56.083Z" style="fill:#4a160c;fill-rule:nonzero;"/><path d="M3397.313,4548.5c3.025,-21.625 6.333,-46.042 9.742,-72.833c6.762,-53.25 15.083,-115.5 23.308,-182.292c4.058,-33.375 8.221,-67.875 12.562,-102.917c4.104,-35.033 8.363,-70.683 12.65,-106.208c4.037,-35.687 8.1,-71.375 12.117,-106.454c3.942,-35 7.796,-69.592 11.45,-103.004c3.796,-33.454 7.104,-65.733 10.271,-96.467c3.25,-30.612 6.171,-59.563 9.054,-86.375c2.8,-26.717 5.2,-51.279 7.308,-73.063c2.033,-21.763 3.879,-40.746 5.342,-56.354c0.546,-5.358 0.975,-10.296 1.358,-14.82l-1.746,0c-0.65,4.429 -1.3,9.258 -2.108,14.575c-2.113,15.471 -4.633,34.35 -7.675,56.071c-2.925,21.662 -6.275,46.041 -9.746,72.837c-3.387,26.592 -7.125,55.5 -11.083,86.112c-3.938,30.617 -8.1,62.792 -12.158,96.225c-4.121,33.312 -8.266,67.8 -12.608,102.8c-4.163,35.121 -8.383,70.704 -12.546,106.354c-4.162,35.625 -8.158,71.234 -12.221,106.396c-3.938,35.042 -7.733,69.625 -11.529,103c-7.35,66.792 -13.562,129.333 -19.204,182.833c-2.863,26.708 -5.238,51.25 -7.229,73.042c-2.229,21.75 -3.954,40.792 -5.479,56.333c-2.925,31.292 -4.487,49.125 -4.487,49.125c0,0 2.538,-17.708 6.983,-48.833c2.113,-15.542 4.692,-34.375 7.675,-56.083Z" style="fill:#4a160c;fill-rule:nonzero;"/><path d="M3776.867,4548.417c2.354,-21.708 4.95,-46.084 7.613,-72.792c5.258,-53.334 11.754,-115.625 17.962,-182.458c3.129,-33.333 6.338,-67.833 9.584,-102.916c3.167,-35.009 6.254,-70.638 9.562,-106.325c2.983,-35.525 6.071,-71.233 8.975,-106.313c2.921,-35.058 5.783,-69.608 8.504,-103.067c2.762,-33.312 5.112,-65.65 7.45,-96.325c2.271,-30.671 4.446,-59.579 6.496,-86.333c2.113,-26.758 3.733,-51.279 5.096,-73.042c1.5,-21.721 2.762,-40.704 3.816,-56.313c0.325,-5.441 0.65,-10.296 0.971,-14.82l-1.783,0c-0.529,4.429 -1.017,9.337 -1.667,14.575c-1.662,15.529 -3.733,34.409 -6.008,56.071c-2.375,21.721 -5.033,46.162 -7.671,72.837c-2.6,26.717 -5.525,55.621 -8.608,86.217c-3.025,30.613 -6.275,62.787 -9.338,96.221c-3.046,33.396 -6.296,67.862 -9.583,102.904c-3.146,35.079 -6.333,70.725 -9.521,106.308c-3.025,35.713 -6.071,71.317 -9.096,106.321c-2.821,35.166 -5.663,69.625 -8.383,103.042c-5.521,66.916 -9.904,129.25 -14.008,182.792c-2.05,26.75 -3.733,51.208 -5.133,73c-1.463,21.708 -2.7,40.792 -3.733,56.291c-2.013,31.292 -3.088,49.125 -3.088,49.125c0,0 2.008,-17.792 5.583,-48.833c1.621,-15.583 3.733,-34.5 6.008,-56.167Z" style="fill:#4a160c;fill-rule:nonzero;"/><path d="M4156.442,4548.375c1.683,-21.708 3.633,-46.125 5.421,-72.833c3.712,-53.458 8.433,-115.708 12.767,-182.458c2.042,-33.458 4.25,-67.916 6.5,-103c2.042,-35.088 4.25,-70.633 6.417,-106.321c2,-35.65 4,-71.234 6,-106.333c1.792,-34.996 3.708,-69.55 5.417,-102.984c1.833,-33.454 3.25,-65.692 4.583,-96.283c1.458,-30.654 2.833,-59.663 4,-86.379c1.375,-26.713 2.25,-51.279 3.042,-73.021c0.875,-21.741 1.542,-40.679 2.167,-56.229c0.125,-5.441 0.333,-10.296 0.458,-14.82l-1.708,0c-0.417,4.429 -0.792,9.337 -1.208,14.637c-1.292,15.612 -2.75,34.491 -4.458,56.129c-1.75,21.642 -3.625,46.163 -5.458,72.88c-1.917,26.675 -3.917,55.663 -6.125,86.133c-2.125,30.633 -4.5,62.95 -6.542,96.283c-2.167,33.454 -4.333,67.884 -6.583,103.004c-2.125,35.079 -4.292,70.646 -6.417,106.333c-1.917,35.608 -4.042,71.233 -6,106.22c-1.833,35.125 -3.667,69.625 -5.454,103.042c-3.45,66.875 -6.004,129.208 -8.604,182.792c-1.3,26.666 -2.213,51.208 -3.025,72.958c-0.754,21.708 -1.525,40.666 -2.092,56.25c-1.054,31.208 -1.704,49.042 -1.704,49.042c0,0 1.542,-17.792 4.121,-48.875c1.196,-15.583 2.758,-34.458 4.487,-56.167Z" style="fill:#4a160c;fill-rule:nonzero;"/><path d="M4535.963,4548.333c1.125,-21.75 2.291,-46.208 3.375,-72.917c2.042,-53.458 5,-115.708 7.375,-182.541c1.125,-33.375 2.292,-67.875 3.5,-103c1.166,-34.979 2.166,-70.667 3.291,-106.296c1,-35.567 1.958,-71.191 2.875,-106.271c0.875,-35.079 1.708,-69.591 2.5,-102.962c0.791,-33.496 1.291,-65.775 1.833,-96.367c0.458,-30.633 0.959,-59.583 1.5,-86.296c0.417,-26.758 0.667,-51.321 0.875,-73.042c0.208,-21.679 0.333,-40.558 0.5,-56.229l0,-14.7l-1.625,0c-0.333,4.429 -0.625,9.337 -0.833,14.7c-0.875,15.55 -1.708,34.467 -2.875,56.15c-1.083,21.679 -2.25,46.121 -3.292,72.917c-1.125,26.634 -2.333,55.584 -3.583,86.258c-1.291,30.529 -2.708,62.846 -3.875,96.221c-1.083,33.354 -2.292,67.946 -3.459,102.983c-1.125,35.1 -2.208,70.646 -3.375,106.292c-0.958,35.608 -1.917,71.217 -2.917,106.35c-0.75,35.084 -1.625,69.583 -2.333,102.958c-1.583,66.833 -2.292,129.25 -3.375,182.667c-0.5,26.708 -0.708,51.208 -0.875,72.917c-0.209,21.708 -0.333,40.666 -0.542,56.25c-0.042,31.208 -0.083,49.042 -0.083,49.042c0,0 0.958,-17.792 2.625,-48.875c0.792,-15.583 1.75,-34.583 2.792,-56.208Z" style="fill:#4a160c;fill-rule:nonzero;"/><path d="M4915.462,4548.25c0.5,-21.708 1.042,-46.25 1.25,-72.917c0.583,-53.5 1.667,-115.791 2.042,-182.625c0.167,-33.375 0.417,-67.917 0.583,-102.958c0.042,-35.059 0.166,-70.704 0.208,-106.313c-0.042,-35.588 -0.166,-71.234 -0.208,-106.371c-0.167,-35 -0.417,-69.55 -0.583,-102.946c-0.083,-33.433 -0.583,-65.671 -1,-96.283c-0.334,-30.654 -0.709,-59.642 -1.042,-86.296c-0.25,-26.654 -0.75,-51.217 -1.25,-72.942c-0.5,-21.721 -0.791,-40.558 -1.125,-56.187c-0.125,-5.362 -0.208,-10.175 -0.375,-14.7l-1.75,0c-0.083,4.525 -0.166,9.337 -0.375,14.7c-0.25,15.629 -0.708,34.467 -1.125,56.187c-0.458,21.725 -0.958,46.288 -1.208,72.942c-0.292,26.654 -0.75,55.642 -1.042,86.296c-0.417,30.612 -0.875,62.85 -1,96.283c-0.209,33.396 -0.334,67.946 -0.542,102.946c-0.042,35.137 -0.167,70.783 -0.25,106.371c0.042,35.608 0.209,71.254 0.25,106.313c0.208,35.041 0.333,69.583 0.542,102.958c0.417,66.833 1.458,129.125 2,182.625c0.291,26.667 0.791,51.208 1.25,72.917c0.417,21.709 0.834,40.584 1.125,56.292c0.834,31.083 1.25,48.875 1.25,48.875c0,0 0.5,-17.792 1.291,-48.875c0.292,-15.708 0.583,-34.583 1.083,-56.292Z" style="fill:#4a160c;fill-rule:nonzero;"/><path d="M5295.004,4548.125c-0.125,-21.709 -0.375,-46.209 -0.875,-72.917c-1,-53.417 -1.708,-115.834 -3.25,-182.667c-0.833,-33.375 -1.625,-67.875 -2.458,-102.958c-0.958,-35.133 -1.958,-70.742 -2.875,-106.35c-1.167,-35.646 -2.292,-71.191 -3.292,-106.292c-1.25,-35.037 -2.458,-69.629 -3.625,-102.983c-1.083,-33.375 -2.5,-65.692 -3.792,-96.221c-1.208,-30.675 -2.458,-59.625 -3.5,-86.258c-1.042,-26.795 -2.334,-51.237 -3.416,-72.917c-1.042,-21.683 -2,-40.6 -2.75,-56.15c-0.334,-5.362 -0.542,-10.271 -0.792,-14.7l-1.791,0c0,4.525 0,9.379 0.083,14.7c0.083,15.671 0.375,34.55 0.5,56.229c0.208,21.721 0.417,46.283 0.875,73.042c0.458,26.713 0.958,55.663 1.458,86.296c0.5,30.592 1,62.871 1.875,96.367c0.791,33.371 1.625,67.883 2.416,102.962c0.958,35.079 1.917,70.704 2.875,106.271c1.125,35.629 2.208,71.317 3.292,106.296c1.208,35.125 2.416,69.625 3.583,103c2.334,66.833 5.25,129.083 7.333,182.541c1.083,26.708 2.292,51.167 3.375,72.917c1.125,21.625 2.042,40.625 2.75,56.208c1.792,31.083 2.708,48.875 2.708,48.875c0,0 -0.083,-17.833 -0.167,-49.042c-0.166,-15.583 -0.25,-34.542 -0.541,-56.25Z" style="fill:#4a160c;fill-rule:nonzero;"/><path d="M5674.671,4548.125c-0.959,-21.75 -1.792,-46.292 -3.125,-72.958c-2.5,-53.584 -5.042,-115.917 -8.584,-182.792c-1.708,-33.417 -3.583,-67.917 -5.5,-103.042c-1.875,-34.987 -3.959,-70.612 -5.959,-106.22c-2.167,-35.688 -4.292,-71.254 -6.459,-106.333c-2.166,-35.121 -4.416,-69.55 -6.541,-103.004c-2.042,-33.333 -4.417,-65.65 -6.583,-96.283c-2.167,-30.471 -4.167,-59.458 -6.084,-86.133c-1.75,-26.717 -3.75,-51.237 -5.5,-72.88c-1.708,-21.637 -3.125,-40.517 -4.417,-56.129c-0.458,-5.3 -0.75,-10.208 -1.166,-14.637l-1.75,0c0.125,4.525 0.25,9.379 0.458,14.82c0.625,15.55 1.292,34.488 2.167,56.229c0.833,21.742 1.708,46.308 3,73.021c1.25,26.717 2.583,55.725 4,86.379c1.459,30.591 2.834,62.829 4.625,96.283c1.75,33.434 3.583,67.988 5.416,102.984c2,35.1 4.042,70.683 6,106.333c2.125,35.687 4.291,71.233 6.375,106.321c2.25,35.084 4.5,69.541 6.625,103c4.25,66.75 9,129 12.666,182.458c1.792,26.708 3.792,51.125 5.459,72.833c1.75,21.708 3.208,40.583 4.416,56.167c2.583,31.083 4.125,48.875 4.125,48.875c0,0 -0.583,-17.833 -1.625,-49.042c-0.583,-15.583 -1.375,-34.542 -2.042,-56.25Z" style="fill:#4a160c;fill-rule:nonzero;"/><path d="M6778.754,4548c-1.334,-21.792 -3,-46.25 -5.125,-73c-4.125,-53.542 -8.458,-115.875 -13.917,-182.792c-2.75,-33.417 -5.583,-67.875 -8.5,-103.042c-2.959,-35.004 -6,-70.609 -9,-106.321c-3.208,-35.583 -6.459,-71.229 -9.584,-106.308c-3.208,-35.042 -6.375,-69.508 -9.541,-102.904c-3.042,-33.434 -6.375,-65.608 -9.375,-96.221c-3.042,-30.596 -5.959,-59.5 -8.625,-86.217c-2.583,-26.675 -5.208,-51.116 -7.541,-72.837c-2.375,-21.662 -4.417,-40.542 -6.084,-56.071c-0.583,-5.237 -1.125,-10.146 -1.625,-14.575l-1.791,0c0.291,4.525 0.542,9.379 0.875,14.82c1.125,15.609 2.375,34.592 3.834,56.313c1.417,21.763 3.083,46.283 5.167,73.042c2,26.754 4.208,55.663 6.459,86.333c2.333,30.675 4.667,63.013 7.458,96.325c2.792,33.458 5.583,68.008 8.458,103.067c3.042,35.079 6.041,70.788 9.084,106.313c3.208,35.688 6.375,71.317 9.458,106.325c3.292,35.083 6.5,69.583 9.584,102.916c6.208,66.833 12.833,129.125 18.041,182.458c2.542,26.708 5.25,51.083 7.584,72.792c2.333,21.666 4.416,40.583 6.083,56.167c3.458,31.042 5.5,48.833 5.5,48.833c0,0 -1.125,-17.833 -3.042,-49.125c-1.083,-15.5 -2.291,-34.583 -3.833,-56.291Z" style="fill:#4a160c;fill-rule:nonzero;"/><path d="M7158.379,4547.958c-2.083,-21.792 -4.542,-46.333 -7.333,-73.042c-5.667,-53.5 -11.833,-116.042 -19.25,-182.833c-3.708,-33.375 -7.5,-67.958 -11.458,-103c-4.042,-35.162 -8.042,-70.771 -12.167,-106.396c-4.292,-35.65 -8.5,-71.233 -12.666,-106.354c-4.208,-35 -8.417,-69.488 -12.542,-102.8c-4,-33.433 -8.25,-65.608 -12.209,-96.225c-3.958,-30.612 -7.625,-59.52 -11.125,-86.112c-3.333,-26.796 -6.667,-51.175 -9.708,-72.837c-3.042,-21.721 -5.583,-40.6 -7.708,-56.071c-0.709,-5.317 -1.417,-10.146 -2.042,-14.575l-1.792,0c0.458,4.525 1,9.462 1.334,14.82c1.583,15.609 3.333,34.592 5.541,56.354c2,21.783 4.375,46.346 7.25,73.063c2.792,26.812 5.833,55.763 9,86.375c3.25,30.733 6.5,63.013 10.25,96.467c3.667,33.413 7.584,68.004 11.458,103.004c3.959,35.079 8.125,70.767 12.167,106.454c4.25,35.525 8.458,71.175 12.625,106.208c4.291,35.042 8.5,69.542 12.541,102.917c8.167,66.791 16.542,129.042 23.334,182.292c3.458,26.791 6.708,51.208 9.75,72.833c2.958,21.708 5.541,40.542 7.667,56.083c4.417,31.125 6.875,48.833 6.875,48.833c0,0 -1.542,-17.833 -4.333,-49.125c-1.542,-15.542 -3.416,-34.583 -5.458,-56.333Z" style="fill:#4a160c;fill-rule:nonzero;"/><rect x="1915.171" y="3016.271" width="190.679" height="951.417" style="fill:#711631;fill-rule:nonzero;"/><path d="M2273.083,3872.012l-167.233,95.675l0,-951.417l167.233,64.291l0,791.45Z" style="fill:#5d0327;fill-rule:nonzero;"/><path d="M2273.083,3872.012l0,-57.15l-167.233,-798.592l0,951.417l167.233,-95.675Z" style="fill:#3f011b;fill-rule:nonzero;"/><rect x="4919.546" y="4865.5" width="2493.167" height="2016.583" style="fill:#f0b589;fill-rule:nonzero;"/><path d="M2193.567,6337.292l1349.075,302.416l0,-302.416l-1349.075,0Z" style="fill:#d99467;fill-rule:nonzero;"/><path d="M7436.712,6882.083l-2777.458,0l-18.167,-2537.25l1182.208,-1087.863l1613.417,1507.946l0,2117.167Z" style="fill:#f0b589;fill-rule:nonzero;"/><path d="M7436.712,6357.792l-2477.542,-1648.583l-312.042,477.167l12.125,1695.708l2777.458,0l0,-524.292Z" style="fill:#d99467;fill-rule:nonzero;"/><path d="M6751.504,6331.125l-1663.791,0l827.875,550.958l1521.125,0l0,-81.667l-685.208,-469.292Z" style="fill:#c77f52;fill-rule:nonzero;"/><rect x="5163.088" y="5178.25" width="1509.875" height="1060.875" style="fill:#faece3;fill-rule:nonzero;"/><rect x="5234.754" y="5228.583" width="1366.459" height="960.208" style="fill:#e4cdbd;fill-rule:nonzero;"/><rect x="5293.879" y="5270.083" width="1248.292" height="877.083" style="fill:#187386;fill-rule:nonzero;"/><path d="M6419.879,6103.167l-1024.875,44l0,-700.833l1058.583,-30.208l-33.708,687.042Z" style="fill:#49b5d0;fill-rule:nonzero;"/><rect x="5293.879" y="5538.792" width="1248.292" height="56.667" style="fill:#e4cdbd;fill-rule:nonzero;"/><rect x="5084.546" y="6239.125" width="1666.958" height="98.167" style="fill:#faece3;fill-rule:nonzero;"/><rect x="5084.546" y="6286.292" width="1666.958" height="51" style="fill:#e4cdbd;fill-rule:nonzero;"/><path d="M5823.296,3639.388l1613.417,1507.862l0,-382.333l-1613.417,-1507.946l-1182.208,1087.863l2.75,379.958l1179.458,-1085.404Z" style="fill:#d99467;fill-rule:nonzero;"/><path d="M4681.712,4389l1141.75,-1050.646l1612.125,1470.854l80.875,-88.625l-1693.333,-1544.992l-1222.667,1125.117l81.25,88.291Z" style="fill:#f6f0d2;fill-rule:nonzero;"/><path d="M4991.879,6952.708l-1449.238,0l0,-2187.792l724.654,-664.346l724.583,664.346l0,2187.792Z" style="fill:#feddc5;fill-rule:nonzero;"/><path d="M4660.129,5299.417l-74.458,1653.292l406.209,0l0,-1536.583l-221.834,-178.833l-109.917,62.125Z" style="fill:#e4ae8d;fill-rule:nonzero;"/><path d="M4991.879,4979.208l0,-214.292l-724.583,-664.346l-724.654,664.346l0,214.292l723.362,-591.042l725.875,591.042Z" style="fill:#e4ae8d;fill-rule:nonzero;"/><path d="M3488.183,4869l779.029,-716.879l776.625,716.796l81.416,-88.167l-857.916,-791.821l-860.413,791.779l81.258,88.292Z" style="fill:#f6f0d2;fill-rule:nonzero;"/><rect x="3816.45" y="5334.958" width="901.679" height="1513.708" style="fill:#faece3;fill-rule:nonzero;"/><rect x="3816.454" y="5334.958" width="901.675" height="30.75" style="fill:#e8d1c4;fill-rule:nonzero;"/><rect x="3834.883" y="5353.375" width="864.788" height="1495.292" style="fill:#e8d1c4;fill-rule:nonzero;"/><path d="M3853.337,5382.667l846.334,0l0,-29.292l-864.788,0l0,1495.292l18.454,0l0,-1466Z" style="fill:#b6998c;fill-rule:nonzero;"/><rect x="3911.904" y="5424.208" width="747.683" height="1424.458" style="fill:#c8b3a6;fill-rule:nonzero;"/><rect x="3893.429" y="5424.208" width="747.658" height="1424.458" style="fill:#faece3;fill-rule:nonzero;"/><rect x="3921.163" y="5451.958" width="692.216" height="1396.708" style="fill:#c15b40;fill-rule:nonzero;"/><rect x="4548.171" y="6219.583" width="44.125" height="150" style="fill:#973c29;fill-rule:nonzero;"/><path d="M3962.267,5488.917l651.112,0l0,-36.958l-692.216,0l0,1396.708l41.104,0l0,-1359.75Z" style="fill:#973c29;fill-rule:nonzero;"/><path d="M4548.171,6341.417l-551.492,-26.792l27.688,-765.042l496.054,-26.75l12.875,43.333l14.875,775.25Z" style="fill:#973c29;fill-rule:nonzero;"/><rect x="3996.679" y="5522.833" width="523.742" height="791.792" style="fill:#c15b40;fill-rule:nonzero;"/><rect x="4029.929" y="5573.167" width="457.158" height="691.125" style="fill:#187386;fill-rule:nonzero;"/><path d="M4426.462,6224.208l-357.437,20.583l-10.271,-583.333l396.458,-53.375l-28.75,616.125Z" style="fill:#49b5d0;fill-rule:nonzero;"/><rect x="4005.367" y="6363.875" width="515.054" height="312.291" style="fill:#973c29;fill-rule:nonzero;"/><rect x="4022.296" y="6374.167" width="481.208" height="291.708" style="fill:#c15b40;fill-rule:nonzero;"/><path d="M4039.229,6396.833l464.275,0l0,-22.667l-481.208,0l0,291.708l16.933,0l0,-269.042Z" style="fill:#d26951;fill-rule:nonzero;"/><rect x="4150.654" y="5573.167" width="24.725" height="691.125" style="fill:#c15b40;fill-rule:nonzero;"/><rect x="4341.713" y="5573.167" width="24.746" height="691.125" style="fill:#c15b40;fill-rule:nonzero;"/><rect x="4029.929" y="5693.75" width="457.158" height="26.792" style="fill:#c15b40;fill-rule:nonzero;"/><rect x="4029.929" y="5905.375" width="457.158" height="26.667" style="fill:#c15b40;fill-rule:nonzero;"/><rect x="4029.929" y="6116.875" width="457.158" height="26.75" style="fill:#c15b40;fill-rule:nonzero;"/><rect x="4548.171" y="6207.833" width="44.125" height="149.958" style="fill:#f0a63e;fill-rule:nonzero;"/><path d="M4592.296,6254.917c-2.375,-10.042 -11.25,-17.625 -22.084,-17.625c-10.75,0 -19.667,7.583 -22.042,17.625l0,10.333c2.375,10 11.292,17.542 22.042,17.542c10.833,0 19.708,-7.542 22.084,-17.542l0,-10.333Z" style="fill:#c07d29;fill-rule:nonzero;"/><path d="M4593.004,6246.417c0,12.541 -10.208,22.833 -22.792,22.833c-12.542,0 -22.708,-10.292 -22.708,-22.833c0,-12.417 10.166,-22.708 22.708,-22.708c12.583,0 22.792,10.292 22.792,22.708Z" style="fill:#fdc174;fill-rule:nonzero;"/><path d="M4570.212,6269.25c-10.125,0 -18.708,-6.708 -21.625,-15.875c2.916,9.167 11.5,15.875 21.625,15.875l0.125,0l-0.125,0Zm0.167,0l0.125,0l-0.125,0Zm0.166,0l0.083,0l-0.083,0Zm0.125,0l0.292,0l-0.292,0Zm0.292,0l0.125,0l-0.125,0Zm0.166,0c0.042,0 0.083,-0.042 0.125,-0.042c-0.042,0 -0.083,0.042 -0.125,0.042Zm0.125,-0.042c0.542,0 1.042,-0.042 1.583,-0.125c-0.542,0.083 -1.042,0.125 -1.583,0.125Zm1.583,-0.125l0.125,0l-0.125,0Zm0.167,0l0.083,0l-0.083,0Zm0.125,-0.042l0.041,0l-0.041,0Z" style="fill:#c87a29;fill-rule:nonzero;"/><path d="M4547.504,6246.25c0,-1.792 0.25,-3.542 0.666,-5.208c-0.417,1.667 -0.666,3.417 -0.666,5.208Z" style="fill:#c9613a;fill-rule:nonzero;"/><path d="M4548.171,6241.042c0.625,-2.667 1.75,-5.125 3.25,-7.333c-1.5,2.208 -2.625,4.708 -3.25,7.333Z" style="fill:#e99538;fill-rule:nonzero;"/><path d="M4570.212,6269.25c-10.125,0 -18.708,-6.708 -21.625,-15.875c-0.709,-2.208 -1.083,-4.542 -1.083,-6.958l0,-0.167c0,-1.792 0.25,-3.542 0.666,-5.208c0.625,-2.625 1.75,-5.125 3.25,-7.333c0.792,-1.125 1.667,-2.208 2.625,-3.166c-0.667,2.166 -1.125,4.417 -1.125,6.75c0,12.625 10.167,22.833 22.709,22.833c6.333,0 12.083,-2.708 16.167,-6.875c-2.667,8.375 -9.792,14.625 -18.625,15.792l-0.041,0c0,0.042 -0.042,0.042 -0.042,0.042l-0.25,0c-0.542,0.083 -1.042,0.125 -1.583,0.125c-0.042,0 -0.083,0.042 -0.125,0.042l-0.917,0Z" style="fill:#f1a65b;fill-rule:nonzero;"/><path d="M4575.088,6324.875c0,2.708 -2.208,4.917 -4.875,4.917c-2.667,0 -4.833,-2.208 -4.833,-4.917l0,-26.375c0,-2.792 2.167,-5 4.833,-5c2.667,0 4.875,2.208 4.875,5l0,26.375Z" style="fill:#4c080f;fill-rule:nonzero;"/><rect x="3783.604" y="5286.625" width="967.317" height="48.333" style="fill:#faece3;fill-rule:nonzero;"/><path d="M4768.421,5286.625l-1002.334,0l-34.896,-47.25l0,-23.583l1072.229,0l0,22.542l-35,48.292Z" style="fill:#faece3;fill-rule:nonzero;"/><path d="M4790.754,5255.833l12.666,-17.5l0,-22.542l-1072.229,0l0,23.583l12.138,16.458l1047.425,0Z" style="fill:#b6998c;fill-rule:nonzero;"/><rect x="3731.192" y="5215.792" width="1072.229" height="21.5" style="fill:#faece3;fill-rule:nonzero;"/><rect x="3783.604" y="5286.625" width="967.317" height="12.792" style="fill:#b6998c;fill-rule:nonzero;"/><rect x="3715.804" y="6848.667" width="1102.908" height="119.125" style="fill:#8da2b0;fill-rule:nonzero;"/><rect x="3715.804" y="6848.667" width="1102.908" height="18.5" style="fill:#a3bcca;fill-rule:nonzero;"/><path d="M6236.421,4479c0,232.75 -188.667,421.417 -421.292,421.417c-232.708,0 -421.333,-188.667 -421.333,-421.417c0,-232.583 188.625,-421.263 421.333,-421.263c232.625,0 421.292,188.68 421.292,421.263Z" style="fill:#d99467;fill-rule:nonzero;"/><path d="M6236.421,4416.416c0,232.667 -188.667,421.25 -421.292,421.25c-232.708,0 -421.333,-188.583 -421.333,-421.25c0,-232.708 188.625,-421.246 421.333,-421.246c232.625,0 421.292,188.538 421.292,421.246Z" style="fill:#faece3;fill-rule:nonzero;"/><path d="M6174.588,4416.416c0,198.583 -160.958,359.542 -359.458,359.542c-198.667,0 -359.625,-160.958 -359.625,-359.542c0,-198.625 160.958,-359.592 359.625,-359.592c198.5,0 359.458,160.967 359.458,359.592Z" style="fill:#e8d1c4;fill-rule:nonzero;"/><path d="M6131.838,4416.416c0,174.917 -141.833,316.75 -316.708,316.75c-174.958,0 -316.667,-141.833 -316.667,-316.75c0,-174.917 141.708,-316.696 316.667,-316.696c174.875,0 316.708,141.779 316.708,316.696Z" style="fill:#faece3;fill-rule:nonzero;"/><path d="M6090.629,4416.416c0,152.167 -123.375,275.584 -275.5,275.584c-152.25,0 -275.583,-123.417 -275.583,-275.584c0,-152.208 123.333,-275.571 275.583,-275.571c152.125,0 275.5,123.363 275.5,275.571Z" style="fill:#187386;fill-rule:nonzero;"/><path d="M5815.129,4172.125c146.875,0 266.958,115.042 275.042,259.958c0.291,-5.167 0.458,-10.5 0.458,-15.667c0,-152.208 -123.375,-275.571 -275.5,-275.571c-152.25,0 -275.583,123.363 -275.583,275.571c0,5.167 0.167,10.5 0.458,15.667c8.125,-144.916 128.167,-259.958 275.125,-259.958Z" style="fill:#0b5c67;fill-rule:nonzero;"/><path d="M5815.129,4088.108c193.292,0 350.917,152.6 359.125,343.975c0.25,-5.167 0.334,-10.5 0.334,-15.667c0,-198.625 -160.958,-359.592 -359.458,-359.592c-198.667,0 -359.625,160.967 -359.625,359.592c0,5.167 0.209,10.5 0.417,15.667c8.167,-191.375 165.833,-343.975 359.208,-343.975Z" style="fill:#b6998c;fill-rule:nonzero;"/><rect x="1784.458" y="6727.792" width="1758.183" height="154.292" style="fill:#d5caa4;fill-rule:nonzero;"/><rect x="1784.458" y="6727.792" width="1758.183" height="31.875" style="fill:#faece3;fill-rule:nonzero;"/><rect x="4991.879" y="6728.5" width="2462.708" height="154.292" style="fill:#d5caa4;fill-rule:nonzero;"/><rect x="4991.879" y="6728.5" width="2462.708" height="31.875" style="fill:#faece3;fill-rule:nonzero;"/></g></svg>