<?xml version="1.0" encoding="UTF-8" standalone="no"?><!DOCTYPE svg PUBLIC "-//W3C//DTD SVG 1.1//EN" "http://www.w3.org/Graphics/SVG/1.1/DTD/svg11.dtd"><svg width="100%" height="100%" viewBox="0 0 8839 8839" version="1.1" xmlns="http://www.w3.org/2000/svg" xmlns:xlink="http://www.w3.org/1999/xlink" xml:space="preserve" xmlns:serif="http://www.serif.com/" style="fill-rule:evenodd;clip-rule:evenodd;stroke-linejoin:round;stroke-miterlimit:2;"><g><rect x="0" y="0" width="8838.792" height="8838.75" style="fill:#8ad3e0;fill-rule:nonzero;"/><path d="M8838.792,8387.75l0,-5523.912c-295.084,-328.579 -794.042,-99.146 -794.042,-99.146c-651.375,-443.471 -1094.833,152.446 -1094.833,152.446c-928.5,-277.163 -1205.667,498.9 -1205.667,498.9c-831.5,-526.612 -1324.833,374.171 -1324.833,374.171c-798.217,0 -781.609,734.5 -781.609,734.5c-692.929,-360.333 -1067.104,277.167 -1067.104,277.167c-138.592,-595.917 -983.933,-498.917 -983.933,-498.917c-221.742,-568.187 -845.367,-346.446 -845.367,-346.446c-180.042,-379.021 -534.896,-440.538 -741.404,-441.575l0,4872.813l8838.792,0Z" style="fill:#fff;fill-rule:nonzero;"/><path d="M8838.834,6728.25c0,0 -5492.013,-512.75 -8838.834,-360.292l0,1330.375l8838.834,0l0,-970.083Z" style="fill:#91cd96;fill-rule:nonzero;"/><path d="M0,7046.958c0,0 7318.667,-249.417 8838.834,-166.292l0,914.667l-8838.834,0l0,-748.375Z" style="fill:#78c797;fill-rule:nonzero;"/><path d="M0,7334.583c0,0 2436.783,22.458 3731.35,166.292c1590.234,176.708 5107.484,-62.375 5107.484,-62.375l0,1400.25l-8838.834,0l0,-1504.167Z" style="fill:#6ab398;fill-rule:nonzero;"/><path d="M1299.5,622.729c0,0 242.85,-283.138 462.929,59.996c0,0 280.812,-147.075 318.733,135.171c0,0 242.85,-84.217 242.85,129.362c0,0 151.767,-111.359 227.667,73.875c0,0 166.95,-5.434 121.437,139.229l-2011.067,0c-0,0 -45.529,-252.983 258.038,-247.683c0,0 15.167,-184.317 220.054,-135.029c0,0 -30.917,-160.392 159.358,-154.921Z" style="fill:#fff;fill-rule:nonzero;"/><path d="M3334.254,529.146c0,0 168.433,-196.362 321.071,41.612c0,0 194.762,-102.008 221.071,93.75c0,0 168.413,-58.416 168.413,89.717c0,0 105.254,-77.233 157.9,51.237c0,0 115.787,-3.767 84.208,96.558l-1394.762,0c0,0 -31.583,-175.454 178.971,-171.783c0,0 10.517,-127.829 152.596,-93.646c0,0 -21.438,-111.242 110.533,-107.446Z" style="fill:#fff;fill-rule:nonzero;"/><path d="M3585.229,1883.446c0,0 215.567,-251.346 410.938,53.267c0,0 249.291,-130.571 282.958,119.996c0,0 215.583,-74.754 215.583,114.85c0,0 134.75,-98.862 202.125,65.579c0,0 148.209,-4.821 107.792,123.596l-1785.329,0c0,0 -40.396,-224.579 229.071,-219.892c0,0 13.459,-163.621 195.346,-119.871c0,0 -27.446,-142.375 141.517,-137.525Z" style="fill:#fff;fill-rule:nonzero;"/><path d="M5974.709,956.192c0,0 242.833,-283.138 462.917,59.996c0,0 280.792,-147.075 318.708,135.158c0,0 242.875,-84.204 242.875,129.375c0,0 151.75,-111.359 227.666,73.875c0,0 166.959,-5.434 121.417,139.225l-2011.042,0c0,0 -45.541,-252.992 258,-247.679c0,0 15.208,-184.317 220.084,-135.029c0,0 -30.917,-160.392 159.375,-154.921Z" style="fill:#fff;fill-rule:nonzero;"/><path d="M2841.567,4350.583c126.392,-134 -32.883,-78.375 -32.883,-78.375c34.446,-34.417 50.525,-58.875 55.358,-76.208l-1967.258,0c15.592,49.583 91.796,63.583 91.796,63.583c-12.625,118.791 108.692,40.416 108.692,40.416c-146.612,136.542 40.437,202.25 40.437,202.25c-10.113,139.041 78.375,78.375 78.375,78.375c-42.975,192.125 100.267,65.708 100.267,65.708c-41.25,204.792 134.833,25.292 134.833,25.292c7.592,247.75 265.446,169.375 265.446,169.375c60.658,161.792 166.871,30.417 166.871,30.417c37.879,146.708 83.392,-40.542 83.392,-40.542c93.542,128.917 141.571,-91 141.571,-91c98.579,50.583 199.717,-63.209 199.717,-63.209c60.675,192.125 123.871,-30.333 123.871,-30.333c30.291,139.042 111.208,22.792 111.208,22.792c166.825,85.917 116.275,-60.708 116.275,-60.708c204.792,43 63.217,-113.75 63.217,-113.75c232.558,151.667 118.817,-45.5 118.817,-45.5c136.483,-50.583 0,-98.583 0,-98.583Z" style="fill:#262f15;fill-rule:nonzero;"/><path d="M2525.025,3470.092c0,0 155.138,191.221 57.046,219.379c0,0 -43.238,9.387 -102.637,-28.363c0,0 49.858,97.583 -48.479,121.337c0,0 75.679,230.267 -117.479,142.425c0,0 -106.917,222.563 -164.471,15.621c0,0 -82.925,57.458 -107.792,-33.392c0,0 -195.513,161.042 -231,-25.987c0,0 -190.942,157.421 -92.729,-76.583c0,0 -251.642,146.741 -182.846,-84.013c0,0 -128.825,68.746 -62.829,-52.587c0,0 -212.867,25.925 -16.688,-196.537c0,0 -125.963,-63 16.971,-93.613c0,0 -35.688,13.846 -90.621,-34.654c0,0 -166.179,179.496 -120.054,13.217c0,0 -167.763,120.138 -112.625,-54.554c0,0 -198.254,135.917 -83.233,-80.108c0,0 -144.821,35.792 -27.121,-111.071c0,0 -148.375,70.908 -40.196,-72.454c0,0 -137.429,-31.963 -10.513,-95.533c0,0 -131.304,-178.959 110.271,-56.788c0,0 -153.917,-136.783 49.125,-117c0,0 -64.633,-136.705 106.233,-71.217c0,0 65.996,-121.312 110.208,10.183c0,0 37.558,-222.341 116.829,-42.612c0,0 85.85,-121.05 186.804,-82.571c0,0 23.079,-218.267 127.483,-103.317c0,0 24.137,-186.287 76.554,-48.171c0,0 88.854,-138.641 164.879,11.65c0,0 241.571,-103.458 275.354,135.829c0,0 151.517,-192.741 133.35,10.121c0,0 125.354,-137.809 104.242,52.983c0,0 79.254,-68.242 84.308,67.579c0,0 188.284,43.746 60.758,191.683c0,0 109.254,-88.896 109.662,27.6c0,0 149.975,10.758 84,132.091c0,0 165.183,63.646 39.75,149.371c0,0 228.663,103.754 -23.121,91.821c0,0 121.538,180.021 -61.633,138.2c0,0 -17.846,153.229 -173.954,-3.155c0,0 12.262,132.559 -143.808,33.188Z" style="fill:url(#_Linear1);"/><path d="M1864.458,4183.208c0,0 -95.412,2345.75 -98.946,2394.917c0,0 84.854,36.5 299.225,8.417l-94.883,-2403.334l-105.396,0Z" style="fill:#79492a;fill-rule:nonzero;"/><path d="M1814.921,5395.667l201.708,-27.416l-1.971,-50.125l-196.546,0c-1.037,25.833 -2.133,51.708 -3.192,77.542Z" style="fill:#522c13;fill-rule:nonzero;"/><path d="M1780.008,6242.083l268.938,-55.417l-2.438,-60.667l-260.512,-28.167c-2.113,51.042 -4.079,99.375 -5.988,144.25Z" style="fill:#522c13;fill-rule:nonzero;"/><path d="M1772.292,6425.375l284.65,-35.875l-2.758,-69.708l-276.004,-33.208c-2.192,52.167 -4.179,98.875 -5.887,138.792Z" style="fill:#522c13;fill-rule:nonzero;"/><path d="M1765.512,6578.125c0,0 84.854,36.5 299.225,8.417l-2.717,-67.875l-290.883,-65.458c-3.15,73.5 -5.158,118.541 -5.625,124.917Z" style="fill:#522c13;fill-rule:nonzero;"/><path d="M2021.946,5503.625l-213.642,53.417c-0.85,21.167 -1.746,42.25 -2.575,63.25l217.721,-78.75l-1.504,-37.917Z" style="fill:#522c13;fill-rule:nonzero;"/><path d="M1797.121,5829.042c-2.437,58.625 -4.771,115.542 -7.046,170.083l253.875,61.458l-9.888,-250.292l-236.942,18.75Z" style="fill:#522c13;fill-rule:nonzero;"/><path d="M2004.408,5059.125l-173.346,-57.792c-2.821,68.708 -5.704,139.25 -8.608,210.625l186.742,-31.75l-4.787,-121.083Z" style="fill:#522c13;fill-rule:nonzero;"/><path d="M1840.825,4762.208l153.187,34.167l-1.421,-37.25l-150.504,-27.708c-0.408,10.167 -0.854,20.417 -1.263,30.792Z" style="fill:#522c13;fill-rule:nonzero;"/><path d="M1853.575,4449.667l124.525,-57.417l-4.833,-122.25l-113.563,29.708c-1.663,41 -3.733,91.625 -6.129,149.959Z" style="fill:#522c13;fill-rule:nonzero;"/><path d="M1983.05,4517.833l-133.554,32.583c-0.996,23.542 -1.971,47.917 -3.004,73.083l139.4,-33.667l-2.842,-72Z" style="fill:#522c13;fill-rule:nonzero;"/><path d="M1978.1,4970.292c0,0 113.558,-84.333 287.854,-94c131.059,-7.292 540.108,-93.417 502.675,-426.625l-39.871,0c0,0 65.608,370.708 -475.471,396.458c0,0 -170.929,-21.083 -275.188,44.5l0,79.667Z" style="fill:#79492a;fill-rule:nonzero;"/><path d="M2654.604,4695.167c0,0 -436.479,-113.542 -389.625,-425.166l35.163,0c0,0 -44.987,332.041 375.717,397.875l-21.254,27.292Z" style="fill:#79492a;fill-rule:nonzero;"/><path d="M2361.638,4479.833c-24.988,-24.709 -15.092,-68.75 -15.092,-68.75c-7.513,7.875 -14.925,14.375 -22.029,19.792c-10.862,8.25 -20.996,13.875 -29.646,17.75c-16.821,7.458 -28.025,8.167 -28.025,8.167c-83.375,-0.042 -10.846,-165.542 -2.184,-184.667c0.533,-1.166 0.825,-1.791 0.825,-1.791c-0.221,0.25 -0.446,0.458 -0.662,0.709c-37.212,38.917 -63.883,51.666 -82.871,51.666c-36.067,0 -44.379,-46 -44.379,-46c-38.725,64.333 -69.838,83.458 -93.175,83.458c-34.363,0 -51.85,-41.542 -51.85,-41.542c-25.925,13.417 -45.196,18.917 -59.371,18.917c-64.563,0 -23.271,-114.25 -23.271,-114.25c-41.454,13.25 -67.979,18.542 -83.896,18.542c-33.45,0 -19.975,-23.458 0.537,-45.833c18.754,-20.5 43.387,-40.083 43.387,-40.083c-124.317,-39.379 -0.204,-127.15 -0.204,-127.15c-82.479,-80.987 40.721,-123.483 40.721,-123.483c-12.962,-46.412 8.821,-57.937 33.671,-57.937c24.533,0 52.058,11.246 52.058,11.246c-140.05,-88.104 7.937,-165.379 7.937,-165.379c-15.767,-65.266 7.471,-78.275 28.517,-78.275c13.954,0 26.946,5.725 26.946,5.725c-28.767,-69.475 -13.117,-87.696 11.213,-87.696c26.833,0 64.225,22.166 64.225,22.166c-24.196,-62.262 -11.758,-80.983 11.975,-80.983c35.85,0 97.483,42.758 97.483,42.758c-19.9,-154.425 114.487,-171.083 173.425,-171.083c16.221,0 26.733,1.262 26.733,1.262c12.975,-58.804 40.042,-75.505 66.604,-75.505c34.933,0 69.004,28.892 69.004,28.892c3.863,-36.238 12.117,-48.933 21.796,-48.933c22.671,0 53.129,69.679 53.129,69.679c15.733,-29.217 31.887,-40.096 47.237,-40.096c44.842,0 82.746,92.908 82.746,92.908c19.667,-13.812 40.875,-18.925 61.525,-18.925c59.062,0 113.463,41.883 113.463,41.883c8.463,-51.812 22.692,-69.329 38.079,-69.329c32.162,0 69.35,76.567 69.35,76.567c3.154,-47.113 19.079,-60.933 36.683,-60.933c25.008,0 53.413,27.896 53.413,27.896c34.604,-24.392 58.183,-33.296 74.167,-33.296c43.346,0 30.825,65.533 30.825,65.533c29.375,-10.942 50.441,-15.437 65.237,-15.437c68.612,0 2.117,96.829 2.117,96.829c53.629,-46.391 84.263,-62.479 100.958,-62.479c37.788,0 4.2,82.392 4.2,82.392c120.583,21.512 12.583,77.954 12.583,77.954c81.612,59.029 47.054,68.925 14.688,68.925c-16.329,0 -32.104,-2.521 -32.104,-2.521c131.567,89.454 2.192,93.992 2.192,93.992c77.708,77.655 57.138,95.646 21.375,95.646c-30.9,0 -73.142,-13.433 -73.142,-13.433c44.775,65.9 20.012,81.562 -13.679,81.562c-30.554,0 -68.454,-12.896 -68.454,-12.896c27.904,44.45 21.358,58.504 1.888,58.504c-33.538,0 -105.421,-41.759 -105.421,-41.759c-26.638,38.5 -52.025,46.192 -62.771,47.663c4.233,-0.2 8.204,-0.3 11.921,-0.3c100.462,0 17.925,70.779 17.925,70.779c186.704,114.542 70.921,150.359 38.021,157.692l-737.688,0l-100.866,293.292Z" style="fill:url(#_Linear2);"/><path d="M1882.929,4111.196c0,0 145.287,212.346 35.65,230.054c0,0 -47.992,4.708 -107.9,-40.459c0,0 42.408,105.084 -66.967,118.25c0,0 54.483,243.25 -144.317,132.042c0,0 -142.388,214.833 -180.004,-2.542c0,0 -96.729,49.25 -112.867,-46.167c0,0 -231.058,142.209 -247.175,-52.416c0,0 -225.658,139.042 -91.354,-88.5c0,0 -290.129,121.375 -188.062,-106.167c0,0 -147.783,55.625 -61.792,-60.667c0,0 -233.738,2.5 5.358,-202.246c0,0 -128.946,-78.379 29.558,-93.525c0,0 -40.317,10.104 -94.012,-45.5c0,0 -201.5,164.309 -131.646,0c0,0 -196.142,103.634 -115.55,-68.279c0,0 -231.1,116.3 -80.592,-91c0,0 -161.229,20.242 -16.121,-116.279c0,0 -169.263,55.625 -34.917,-78.358c0,0 -145.104,-48.029 0,-98.596c0,0 -120.929,-197.179 126.25,-45.504c0,0 -150.467,-156.729 67.217,-113.762c0,0 -53.779,-146.617 123.546,-60.667c0,0 85.992,-116.3 118.229,22.754c0,0 67.154,-222.458 131.625,-30.346c0,0 107.492,-113.746 212.263,-63.196c0,0 51.071,-219.933 150.463,-90.996c0,0 48.354,-187.221 88.671,-40.521c0,0 112.829,-131.383 177.325,30.412c0,0 274.071,-78.363 282.113,169.363c0,0 187.171,-179.475 143.258,25.283c0,0 152.292,-126.4 106.617,65.725c0,0 94.012,-60.658 83.271,78.379c0,0 198.842,65.708 43.017,202.221c0,0 128.95,-78.35 115.508,40.446c0,0 161.183,27.821 75.233,144.092c0,0 171.417,83.433 25.254,156.75c0,0 235.362,131.442 -36.013,91.004c0,0 110.15,197.179 -83.271,133.971c0,0 -37.638,154.208 -188.062,-22.754c0,0 -2.6,136.504 -159.804,17.7Z" style="fill:url(#_Linear3);"/><path d="M2238.063,6185.75c0,0 23.875,-114.875 76.492,-96.834c52.6,18.042 -9.033,84.167 -9.033,84.167c0,0 66.117,-46.583 55.6,21.042c0,0 112.75,-97.667 124.767,-31.541c12.017,66.125 -63.133,103.708 -63.133,103.708c0,0 53.592,4.5 23.75,51.083c0,0 100.975,-28.583 102.496,7.5c1.483,36.083 -27.058,39.083 -27.058,39.083c0,0 69.1,-40.583 73.608,0c4.529,40.583 -31.546,39.083 -31.546,39.083c0,0 70.479,-21.667 64.638,39.042c0,0 33.492,-62.542 52.067,-47.042c16.221,13.542 -8.788,86.292 -15.408,104.542c0,0 80.55,-27.5 91.067,-9.875c10.517,17.667 -78.154,52.875 -78.154,52.875c0,0 76.654,-10.542 43.604,41.75c0,0 88.671,-24.458 57.125,62c0,0 105.175,-21.667 79.638,26.375c-25.558,48.042 -72.125,24 -72.125,24c0,0 40.558,19.542 12.017,48.083c0,0 -42.104,16.542 -81.158,-19.5c0,0 49.571,78.125 -43.588,76.625c-93.158,-1.5 -100.667,-24.042 -121.758,-31.583l-1501.329,-4.5c0,0 -120.033,-24.042 -62.929,-54.083c57.104,-30.083 70.646,-21.041 70.646,-21.041c0,0 -73.65,-60.125 8.992,-109.708c0,0 -73.629,-100.708 -22.533,-124.75c51.117,-24.042 58.629,43.583 58.629,43.583c0,0 -7.512,-79.042 58.583,-55.291c0,0 -48.071,-90.458 -19.529,-102.5c28.562,-12 82.667,28.542 82.667,28.542c0,0 -84.167,-64.625 -60.129,-76.625c24.075,-12.042 66.137,-1.5 87.167,25.542c0,0 -10.517,-100.708 22.575,-102.208c33.008,-1.5 43.562,48.083 43.562,48.083c0,0 16.525,-130.708 78.117,-90.167c61.629,40.583 21.05,96.208 21.05,96.208c0,0 76.675,-66.125 111.246,3c0,0 27.062,-91.667 60.108,-87.167c33.05,4.5 3.329,92.458 3.329,92.458c0,0 64.271,-45.875 107.879,20.25c0,0 48.071,-67.625 69.142,-1.5c0,0 -19.55,-115.708 76.633,-67.625c0,0 8.992,-109.708 48.071,-112.708c39.117,-3 48.092,117.208 48.092,117.208c0,0 22.575,-58.583 52.596,-46.583c30.104,12.042 4.529,75.125 4.529,75.125c0,0 33.046,-75.125 96.2,-34.542c0,0 -39.096,-108.208 2.988,-121.708c42.079,-13.542 25.537,88.625 25.537,88.625c0,0 34.587,-106.667 61.629,-102.166c27.042,4.5 8.975,73.625 -9.012,97.667c0,0 37.558,-42.083 61.592,-6Z" style="fill:url(#_Linear4);"/><path d="M7966.416,4350.583c126.417,-134 -32.833,-78.375 -32.833,-78.375c34.416,-34.417 50.5,-58.875 55.333,-76.208l-1967.25,0c15.583,49.583 91.792,63.583 91.792,63.583c-12.625,118.791 108.75,40.458 108.75,40.458c-146.666,136.5 40.417,202.208 40.417,202.208c-10.125,139.041 78.333,78.375 78.333,78.375c-42.958,192.125 100.292,65.708 100.292,65.708c-41.25,204.792 134.833,25.292 134.833,25.292c7.583,247.75 265.416,169.375 265.416,169.375c60.667,161.792 166.875,30.417 166.875,30.417c37.875,146.708 83.417,-40.542 83.417,-40.542c93.541,128.917 141.542,-91 141.542,-91c98.583,50.583 199.75,-63.209 199.75,-63.209c60.667,192.125 123.834,-30.333 123.834,-30.333c30.333,139.042 111.208,22.792 111.208,22.792c166.875,85.917 116.292,-60.708 116.292,-60.708c204.792,43 63.209,-113.75 63.209,-113.75c232.583,151.667 118.791,-45.5 118.791,-45.5c136.5,-50.583 0,-98.583 0,-98.583Z" style="fill:#262f15;fill-rule:nonzero;"/><path d="M7649.958,3470.092c0,0 155.125,191.221 57.042,219.379c0,0 -43.292,9.387 -102.667,-28.363c0,0 49.833,97.583 -48.5,121.337c0,0 75.667,230.267 -117.5,142.425c0,0 -106.875,222.563 -164.417,15.621c0,0 -82.958,57.458 -107.833,-33.392c0,0 -195.5,161.042 -231,-25.987c0,0 -190.917,157.421 -92.75,-76.583c0,0 -251.625,146.741 -182.833,-84.013c0,0 -128.792,68.746 -62.792,-52.587c0,0 -212.875,25.925 -16.667,-196.537c0,0 -126,-63 16.917,-93.613c0,0 -35.667,13.846 -90.583,-34.654c0,0 -166.208,179.496 -120.042,13.217c0,0 -167.792,120.138 -112.666,-54.554c0,0 -198.25,135.917 -83.167,-80.108c0,0 -144.875,35.792 -27.167,-111.071c0,0 -148.417,70.908 -40.208,-72.454c0,0 -137.417,-31.963 -10.5,-95.533c0,0 -131.333,-178.959 110.25,-56.788c0,0 -153.916,-136.783 49.167,-117c0,0 -64.667,-136.705 106.208,-71.217c0,0 66,-121.312 110.208,10.183c0,0 37.542,-222.341 116.833,-42.612c0,0 85.833,-121.05 186.791,-82.571c0,0 23.083,-218.267 127.5,-103.317c0,0 24.083,-186.287 76.5,-48.171c0,0 88.875,-138.641 164.958,11.65c0,0 241.542,-103.458 275.291,135.829c0,0 151.542,-192.741 133.375,10.121c0,0 125.375,-137.809 104.208,52.983c0,0 79.292,-68.242 84.333,67.579c0,0 188.292,43.746 60.75,191.683c0,0 109.25,-88.896 109.666,27.6c0,0 150,10.758 84.042,132.091c0,0 165.166,63.646 39.708,149.371c0,0 228.667,103.754 -23.083,91.821c0,0 121.5,180.021 -61.667,138.2c0,0 -17.833,153.229 -173.958,-3.155c0,0 12.25,132.559 -143.75,33.188Z" style="fill:url(#_Linear5);"/><path d="M6989.333,4183.208c0,0 -95.416,2345.75 -98.958,2394.917c0,0 84.875,36.5 299.209,8.417l-94.833,-2403.334l-105.417,0Z" style="fill:#79492a;fill-rule:nonzero;"/><path d="M6939.792,5395.667l201.708,-27.416l-2,-50.125l-196.5,0c-1.042,25.833 -2.125,51.708 -3.208,77.542Z" style="fill:#522c13;fill-rule:nonzero;"/><path d="M6904.917,6242.083l268.916,-55.417l-2.416,-60.667l-260.542,-28.167c-2.083,51.042 -4.083,99.375 -5.958,144.25Z" style="fill:#522c13;fill-rule:nonzero;"/><path d="M6897.166,6425.375l284.667,-35.875l-2.792,-69.708l-276,-33.208c-2.167,52.167 -4.167,98.875 -5.875,138.792Z" style="fill:#522c13;fill-rule:nonzero;"/><path d="M6890.375,6578.125c0,0 84.875,36.5 299.209,8.417l-2.667,-67.875l-290.916,-65.458c-3.125,73.5 -5.125,118.541 -5.625,124.917Z" style="fill:#522c13;fill-rule:nonzero;"/><path d="M7146.833,5503.625l-213.625,53.417c-0.875,21.167 -1.75,42.25 -2.625,63.25l217.792,-78.75l-1.542,-37.917Z" style="fill:#522c13;fill-rule:nonzero;"/><path d="M6922,5829.042c-2.417,58.625 -4.792,115.542 -7.042,170.083l253.875,61.458l-9.875,-250.292l-236.958,18.75Z" style="fill:#522c13;fill-rule:nonzero;"/><path d="M7129.292,5059.125l-173.333,-57.792c-2.834,68.708 -5.708,139.25 -8.625,210.625l186.75,-31.75l-4.792,-121.083Z" style="fill:#522c13;fill-rule:nonzero;"/><path d="M6965.708,4762.208l153.208,34.167l-1.459,-37.25l-150.5,-27.708c-0.417,10.167 -0.833,20.417 -1.25,30.792Z" style="fill:#522c13;fill-rule:nonzero;"/><path d="M6978.458,4449.667l124.542,-57.417l-4.833,-122.25l-113.583,29.708c-1.667,41 -3.75,91.625 -6.125,149.959Z" style="fill:#522c13;fill-rule:nonzero;"/><path d="M7107.917,4517.833l-133.542,32.583c-0.958,23.542 -2,47.917 -3,73.083l139.417,-33.667l-2.875,-72Z" style="fill:#522c13;fill-rule:nonzero;"/><path d="M7103,4970.292c0,0 113.542,-84.333 287.834,-94c131.083,-7.292 540.125,-93.417 502.666,-426.625l-39.875,0c0,0 65.625,370.708 -475.458,396.458c0,0 -170.917,-21.083 -275.167,44.5l0,79.667Z" style="fill:#79492a;fill-rule:nonzero;"/><path d="M7779.5,4695.167c0,0 -436.458,-113.542 -389.666,-425.166l35.208,0c0,0 -45,332.041 375.75,397.875l-21.292,27.292Z" style="fill:#79492a;fill-rule:nonzero;"/><path d="M7390.375,4270.333c0,0 -87.125,186.417 1.375,186.458c0,0 38.333,-2.416 79.667,-45.708c0,0 -19.875,88.458 67.833,84.958c0,0 -11.792,199.25 130.375,86c0,0 139.5,151.792 141.25,-24.917c0,0 82.375,26.625 82.833,-50.833c0,0 199.958,83.042 187.75,-72.917c0,0 195.292,81.208 60.541,-81.584c0,0 243.708,59 134.292,-107.875c0,0 123.333,25.166 40.875,-55.833c0,0 184.166,-27.771 -30.125,-159.234c0,0 91.416,-78.371 -35.209,-70.179c0,0 33,2.854 68.167,-47.958c0,0 179.5,104.279 103.5,-16.746c0,0 167.542,56.992 82.167,-68.671c0,0 196.584,62.529 51.75,-82.213c0,0 129.333,-4.537 -2.208,-93.992c0,0 140.204,22.413 17.412,-66.404c0,0 107.963,-56.442 -12.583,-77.95c0,0 69.833,-171.296 -105.162,-19.917c0,0 98.292,-143.075 -67.333,-81.391c0,0 23.458,-122.767 -105,-32.238c0,0 -82.458,-81 -90.042,33.038c0,0 -81.333,-167.346 -107.416,-7.238c0,0 -99.125,-76.275 -175.042,-22.958c0,0 -68.292,-167.387 -129.959,-52.812c0,0 -62.042,-141.867 -74.958,-20.746c0,0 -105.541,-89.525 -135.583,46.613c0,0 -225.541,-27.104 -200.166,169.821c0,0 -170.208,-118.087 -109.458,38.225c0,0 -135.958,-80.57 -75.458,65.529c0,0 -81.667,-36.004 -55.459,72.55c0,0 -148,77.275 -7.916,165.379c0,0 -111.5,-45.546 -85.75,46.691c0,0 -123.208,42.496 -40.708,123.483c0,0 -124.125,87.771 0.209,127.15c0,0 -168.333,133.875 39.958,67.375c0,0 -61.417,169.917 82.625,95.333c0,0 49.291,117.125 145.041,-41.916c0,0 19.459,107.583 127.916,-6.375Z" style="fill:url(#_Linear6);"/><path d="M7007.792,4111.196c0,0 145.292,212.346 35.667,230.054c0,0 -48,4.708 -107.917,-40.459c0,0 42.416,105.084 -66.959,118.25c0,0 54.5,243.25 -144.292,132.042c0,0 -142.416,214.833 -180,-2.542c0,0 -96.75,49.25 -112.833,-46.167c0,0 -231.125,142.209 -247.209,-52.416c0,0 -225.666,139.042 -91.375,-88.5c0,0 -290.125,121.375 -188.083,-106.167c0,0 -147.709,55.625 -61.75,-60.667c0,0 -233.75,2.5 5.333,-202.246c0,0 -128.958,-78.379 29.583,-93.525c0,0 -40.333,10.104 -94.041,-45.5c0,0 -201.5,164.309 -131.625,0c0,0 -196.167,103.634 -115.542,-68.279c0,0 -231.083,116.3 -80.625,-91c0,0 -161.208,20.242 -16.083,-116.279c0,0 -169.292,55.625 -34.917,-78.358c0,0 -145.125,-48.029 0,-98.596c0,0 -120.958,-197.179 126.25,-45.504c0,0 -150.5,-156.729 67.167,-113.762c0,0 -53.75,-146.617 123.583,-60.667c0,0 86,-116.3 118.208,22.754c0,0 67.167,-222.458 131.667,-30.346c0,0 107.458,-113.746 212.25,-63.196c0,0 51.042,-219.933 150.458,-90.996c0,0 48.334,-187.221 88.625,-40.521c0,0 112.875,-131.383 177.375,30.412c0,0 274.041,-78.363 282.083,169.363c0,0 187.209,-179.475 143.292,25.283c0,0 152.25,-126.4 106.583,65.725c0,0 94.042,-60.658 83.292,78.379c0,0 198.834,65.708 43.042,202.221c0,0 128.916,-78.35 115.458,40.446c0,0 161.209,27.821 75.25,144.092c0,0 171.416,83.433 25.25,156.75c0,0 235.375,131.442 -36,91.004c0,0 110.125,197.179 -83.292,133.971c0,0 -37.625,154.208 -188.042,-22.754c0,0 -2.625,136.504 -159.833,17.7Z" style="fill:url(#_Linear7);"/><path d="M7362.958,6185.75c0,0 23.875,-114.875 76.458,-96.834c52.625,18.042 -9,84.167 -9,84.167c0,0 66.083,-46.583 55.625,21.042c0,0 112.708,-97.667 124.708,-31.541c12,66.125 -63.125,103.708 -63.125,103.708c0,0 53.583,4.5 23.75,51.083c0,0 101,-28.583 102.5,7.5c1.5,36.083 -27.042,39.083 -27.042,39.083c0,0 69.125,-40.583 73.583,0c4.542,40.583 -31.542,39.083 -31.542,39.083c0,0 70.5,-21.667 64.667,39.042c0,0 33.5,-62.542 52.083,-47.042c16.167,13.542 -8.792,86.292 -15.458,104.542c0,0 80.583,-27.5 91.083,-9.875c10.542,17.667 -78.167,52.875 -78.167,52.875c0,0 76.667,-10.542 43.625,41.75c0,0 88.667,-24.458 57.125,62c0,0 105.167,-21.667 79.625,26.375c-25.542,48.042 -72.125,24 -72.125,24c0,0 40.583,19.542 12,48.083c0,0 -42.083,16.542 -81.125,-19.5c0,0 49.583,78.125 -43.583,76.625c-93.167,-1.5 -100.709,-24.042 -121.75,-31.583l-1501.333,-4.5c0,0 -120.042,-24.042 -62.958,-54.083c57.125,-30.083 70.667,-21.041 70.667,-21.041c0,0 -73.625,-60.125 9,-109.708c0,0 -73.667,-100.708 -22.542,-124.75c51.083,-24.042 58.584,43.583 58.584,43.583c0,0 -7.5,-79.042 58.666,-55.291c0,0 -48.125,-90.458 -19.583,-102.5c28.542,-12 82.667,28.542 82.667,28.542c0,0 -84.166,-64.625 -60.125,-76.625c24.042,-12.042 66.125,-1.5 87.167,25.542c0,0 -10.5,-100.708 22.584,-102.208c33,-1.5 43.583,48.083 43.583,48.083c0,0 16.5,-130.708 78.083,-90.167c61.625,40.583 21.084,96.208 21.084,96.208c0,0 76.666,-66.125 111.25,3c0,0 27.042,-91.667 60.084,-87.167c33.041,4.5 3.333,92.458 3.333,92.458c0,0 64.25,-45.875 107.875,20.25c0,0 48.042,-67.625 69.125,-1.5c0,0 -19.583,-115.708 76.625,-67.625c0,0 9,-109.708 48.083,-112.708c39.125,-3 48.125,117.208 48.125,117.208c0,0 22.541,-58.583 52.542,-46.583c30.125,12.042 4.542,75.125 4.542,75.125c0,0 33.041,-75.125 96.208,-34.542c0,0 -39.125,-108.208 3,-121.708c42.084,-13.542 25.542,88.625 25.542,88.625c0,0 34.584,-106.667 61.583,-102.166c27.083,4.5 9.042,73.625 -9,97.667c0,0 37.583,-42.083 61.625,-6Z" style="fill:url(#_Linear8);"/><rect x="2354.787" y="5227.708" width="1493.288" height="1593.333" style="fill:#f0b589;fill-rule:nonzero;"/><path d="M3858.225,5613.708l-10.15,-386l-1493.288,0l0,167.583l1503.438,218.417Z" style="fill:#d99467;fill-rule:nonzero;"/><rect x="2681.908" y="5474.833" width="1067.912" height="838.209" style="fill:#faece3;fill-rule:nonzero;"/><rect x="2732.658" y="5514.625" width="966.412" height="758.583" style="fill:#e4cdbd;fill-rule:nonzero;"/><rect x="2774.417" y="5547.417" width="882.917" height="693.041" style="fill:#187386;fill-rule:nonzero;"/><path d="M3570.817,6205.625l-724.842,34.833l0,-553.833l748.712,-23.875l-23.871,542.875Z" style="fill:#49b5d0;fill-rule:nonzero;"/><rect x="2774.417" y="5759.708" width="882.917" height="44.75" style="fill:#e4cdbd;fill-rule:nonzero;"/><rect x="2626.367" y="6313.042" width="1178.996" height="77.542" style="fill:#faece3;fill-rule:nonzero;"/><rect x="2626.367" y="6350.292" width="1178.996" height="40.292" style="fill:#e4cdbd;fill-rule:nonzero;"/><path d="M2557.142,3825.725c0,1.646 -1.337,2.996 -3.004,2.996l-52.721,0c-1.642,0 -3.004,-1.35 -3.004,-2.996l0,-188.021c0,-1.646 1.362,-2.983 3.004,-2.983l52.721,0c1.667,0 3.004,1.337 3.004,2.983l0,188.021Z" style="fill:#94b3d7;fill-rule:nonzero;"/><path d="M2510.675,3634.721l-9.258,0c-1.642,0 -3.004,1.337 -3.004,2.983l0,141.471l12.262,-144.454Z" style="fill:#bdd5ea;fill-rule:nonzero;"/><path d="M2554.137,3634.721l-14.475,0l-38.308,193.988l0.063,0.012l52.721,0c1.667,0 3.004,-1.35 3.004,-2.996l0,-188.021c0,-1.646 -1.337,-2.983 -3.004,-2.983Z" style="fill:#7092b7;fill-rule:nonzero;"/><path d="M2657.975,3860.833c0,1.542 -1.258,2.804 -2.783,2.804l-49.371,0c-1.583,0 -2.8,-1.262 -2.8,-2.804l0,-176.063c0,-1.542 1.217,-2.791 2.8,-2.791l49.371,0c1.525,0 2.783,1.25 2.783,2.791l0,176.063Z" style="fill:#94b3d7;fill-rule:nonzero;"/><path d="M2614.471,3681.979l-8.65,0c-1.583,0 -2.8,1.25 -2.8,2.791l0,132.467l11.45,-135.258Z" style="fill:#bdd5ea;fill-rule:nonzero;"/><path d="M2655.192,3681.979l-13.558,0l-35.85,181.646l0.037,0.012l49.371,0c1.525,0 2.783,-1.262 2.783,-2.804l0,-176.063c0,-1.542 -1.258,-2.791 -2.783,-2.791Z" style="fill:#7092b7;fill-rule:nonzero;"/><path d="M6800.625,5060.167l-4638.571,0l300.45,-873.625l4338.121,0l0,873.625Z" style="fill:#f68d64;fill-rule:nonzero;"/><path d="M6800.625,5060.167l-4638.571,0l300.45,-873.625l4338.121,0l0,873.625Z" style="fill:#f68d64;fill-rule:nonzero;"/><path d="M2911.546,4692.208l-279.7,-22.584l-193.846,-151.25l282.783,-75.625l220.154,125.291l-29.392,124.167Z" style="fill:#a54631;"/><rect x="2162.054" y="5060.167" width="4638.571" height="88.042" style="fill:#f6f0d2;fill-rule:nonzero;"/><path d="M6800.625,4424.917l0,-238.375l-1760.833,0c560.375,42 1571.541,129.5 1760.833,238.375Z" style="fill:#d7654d;fill-rule:nonzero;"/><path d="M4286.5,4931.5c-954.112,0 -1755.446,-123.542 -1980.229,-290.625l-144.217,419.292l4638.571,0l-0,-394.167c-267.959,154.167 -1608.5,265.5 -2514.125,265.5Z" style="fill:#d7654d;fill-rule:nonzero;"/><path d="M3533.179,4186.542l-1070.675,0l-74.221,215.875c207.875,-98.375 623.708,-176.791 1144.896,-215.875Z" style="fill:#d7654d;fill-rule:nonzero;"/><rect x="2227.808" y="5148.208" width="4572.817" height="79.5" style="fill:#d8c58a;fill-rule:nonzero;"/><path d="M2409.5,4977.5c4.362,-17.083 9.275,-36.333 14.392,-57.417c10.271,-42.125 22.613,-91.167 35.242,-143.875c6.271,-26.375 12.787,-53.625 19.367,-81.292c6.537,-27.666 13.154,-55.791 19.729,-83.958c6.558,-28.167 13.054,-56.333 19.45,-84.042c6.333,-27.75 12.546,-55.042 18.575,-81.458c6.067,-26.417 11.629,-52.042 16.967,-76.25c5.383,-24.291 10.438,-47.208 15.083,-68.375c4.754,-21.166 8.854,-40.583 12.508,-57.833c3.692,-17.25 6.879,-32.25 9.5,-44.625c0.871,-4.292 1.704,-8.208 2.479,-11.833l-1.425,0c-0.933,3.5 -1.908,7.292 -2.962,11.375c-3.129,12.25 -6.904,27.125 -11.246,44.208c-4.346,17.083 -9.258,36.333 -14.375,57.417c-5.196,21.041 -10.758,43.875 -16.725,67.958c-5.929,24.167 -12.262,49.542 -18.475,75.917c-6.333,26.375 -12.829,53.625 -19.446,81.291c-6.496,27.667 -13.133,55.792 -19.775,83.959c-6.496,28.166 -12.992,56.291 -19.404,84.042c-6.317,27.75 -12.525,55.042 -18.575,81.458c-12,52.833 -22.637,102.292 -32.075,144.625c-4.729,21.166 -8.829,40.583 -12.483,57.833c-3.658,17.208 -6.863,32.25 -9.5,44.625c-5.117,24.792 -8.042,38.917 -8.042,38.917c0,0 3.613,-13.958 9.988,-38.459c3.125,-12.25 6.904,-27.125 11.229,-44.208Z" style="fill:#4a160c;fill-rule:nonzero;"/><path d="M2709.392,4977.458c3.858,-17.125 8.204,-36.375 12.691,-57.458c9.071,-42.125 19.975,-91.208 31.038,-143.917c5.521,-26.375 11.246,-53.625 17.033,-81.292c5.704,-27.708 11.508,-55.833 17.354,-83.958c5.642,-28.167 11.329,-56.333 16.929,-84.042c5.504,-27.75 10.946,-55.042 16.2,-81.458c5.279,-26.417 10.113,-52 14.742,-76.25c4.667,-24.25 9.05,-47.166 13.092,-68.333c4.121,-21.166 7.696,-40.583 10.821,-57.833c3.167,-17.208 5.925,-32.209 8.179,-44.584c0.792,-4.25 1.483,-8.208 2.113,-11.791l-1.421,0c-0.792,3.5 -1.646,7.292 -2.617,11.417c-2.763,12.25 -6.092,27.167 -9.95,44.208c-3.838,17.083 -8.158,36.375 -12.688,57.417c-4.566,21.083 -9.521,43.916 -14.717,68.041c-5.238,24.125 -10.842,49.542 -16.321,75.917c-5.525,26.375 -11.25,53.625 -16.971,81.292c-5.767,27.667 -11.55,55.833 -17.358,83.958c-5.704,28.167 -11.387,56.333 -16.992,84.042c-5.521,27.75 -10.962,55.042 -16.2,81.459c-10.433,52.833 -19.65,102.25 -27.85,144.583c-4.1,21.125 -7.675,40.584 -10.8,57.833c-3.167,17.208 -5.908,32.209 -8.2,44.583c-4.388,24.75 -6.946,38.875 -6.946,38.875c0,0 3.292,-14 8.892,-38.5c2.763,-12.25 6.129,-27.167 9.946,-44.209Z" style="fill:#4a160c;fill-rule:nonzero;"/><path d="M3009.308,4977.375c3.329,-17.083 7.108,-36.375 11.025,-57.458c7.812,-42.125 17.275,-91.25 26.817,-143.958c4.75,-26.375 9.663,-53.625 14.658,-81.292c4.913,-27.708 9.904,-55.833 14.859,-84c4.871,-28.167 9.746,-56.291 14.554,-84.042c4.692,-27.708 9.317,-55 13.804,-81.417c4.488,-26.417 8.588,-52 12.525,-76.208c3.942,-24.25 7.675,-47.166 11.083,-68.333c3.533,-21.125 6.517,-40.542 9.117,-57.792c2.679,-17.208 4.971,-32.209 6.879,-44.542c0.65,-4.292 1.262,-8.208 1.788,-11.791l-1.379,0c-0.692,3.5 -1.463,7.333 -2.333,11.458c-2.375,12.25 -5.279,27.125 -8.629,44.25c-3.329,17.083 -7.146,36.375 -11.042,57.417c-3.942,21.083 -8.242,43.916 -12.75,68.083c-4.488,24.125 -9.379,49.583 -14.05,75.917c-4.792,26.375 -9.658,53.625 -14.696,81.292c-4.891,27.708 -9.908,55.833 -14.858,84c-4.871,28.125 -9.746,56.292 -14.538,84c-4.667,27.75 -9.337,55.042 -13.783,81.458c-8.95,52.833 -16.708,102.208 -23.667,144.542c-3.517,21.125 -6.479,40.542 -9.137,57.792c-2.658,17.208 -4.954,32.208 -6.863,44.542c-3.712,24.75 -5.825,38.875 -5.825,38.875c0,0 2.821,-14 7.754,-38.542c2.417,-12.25 5.321,-27.167 8.688,-44.25Z" style="fill:#4a160c;fill-rule:nonzero;"/><path d="M3309.188,4977.333c2.863,-17.125 6.087,-36.375 9.375,-57.458c6.579,-42.167 14.621,-91.292 22.617,-144.042c3.979,-26.375 8.079,-53.625 12.262,-81.292c4.1,-27.708 8.258,-55.833 12.421,-84c4.062,-28.166 8.1,-56.333 12.1,-84c3.858,-27.75 7.713,-55.042 11.408,-81.459c3.754,-26.417 7.104,-51.958 10.313,-76.208c3.271,-24.209 6.292,-47.125 9.133,-68.292c2.862,-21.125 5.3,-40.542 7.429,-57.75c2.154,-17.208 4.042,-32.208 5.608,-44.542c0.525,-4.25 0.975,-8.167 1.4,-11.75l-1.4,0c-0.612,3.5 -1.262,7.333 -1.95,11.458c-2.029,12.291 -4.529,27.167 -7.392,44.292c-2.821,17.083 -6.087,36.417 -9.337,57.5c-3.371,21.042 -6.963,43.875 -10.8,68.042c-3.775,24.125 -7.896,49.583 -11.833,75.958c-3.958,26.375 -8.1,53.625 -12.283,81.292c-4.121,27.708 -8.283,55.875 -12.421,84c-4.042,28.167 -8.104,56.292 -12.083,84.042c-3.917,27.708 -7.729,55 -11.429,81.417c-7.429,52.792 -13.721,102.208 -19.446,144.5c-2.883,21.125 -5.275,40.542 -7.429,57.75c-2.171,17.208 -4.021,32.208 -5.604,44.542c-2.962,24.708 -4.646,38.833 -4.646,38.833c0,0 2.392,-14 6.596,-38.542c2.071,-12.292 4.546,-27.208 7.392,-44.292Z" style="fill:#4a160c;fill-rule:nonzero;"/><path d="M3609.058,4977.292c2.4,-17.125 5.037,-36.417 7.696,-57.542c5.379,-42.125 11.958,-91.292 18.413,-144.042c3.229,-26.375 6.537,-53.625 9.925,-81.333c3.312,-27.708 6.6,-55.833 9.971,-83.958c3.204,-28.167 6.454,-56.333 9.621,-84.042c3.088,-27.75 6.092,-55.042 9.054,-81.416c2.962,-26.375 5.562,-51.959 8.079,-76.167c2.579,-24.25 4.954,-47.125 7.146,-68.292c2.275,-21.125 4.1,-40.542 5.767,-57.708c1.662,-17.208 3.083,-32.167 4.304,-44.542c0.346,-4.208 0.729,-8.125 1.054,-11.708l-1.4,0c-0.508,3.5 -1.038,7.333 -1.604,11.458c-1.704,12.333 -3.737,27.25 -6.092,44.333c-2.354,17.125 -4.992,36.417 -7.692,57.5c-2.7,21.125 -5.663,43.917 -8.792,68.084c-3.104,24.166 -6.454,49.625 -9.642,76c-3.229,26.375 -6.517,53.625 -9.908,81.333c-3.308,27.708 -6.638,55.833 -9.967,83.958c-3.246,28.167 -6.454,56.333 -9.621,84.042c-3.088,27.708 -6.133,55 -9.096,81.417c-5.825,52.792 -10.721,102.167 -15.225,144.458c-2.254,21.125 -4.079,40.5 -5.725,57.708c-1.662,17.208 -3.083,32.167 -4.304,44.542c-2.233,24.708 -3.529,38.792 -3.529,38.792c0,0 2.029,-14 5.5,-38.583c1.683,-12.292 3.717,-27.167 6.067,-44.292Z" style="fill:#4a160c;fill-rule:nonzero;"/><path d="M3908.979,4977.208c1.867,-17.083 3.933,-36.417 5.966,-57.5c4.142,-42.208 9.317,-91.375 14.229,-144.125c2.5,-26.375 4.996,-53.667 7.571,-81.333c2.479,-27.708 4.996,-55.833 7.513,-84c2.396,-28.166 4.792,-56.333 7.146,-84.041c2.313,-27.708 4.546,-55 6.721,-81.375c2.213,-26.417 4.037,-51.958 5.866,-76.167c1.825,-24.208 3.571,-47.125 5.117,-68.25c1.662,-21.125 2.942,-40.5 4.1,-57.708c1.175,-17.167 2.108,-32.167 3,-44.5c0.246,-4.208 0.471,-8.083 0.696,-11.666l-1.342,0c-0.425,3.542 -0.875,7.333 -1.342,11.5c-1.317,12.291 -2.921,27.25 -4.787,44.375c-1.829,17.084 -3.942,36.417 -6.012,57.542c-2.092,21.042 -4.362,43.917 -6.779,68.083c-2.396,24.125 -5.033,49.625 -7.429,76c-2.437,26.375 -4.954,53.625 -7.554,81.333c-2.496,27.708 -5.013,55.833 -7.529,84c-2.375,28.167 -4.771,56.292 -7.167,84.042c-2.275,27.708 -4.529,54.958 -6.679,81.375c-4.325,52.792 -7.754,102.125 -11.025,144.417c-1.642,21.083 -2.962,40.5 -4.075,57.667c-1.121,17.208 -2.154,32.167 -2.946,44.5c-1.546,24.708 -2.437,38.792 -2.437,38.792c0,0 1.583,-14.042 4.387,-38.625c1.296,-12.292 2.921,-27.208 4.792,-44.333Z" style="fill:#4a160c;fill-rule:nonzero;"/><path d="M4208.833,4977.167c1.375,-17.125 2.917,-36.458 4.333,-57.542c2.875,-42.208 6.667,-91.416 10.042,-144.167c1.625,-26.417 3.375,-53.667 5.167,-81.375c1.667,-27.708 3.375,-55.833 5.042,-83.958c1.625,-28.167 3.167,-56.291 4.75,-84.042c1.458,-27.708 2.917,-55 4.292,-81.375c1.458,-26.417 2.542,-51.917 3.667,-76.125c1.125,-24.208 2.167,-47.125 3.125,-68.25c1.042,-21.125 1.792,-40.5 2.417,-57.667c0.667,-17.167 1.25,-32.125 1.667,-44.459c0.167,-4.208 0.292,-8.083 0.417,-11.666l-1.375,0c-0.292,3.542 -0.625,7.375 -0.958,11.542c-1,12.291 -2.167,27.25 -3.5,44.375c-1.375,17.125 -2.917,36.458 -4.292,57.542c-1.5,21.083 -3.166,43.959 -4.833,68.125c-1.708,24.167 -3.583,49.667 -5.25,76.042c-1.667,26.375 -3.375,53.667 -5.167,81.375c-1.708,27.667 -3.375,55.833 -5.083,83.958c-1.583,28.167 -3.167,56.333 -4.708,84.042c-1.458,27.708 -2.917,55 -4.333,81.375c-2.792,52.792 -4.75,102.125 -6.792,144.375c-1.042,21.083 -1.792,40.458 -2.375,57.667c-0.708,17.167 -1.25,32.125 -1.708,44.459c-0.833,24.667 -1.25,38.75 -1.25,38.75c0,0 1.125,-14.042 3.208,-38.625c0.958,-12.292 2.166,-27.25 3.5,-44.375Z" style="fill:#4a160c;fill-rule:nonzero;"/><path d="M4508.708,4977.125c0.875,-17.167 1.834,-36.5 2.667,-57.583c1.708,-42.208 3.959,-91.458 5.833,-144.25c0.917,-26.375 1.833,-53.625 2.75,-81.333c0.917,-27.708 1.791,-55.833 2.667,-84c0.75,-28.167 1.5,-56.292 2.25,-84c0.667,-27.708 1.292,-55 1.958,-81.375c0.667,-26.417 1,-51.917 1.459,-76.125c0.375,-24.208 0.791,-47.083 1.125,-68.208c0.417,-21.083 0.583,-40.458 0.708,-57.625c0.167,-17.167 0.292,-32.125 0.417,-44.459c0,-4.208 0.042,-8.083 0.042,-11.625l-1.375,0c-0.167,3.542 -0.417,7.375 -0.667,11.583c-0.583,12.291 -1.333,27.25 -2.167,44.375c-0.875,17.125 -1.791,36.5 -2.667,57.584c-0.833,21.125 -1.833,43.958 -2.791,68.167c-1.042,24.166 -2.167,49.667 -3,76.083c-0.917,26.375 -1.834,53.625 -2.834,81.333c-0.875,27.708 -1.75,55.875 -2.625,84c-0.75,28.167 -1.5,56.292 -2.25,84c-0.666,27.708 -1.333,55 -1.958,81.375c-1.208,52.792 -1.791,102.083 -2.625,144.333c-0.375,21.083 -0.542,40.458 -0.667,57.625c-0.166,17.167 -0.333,32.125 -0.417,44.458c-0.083,24.625 -0.125,38.708 -0.125,38.708c0,0 0.791,-14.042 2.083,-38.667c0.666,-12.292 1.417,-27.25 2.208,-44.375Z" style="fill:#4a160c;fill-rule:nonzero;"/><path d="M4808.625,4977.042c0.334,-17.125 0.75,-36.5 0.959,-57.583c0.458,-42.25 1.291,-91.5 1.625,-144.25c0.125,-26.417 0.25,-53.667 0.417,-81.375c0.083,-27.708 0.125,-55.875 0.166,-84.042c-0.042,-28.125 -0.083,-56.292 -0.166,-84c-0.167,-27.708 -0.292,-54.958 -0.417,-81.375c-0.083,-26.375 -0.5,-51.875 -0.791,-76.083c-0.291,-24.167 -0.583,-47.042 -0.833,-68.167c-0.209,-21.084 -0.625,-40.459 -1,-57.584c-0.334,-17.167 -0.625,-32.125 -0.917,-44.458c-0.083,-4.167 -0.166,-8.042 -0.25,-11.583l-1.375,0c-0.125,3.542 -0.208,7.417 -0.291,11.583c-0.25,12.333 -0.583,27.291 -0.875,44.458c-0.417,17.125 -0.792,36.5 -1,57.584c-0.292,21.125 -0.542,44 -0.834,68.167c-0.333,24.208 -0.667,49.708 -0.791,76.083c-0.125,26.417 -0.25,53.667 -0.458,81.375c-0.042,27.708 -0.125,55.875 -0.125,84c0,28.167 0.083,56.333 0.125,84.042c0.208,27.708 0.333,54.958 0.458,81.375c0.291,52.75 1.166,102 1.625,144.25c0.166,21.083 0.583,40.458 0.958,57.583c0.333,17.167 0.666,32.125 0.917,44.458c0.625,24.625 0.958,38.667 0.958,38.667c0,0 0.375,-14.042 1.042,-38.667c0.209,-12.333 0.5,-27.292 0.875,-44.458Z" style="fill:#4a160c;fill-rule:nonzero;"/><path d="M5108.458,4977c-0.083,-17.167 -0.209,-36.542 -0.667,-57.625c-0.833,-42.25 -1.375,-91.542 -2.583,-144.333c-0.625,-26.375 -1.333,-53.667 -1.958,-81.375c-0.75,-27.708 -1.5,-55.833 -2.292,-84c-0.875,-28.125 -1.75,-56.292 -2.625,-84c-0.958,-27.708 -1.875,-54.959 -2.791,-81.333c-0.875,-26.417 -2,-51.917 -3,-76.083c-1,-24.209 -1.958,-47.042 -2.833,-68.167c-0.792,-21.084 -1.792,-40.459 -2.667,-57.584c-0.792,-17.125 -1.542,-32.083 -2.167,-44.375c-0.209,-4.208 -0.417,-8.042 -0.625,-11.583l-1.375,0c0.042,3.542 0.042,7.417 0.083,11.625c0.083,12.334 0.208,27.292 0.375,44.459c0.083,17.167 0.25,36.542 0.667,57.625c0.375,21.125 0.75,44 1.166,68.208c0.417,24.209 0.792,49.709 1.417,76.125c0.666,26.375 1.291,53.667 1.958,81.375c0.75,27.708 1.5,55.833 2.292,84c0.875,28.166 1.75,56.291 2.625,84c0.958,27.708 1.875,54.958 2.791,81.333c1.792,52.792 4.167,102.042 5.833,144.25c0.791,21.083 1.75,40.417 2.625,57.583c0.833,17.125 1.625,32.083 2.208,44.375c1.333,24.625 2.083,38.667 2.083,38.667c0,0 -0.042,-14.083 -0.125,-38.708c-0.083,-12.333 -0.209,-27.292 -0.417,-44.458Z" style="fill:#4a160c;fill-rule:nonzero;"/><path d="M5408.375,4976.958c-0.625,-17.208 -1.375,-36.583 -2.416,-57.667c-2,-42.25 -4,-91.584 -6.792,-144.375c-1.375,-26.375 -2.834,-53.667 -4.292,-81.375c-1.583,-27.708 -3.167,-55.875 -4.75,-84.042c-1.667,-28.125 -3.375,-56.291 -5.083,-83.958c-1.75,-27.708 -3.5,-55 -5.167,-81.375c-1.625,-26.375 -3.5,-51.875 -5.208,-76.042c-1.708,-24.166 -3.334,-47.042 -4.833,-68.125c-1.417,-21.084 -2.916,-40.416 -4.333,-57.542c-1.375,-17.125 -2.5,-32.083 -3.416,-44.375c-0.417,-4.167 -0.709,-8 -1,-11.542l-1.375,0c0.125,3.583 0.209,7.458 0.375,11.666c0.458,12.334 1,27.292 1.666,44.459c0.667,17.167 1.375,36.542 2.375,57.667c1.042,21.125 2.083,44.042 3.167,68.25c1.125,24.209 2.25,49.709 3.667,76.125c1.417,26.375 2.833,53.667 4.292,81.375c1.583,27.75 3.166,55.875 4.75,84.042c1.708,28.125 3.417,56.25 5.042,83.958c1.791,27.708 3.542,54.958 5.208,81.375c3.375,52.75 7.083,101.958 10.041,144.167c1.417,21.084 2.917,40.417 4.333,57.542c1.334,17.125 2.5,32.083 3.458,44.375c2.083,24.583 3.292,38.625 3.292,38.625c0,0 -0.5,-14.083 -1.333,-38.75c-0.458,-12.333 -1,-27.292 -1.667,-44.459Z" style="fill:#4a160c;fill-rule:nonzero;"/><path d="M6280.833,4976.875c-1.167,-17.167 -2.458,-36.583 -4.083,-57.667c-3.25,-42.292 -6.708,-91.625 -11,-144.417c-2.167,-26.417 -4.417,-53.667 -6.667,-81.375c-2.375,-27.75 -4.792,-55.875 -7.209,-84.042c-2.542,-28.167 -5,-56.292 -7.5,-84c-2.583,-27.708 -5.125,-54.958 -7.584,-81.333c-2.416,-26.375 -5,-51.875 -7.375,-76c-2.459,-24.166 -4.708,-47.041 -6.875,-68.083c-2,-21.125 -4.125,-40.458 -5.959,-57.542c-1.833,-17.125 -3.458,-32.083 -4.792,-44.375c-0.458,-4.167 -0.917,-7.958 -1.291,-11.5l-1.375,0c0.209,3.583 0.459,7.458 0.709,11.666c0.834,12.334 1.834,27.334 3,44.5c1.125,17.208 2.417,36.583 4.084,57.708c1.583,21.125 3.291,44.042 5.083,68.25c1.875,24.209 3.667,49.75 5.916,76.167c2.167,26.375 4.417,53.667 6.709,81.375c2.333,27.708 4.75,55.875 7.125,84.041c2.542,28.167 5.083,56.292 7.583,84c2.542,27.667 5.042,54.958 7.5,81.333c4.916,52.75 10.084,101.917 14.25,144.125c2.042,21.083 4.083,40.417 6,57.5c1.833,17.125 3.416,32.042 4.792,44.333c2.75,24.583 4.333,38.625 4.333,38.625c0,0 -0.833,-14.083 -2.375,-38.792c-0.875,-12.333 -1.833,-27.292 -3,-44.5Z" style="fill:#4a160c;fill-rule:nonzero;"/><path d="M6580.708,4976.833c-1.625,-17.208 -3.5,-36.583 -5.792,-57.708c-4.458,-42.292 -9.333,-91.667 -15.208,-144.458c-2.916,-26.417 -5.916,-53.708 -9.041,-81.417c-3.167,-27.708 -6.417,-55.875 -9.625,-84.042c-3.333,-28.125 -6.708,-56.25 -9.958,-83.958c-3.375,-27.708 -6.75,-54.958 -9.917,-81.333c-3.208,-26.375 -6.583,-51.834 -9.666,-76c-3.125,-24.167 -6.041,-46.958 -8.792,-68.084c-2.625,-21.083 -5.333,-40.375 -7.667,-57.5c-2.334,-17.084 -4.417,-32 -6.084,-44.333c-0.583,-4.125 -1.125,-7.958 -1.625,-11.458l-1.375,0c0.291,3.583 0.667,7.5 1.042,11.708c1.208,12.375 2.667,27.334 4.333,44.542c1.625,17.167 3.458,36.583 5.708,57.708c2.208,21.166 4.583,44.041 7.125,68.292c2.542,24.208 5.125,49.791 8.125,76.167c2.917,26.375 5.959,53.667 9.042,81.416c3.167,27.708 6.417,55.875 9.625,84.042c3.333,28.125 6.667,56.25 9.958,83.958c3.375,27.708 6.709,54.958 9.917,81.333c6.459,52.75 13.042,101.917 18.459,144.042c2.625,21.125 5.292,40.417 7.708,57.542c2.334,17.125 4.333,32 6,44.292c3.542,24.583 5.541,38.583 5.541,38.583c0,0 -1.292,-14.083 -3.542,-38.792c-1.208,-12.375 -2.625,-27.333 -4.292,-44.542Z" style="fill:#4a160c;fill-rule:nonzero;"/><rect x="2438" y="3766.629" width="150.708" height="751.746" style="fill:#711631;fill-rule:nonzero;"/><path d="M2720.783,4442.75l-132.075,75.625l0,-751.746l132.075,50.792l0,625.329Z" style="fill:#5d0327;fill-rule:nonzero;"/><path d="M2720.783,4442.75l0,-45.125l-132.075,-630.996l0,751.746l132.075,-75.625Z" style="fill:#3f011b;fill-rule:nonzero;"/><rect x="4811.791" y="5227.708" width="1969.917" height="1593.333" style="fill:#f0b589;fill-rule:nonzero;"/><path d="M2657.975,6390.583l1065.946,238.958l0,-238.958l-1065.946,0Z" style="fill:#d99467;fill-rule:nonzero;"/><path d="M6800.583,6821.042l-2194.459,0l-14.333,-2004.667l934.041,-859.513l1274.792,1191.346l-0.042,1672.833Z" style="fill:#f0b589;fill-rule:nonzero;"/><path d="M6800.583,6406.792l-1957.458,-1302.583l-246.583,377.083l9.583,1339.75l2194.459,0l0,-414.25Z" style="fill:#d99467;fill-rule:nonzero;"/><path d="M6259.208,6385.75l-1314.583,0l654.125,435.292l1201.834,0l0.042,-64.5l-541.417,-370.791Z" style="fill:#c77f52;fill-rule:nonzero;"/><rect x="5004.208" y="5474.833" width="1192.958" height="838.209" style="fill:#faece3;fill-rule:nonzero;"/><rect x="5060.875" y="5514.625" width="1079.625" height="758.583" style="fill:#e4cdbd;fill-rule:nonzero;"/><rect x="5107.542" y="5547.417" width="986.333" height="693.041" style="fill:#187386;fill-rule:nonzero;"/><path d="M5997.208,6205.625l-809.708,34.833l0,-553.833l836.375,-23.875l-26.667,542.875Z" style="fill:#49b5d0;fill-rule:nonzero;"/><rect x="5107.542" y="5759.708" width="986.333" height="44.75" style="fill:#e4cdbd;fill-rule:nonzero;"/><rect x="4942.208" y="6313.042" width="1317" height="77.542" style="fill:#faece3;fill-rule:nonzero;"/><rect x="4942.208" y="6350.292" width="1317" height="40.292" style="fill:#e4cdbd;fill-rule:nonzero;"/><path d="M5525.833,4259l1274.792,1191.375l0,-302.166l-1274.792,-1191.346l-934.041,859.513l2.125,300.167l931.916,-857.541Z" style="fill:#d99467;fill-rule:nonzero;"/><path d="M4623.917,4851.25l902.042,-830.088l1273.792,1162.088l63.875,-70.042l-1337.917,-1220.642l-966,888.934l64.208,69.75Z" style="fill:#f6f0d2;fill-rule:nonzero;"/><path d="M4868.959,6876.917l-1145.038,0l0,-1728.708l572.496,-524.875l572.542,524.875l0,1728.708Z" style="fill:#feddc5;fill-rule:nonzero;"/><path d="M4606.833,5570.625l-58.792,1306.292l320.917,0l0,-1214.167l-175.292,-141.25l-86.833,49.125Z" style="fill:#e4ae8d;fill-rule:nonzero;"/><path d="M4868.959,5317.542l0,-169.333l-572.542,-524.875l-572.496,524.875l0,169.333l571.538,-467l573.5,467Z" style="fill:#e4ae8d;fill-rule:nonzero;"/><path d="M3680.892,5230.5l615.483,-566.375l613.667,566.333l64.291,-69.667l-677.875,-625.625l-679.771,625.584l64.204,69.75Z" style="fill:#f6f0d2;fill-rule:nonzero;"/><rect x="3940.2" y="5598.625" width="712.467" height="1196.042" style="fill:#faece3;fill-rule:nonzero;"/><rect x="3940.2" y="5598.625" width="712.467" height="24.333" style="fill:#e8d1c4;fill-rule:nonzero;"/><rect x="3954.817" y="5613.208" width="683.267" height="1181.458" style="fill:#e8d1c4;fill-rule:nonzero;"/><path d="M3969.433,5636.333l668.65,0l0,-23.125l-683.267,0l0,1181.458l14.617,0l0,-1158.333Z" style="fill:#b6998c;fill-rule:nonzero;"/><rect x="4015.675" y="5669.208" width="590.7" height="1125.458" style="fill:#c8b3a6;fill-rule:nonzero;"/><rect x="4001.058" y="5669.208" width="590.733" height="1125.458" style="fill:#faece3;fill-rule:nonzero;"/><rect x="4022.983" y="5691.125" width="546.892" height="1103.542" style="fill:#c15b40;fill-rule:nonzero;"/><rect x="4518.333" y="6297.667" width="34.917" height="118.458" style="fill:#973c29;fill-rule:nonzero;"/><path d="M4055.425,5720.333l514.45,0l0,-29.208l-546.892,0l0,1103.542l32.442,0l0,-1074.333Z" style="fill:#973c29;fill-rule:nonzero;"/><path d="M4518.333,6393.875l-435.729,-21.166l21.925,-604.458l391.888,-21.167l10.125,34.208l11.792,612.583Z" style="fill:#973c29;fill-rule:nonzero;"/><rect x="4082.604" y="5747.083" width="413.813" height="625.625" style="fill:#c15b40;fill-rule:nonzero;"/><rect x="4108.933" y="5786.875" width="361.192" height="546.042" style="fill:#187386;fill-rule:nonzero;"/><path d="M4422.208,6301.292l-282.379,16.25l-8.138,-460.917l313.225,-42.167l-22.709,486.833Z" style="fill:#49b5d0;fill-rule:nonzero;"/><rect x="4089.529" y="6411.667" width="406.888" height="246.625" style="fill:#973c29;fill-rule:nonzero;"/><rect x="4102.904" y="6419.75" width="380.179" height="230.458" style="fill:#c15b40;fill-rule:nonzero;"/><path d="M4116.283,6437.625l366.8,0l0,-17.875l-380.179,0l0,230.458l13.379,0l0,-212.583Z" style="fill:#d26951;fill-rule:nonzero;"/><rect x="4204.333" y="5786.875" width="19.5" height="546.042" style="fill:#c15b40;fill-rule:nonzero;"/><rect x="4355.25" y="5786.875" width="19.459" height="546.042" style="fill:#c15b40;fill-rule:nonzero;"/><rect x="4108.933" y="5882.208" width="361.192" height="21.083" style="fill:#c15b40;fill-rule:nonzero;"/><rect x="4108.933" y="6049.375" width="361.192" height="21.083" style="fill:#c15b40;fill-rule:nonzero;"/><rect x="4108.933" y="6216.5" width="361.192" height="21.084" style="fill:#c15b40;fill-rule:nonzero;"/><rect x="4518.333" y="6288.333" width="34.917" height="118.458" style="fill:#f0a63e;fill-rule:nonzero;"/><path d="M4553.25,6325.5c-1.875,-7.917 -8.958,-13.875 -17.459,-13.875c-8.5,0 -15.583,5.958 -17.458,13.875l0,8.167c1.875,7.958 8.958,13.875 17.458,13.875c8.5,0 15.583,-5.917 17.459,-13.875l0,-8.167Z" style="fill:#c07d29;fill-rule:nonzero;"/><path d="M4553.75,6318.833c0,9.916 -8.042,17.958 -17.959,17.958c-9.875,0 -17.916,-8.042 -17.916,-17.958c0,-9.917 8.041,-17.917 17.916,-17.917c9.917,0 17.959,8 17.959,17.917Z" style="fill:#fdc174;fill-rule:nonzero;"/><path d="M4535.958,6336.792l0.042,0l-0.042,0Zm0.209,0l0.041,0l-0.041,0Zm0.375,0l0.042,0l-0.042,0Z" style="fill:#c87a29;fill-rule:nonzero;"/><path d="M4517.875,6318.833l0,-0.25l0,0.25Zm0,-0.25c0,-1.333 0.166,-2.666 0.458,-3.916c-0.292,1.25 -0.458,2.583 -0.458,3.916Z" style="fill:#c9613a;fill-rule:nonzero;"/><path d="M4518.333,6314.667c0.791,-3.25 2.416,-6.125 4.667,-8.417c-2.25,2.292 -3.875,5.167 -4.667,8.417Z" style="fill:#e99538;fill-rule:nonzero;"/><path d="M4535.792,6336.792c-9.875,0 -17.916,-8.042 -17.916,-17.958l0,-0.25c0,-1.333 0.166,-2.666 0.458,-3.916c0.791,-3.25 2.416,-6.125 4.667,-8.417c-0.5,1.75 -0.875,3.5 -0.875,5.375c0,9.917 8,17.958 17.958,17.958c5,0 9.5,-2.042 12.75,-5.333c-2.208,7 -8.584,12.208 -16.25,12.542l-0.792,0Z" style="fill:#f1a65b;fill-rule:nonzero;"/><path d="M4539.625,6380.792c0,2.125 -1.708,3.833 -3.834,3.833c-2.083,0 -3.833,-1.708 -3.833,-3.833l0,-20.875c0,-2.167 1.75,-3.875 3.833,-3.875c2.125,0 3.834,1.708 3.834,3.875l0,20.875Z" style="fill:#4c080f;fill-rule:nonzero;"/><rect x="3914.254" y="5560.458" width="764.329" height="38.167" style="fill:#faece3;fill-rule:nonzero;"/><path d="M4692.417,5560.458l-791.967,0l-27.567,-37.333l0,-18.667l847.117,0l0,17.875l-27.583,38.125Z" style="fill:#faece3;fill-rule:nonzero;"/><path d="M4710,5536.125l10,-13.792l0,-17.875l-847.117,0l0,18.667l9.583,13l827.533,0Z" style="fill:#b6998c;fill-rule:nonzero;"/><rect x="3872.883" y="5504.458" width="847.117" height="17.042" style="fill:#faece3;fill-rule:nonzero;"/><rect x="3914.254" y="5560.458" width="764.329" height="10.167" style="fill:#b6998c;fill-rule:nonzero;"/><rect x="3860.704" y="6794.667" width="871.463" height="94.083" style="fill:#8da2b0;fill-rule:nonzero;"/><rect x="3860.704" y="6794.667" width="871.463" height="14.583" style="fill:#a3bcca;fill-rule:nonzero;"/><path d="M5852.25,4922.375c0,183.875 -149.042,332.875 -332.875,332.875c-183.833,0 -332.875,-149 -332.875,-332.875c0,-183.833 149.042,-332.833 332.875,-332.833c183.833,0 332.875,149 332.875,332.833Z" style="fill:#d99467;fill-rule:nonzero;"/><path d="M5852.25,4872.917c0,183.792 -149.042,332.833 -332.875,332.833c-183.833,0 -332.875,-149.042 -332.875,-332.833c0,-183.875 149.042,-332.875 332.875,-332.875c183.833,0 332.875,149 332.875,332.875Z" style="fill:#faece3;fill-rule:nonzero;"/><path d="M5803.458,4872.917c0,156.875 -127.166,284.083 -284.083,284.083c-156.875,0 -284.084,-127.208 -284.084,-284.083c0,-156.917 127.208,-284.125 284.084,-284.125c156.917,0 284.083,127.208 284.083,284.125Z" style="fill:#e8d1c4;fill-rule:nonzero;"/><path d="M5769.625,4872.917c0,138.167 -112.042,250.208 -250.25,250.208c-138.167,0 -250.25,-112.042 -250.25,-250.208c0,-138.208 112.083,-250.25 250.25,-250.25c138.208,0 250.25,112.042 250.25,250.25Z" style="fill:#faece3;fill-rule:nonzero;"/><path d="M5737.125,4872.917c0,120.208 -97.5,217.708 -217.75,217.708c-120.25,0 -217.708,-97.5 -217.708,-217.708c0,-120.292 97.458,-217.75 217.708,-217.75c120.25,0 217.75,97.458 217.75,217.75Z" style="fill:#187386;fill-rule:nonzero;"/><path d="M5519.375,4679.917c116.083,0 210.958,90.875 217.375,205.333c0.209,-4.083 0.375,-8.208 0.375,-12.333c0,-120.292 -97.5,-217.75 -217.75,-217.75c-120.25,0 -217.708,97.458 -217.708,217.75c0,4.125 0.125,8.25 0.333,12.333c6.417,-114.458 101.334,-205.333 217.375,-205.333Z" style="fill:#0b5c67;fill-rule:nonzero;"/><path d="M5519.375,4613.542c152.75,0 277.291,120.583 283.833,271.708c0.167,-4.083 0.25,-8.208 0.25,-12.333c0,-156.917 -127.166,-284.125 -284.083,-284.125c-156.875,0 -284.084,127.208 -284.084,284.125c0,4.125 0.125,8.25 0.292,12.333c6.458,-151.125 131.041,-271.708 283.792,-271.708Z" style="fill:#b6998c;fill-rule:nonzero;"/><rect x="2334.754" y="6699.125" width="1389.167" height="121.917" style="fill:#d5caa4;fill-rule:nonzero;"/><rect x="2334.754" y="6699.125" width="1389.167" height="25.25" style="fill:#faece3;fill-rule:nonzero;"/><rect x="4868.959" y="6699.708" width="1945.792" height="121.917" style="fill:#d5caa4;fill-rule:nonzero;"/><rect x="4868.959" y="6699.708" width="1945.792" height="25.208" style="fill:#faece3;fill-rule:nonzero;"/></g><defs><linearGradient id="_Linear1" x1="0" y1="0" x2="1" y2="0" gradientUnits="userSpaceOnUse" gradientTransform="matrix(-41.010083,861.216667,-861.216667,-41.010083,2005.820833,2558.658293)"><stop offset="0" style="stop-color:#818f3c;stop-opacity:1"/><stop offset="1" style="stop-color:#5f6e2f;stop-opacity:1"/></linearGradient><linearGradient id="_Linear2" x1="0" y1="0" x2="1" y2="0" gradientUnits="userSpaceOnUse" gradientTransform="matrix(475.716667,508.525,-508.525,475.716667,2386.258333,3576.045793)"><stop offset="0" style="stop-color:#3a491e;stop-opacity:1"/><stop offset="1" style="stop-color:#29370e;stop-opacity:1"/></linearGradient><linearGradient id="_Linear3" x1="0" y1="0" x2="1" y2="0" gradientUnits="userSpaceOnUse" gradientTransform="matrix(-492.120833,1008.854167,-1008.854167,-492.120833,1585.125,3158.087459)"><stop offset="0" style="stop-color:#5e6e35;stop-opacity:1"/><stop offset="1" style="stop-color:#485826;stop-opacity:1"/></linearGradient><linearGradient id="_Linear4" x1="0" y1="0" x2="1" y2="0" gradientUnits="userSpaceOnUse" gradientTransform="matrix(-18.427625,386.981673,-386.981673,-18.427625,1943.233333,6152.291626)"><stop offset="0" style="stop-color:#818f3c;stop-opacity:1"/><stop offset="1" style="stop-color:#5f6e2f;stop-opacity:1"/></linearGradient><linearGradient id="_Linear5" x1="0" y1="0" x2="1" y2="0" gradientUnits="userSpaceOnUse" gradientTransform="matrix(-41.010083,861.216667,-861.216667,-41.010083,7130.708333,2558.658293)"><stop offset="0" style="stop-color:#818f3c;stop-opacity:1"/><stop offset="1" style="stop-color:#5f6e2f;stop-opacity:1"/></linearGradient><linearGradient id="_Linear6" x1="0" y1="0" x2="1" y2="0" gradientUnits="userSpaceOnUse" gradientTransform="matrix(475.720833,508.525,-508.525,475.720833,7511.125,3576.049959)"><stop offset="0" style="stop-color:#3a491e;stop-opacity:1"/><stop offset="1" style="stop-color:#29370e;stop-opacity:1"/></linearGradient><linearGradient id="_Linear7" x1="0" y1="0" x2="1" y2="0" gradientUnits="userSpaceOnUse" gradientTransform="matrix(-492.125,1008.858333,-1008.858333,-492.125,6710,3158.083293)"><stop offset="0" style="stop-color:#5e6e35;stop-opacity:1"/><stop offset="1" style="stop-color:#485826;stop-opacity:1"/></linearGradient><linearGradient id="_Linear8" x1="0" y1="0" x2="1" y2="0" gradientUnits="userSpaceOnUse" gradientTransform="matrix(-18.427582,386.98125,-386.98125,-18.427582,7068.125,6152.291626)"><stop offset="0" style="stop-color:#818f3c;stop-opacity:1"/><stop offset="1" style="stop-color:#5f6e2f;stop-opacity:1"/></linearGradient></defs></svg>